<svg width="625" height="625" viewBox="0 0 625 625" fill="none" xmlns="http://www.w3.org/2000/svg">
<circle cx="312.5" cy="312.5" r="310" stroke="#AE2CFF" stroke-width="5" stroke-dasharray="10 10"/>
<circle cx="312.5" cy="312.5" r="249.904" stroke="#509DFE" stroke-width="5"/>
<path d="M145.177 499.062H78.9387C77.777 499.062 76.8353 500.004 76.8353 501.165V502.331C76.8353 503.493 77.777 504.435 78.9387 504.435H145.177C146.338 504.435 147.28 503.493 147.28 502.331V501.165C147.28 500.004 146.338 499.062 145.177 499.062Z" fill="#ADBEC4"/>
<path d="M564.828 499.062H546.703C545.541 499.062 544.6 500.004 544.6 501.165V502.331C544.6 503.493 545.541 504.435 546.703 504.435H564.828C565.99 504.435 566.931 503.493 566.931 502.331V501.165C566.931 500.004 565.99 499.062 564.828 499.062Z" fill="#ADBEC4"/>
<path d="M269.816 499.062H203.578C202.416 499.062 201.475 500.004 201.475 501.165V502.331C201.475 503.493 202.416 504.435 203.578 504.435H269.816C270.978 504.435 271.919 503.493 271.919 502.331V501.165C271.919 500.004 270.978 499.062 269.816 499.062Z" fill="#ADBEC4"/>
<path d="M367.064 499.062H300.826C299.664 499.062 298.722 500.004 298.722 501.165V502.331C298.722 503.493 299.664 504.435 300.826 504.435H367.064C368.225 504.435 369.167 503.493 369.167 502.331V501.165C369.167 500.004 368.225 499.062 367.064 499.062Z" fill="#ADBEC4"/>
<path d="M486.15 499.062H395.862C394.7 499.062 393.758 500.004 393.758 501.165V502.331C393.758 503.493 394.7 504.435 395.862 504.435H486.15C487.312 504.435 488.254 503.493 488.254 502.331V501.165C488.254 500.004 487.312 499.062 486.15 499.062Z" fill="#ADBEC4"/>
<path d="M167.376 203.617C167.376 203.617 160.381 198.809 150.141 202.523C139.9 206.237 137.617 219.975 140.141 231.189C142.665 242.403 128.602 280.468 128.602 280.468C128.602 280.468 135.922 290.768 161.499 286.826C161.499 286.826 180.585 252.151 179.167 227.271C177.749 202.391 167.376 203.617 167.376 203.617Z" fill="#0E3944"/>
<path d="M175.477 246.634C185.093 243.557 190.97 251.562 196.487 266.466C202.004 281.369 203.819 282.872 203.819 282.872L225.081 296.538L223.314 304.506C223.314 304.506 203.073 296.586 198.181 291.538C193.29 286.49 179.215 260.973 179.215 260.973L175.477 246.634Z" fill="#EF6E4B"/>
<path d="M128.602 342.896C128.602 342.896 124.431 364.026 125.117 395.781C125.117 395.781 108.686 420.023 122.244 489.194H129.371C129.371 489.194 135.177 430.3 139.624 414.398C144.071 398.497 160.501 393.557 161.391 345.071L128.602 342.896Z" fill="#FF8B66"/>
<path d="M96.0541 405.024C91.9195 391.394 81.2945 368.569 53.9868 337.632C53.3581 337.391 52.6791 337.31 52.0116 337.399C51.3441 337.487 50.7092 337.74 50.1647 338.136C47.845 339.555 47.845 341.225 47.845 341.225C47.845 341.225 61.5229 371.021 70.2368 392.848C71.6709 396.444 74.1513 399.527 77.357 401.698C80.5627 403.868 84.3461 405.027 88.2176 405.024H96.0541Z" fill="#FF8B66"/>
<path d="M145.693 431.382C145.693 431.382 145.79 441.55 139.119 441.718C129.696 441.971 129.347 431.706 118.686 432.043C108.025 432.379 85.9939 435.048 79.0228 418.365C75.417 409.747 80.3569 398.69 68.6862 390.348C57.0156 382.007 62.6766 372.668 68.6862 367.656C74.6959 362.644 66.0901 357.199 72.292 354.651C73.6757 354.096 75.2147 354.066 76.6189 354.567C77.4183 354.874 78.1772 355.278 78.8786 355.769C81.1193 357.399 83.0319 359.438 84.5156 361.778C102.16 313.317 133.686 306.911 133.686 306.911L164.816 317.656C165.573 393.016 145.693 431.382 145.693 431.382Z" fill="#164353"/>
<path d="M175.477 246.634C169.746 248.206 163.74 248.505 157.881 247.511C147.545 245.937 144.191 239.458 136.92 243.629C126.018 249.903 131.126 271.477 133.867 282.691C134.888 286.874 136.174 297.86 133.71 306.934C133.71 306.934 148.23 318.22 164.852 317.667L173.915 297.944C173.915 297.944 193.602 274.362 175.477 246.634Z" fill="#CFD8DC"/>
<path d="M157.004 228.533C157.604 235.138 156.725 241.794 154.431 248.016C154.431 248.016 159.828 255.973 164.972 250.733C165.668 243.728 167.796 236.941 171.222 230.793C175.08 223.725 157.004 228.533 157.004 228.533Z" fill="#EF6E4B"/>
<path d="M148.734 228.882C148.734 228.882 144.191 226.009 144.708 230.444C145.297 235.588 150.321 236.586 150.85 234.783C151.379 232.98 148.734 228.882 148.734 228.882Z" fill="#FF8B66"/>
<path d="M174.828 223.317C174.828 223.317 177.713 218.774 179.143 223.004C180.79 227.908 176.739 230.961 175.441 229.555C174.143 228.148 174.828 223.317 174.828 223.317Z" fill="#FF8B66"/>
<path d="M165.441 244.254C157.184 246.093 151.33 241.755 147.713 225.601C145.85 217.259 148.915 211.178 158.181 209.134C167.448 207.091 172.448 211.31 174.311 219.639C178.205 236.995 173.951 242.343 165.441 244.254Z" fill="#FF8B66"/>
<path d="M172.869 226.009C172.942 226.455 172.862 226.912 172.643 227.307C172.423 227.702 172.077 228.012 171.66 228.186C171.243 228.36 170.779 228.388 170.344 228.265C169.909 228.143 169.528 227.877 169.263 227.511C169.139 227.06 169.195 226.579 169.419 226.169C169.644 225.758 170.019 225.451 170.465 225.312C170.877 225.088 171.36 225.036 171.81 225.166C172.261 225.297 172.641 225.6 172.869 226.009Z" fill="#DB614D"/>
<path d="M156.018 230.264C156.18 230.648 156.218 231.073 156.127 231.481C156.036 231.888 155.82 232.256 155.51 232.535C155.2 232.814 154.81 232.989 154.396 233.037C153.981 233.084 153.562 233.001 153.197 232.799C152.832 232.598 152.539 232.287 152.358 231.911C152.178 231.535 152.119 231.112 152.19 230.701C152.261 230.29 152.458 229.911 152.754 229.617C153.051 229.324 153.431 229.129 153.842 229.062C154.29 228.942 154.767 229 155.173 229.224C155.578 229.448 155.881 229.821 156.018 230.264Z" fill="#DB614D"/>
<path d="M167.136 218.485C167.05 218.485 166.967 218.46 166.895 218.413C165.845 217.843 164.619 217.684 163.458 217.968C163.348 217.994 163.233 217.976 163.136 217.917C163.039 217.859 162.97 217.765 162.941 217.656C162.915 217.549 162.932 217.437 162.989 217.342C163.045 217.248 163.136 217.179 163.242 217.151C164.632 216.806 166.102 217.004 167.352 217.704C167.399 217.733 167.439 217.772 167.47 217.817C167.502 217.862 167.524 217.913 167.535 217.967C167.546 218.021 167.547 218.076 167.536 218.13C167.525 218.184 167.503 218.235 167.472 218.281C167.436 218.339 167.387 218.388 167.329 218.423C167.27 218.459 167.204 218.48 167.136 218.485Z" fill="#0E3944"/>
<path d="M151.607 221.958C151.537 221.981 151.461 221.981 151.391 221.958C151.342 221.931 151.3 221.894 151.266 221.85C151.232 221.806 151.207 221.755 151.194 221.701C151.18 221.647 151.178 221.591 151.187 221.536C151.196 221.481 151.216 221.428 151.246 221.382C152.071 220.213 153.316 219.408 154.72 219.134C154.774 219.123 154.83 219.123 154.885 219.133C154.94 219.144 154.991 219.165 155.038 219.196C155.084 219.227 155.124 219.266 155.155 219.312C155.186 219.358 155.208 219.41 155.219 219.464C155.23 219.519 155.23 219.575 155.219 219.63C155.209 219.684 155.187 219.736 155.157 219.782C155.126 219.829 155.087 219.868 155.04 219.9C154.994 219.931 154.943 219.952 154.888 219.963C153.719 220.197 152.678 220.856 151.967 221.814C151.923 221.865 151.868 221.905 151.805 221.93C151.742 221.956 151.674 221.965 151.607 221.958Z" fill="#0E3944"/>
<path d="M167.496 223.004C167.725 224.038 167.496 224.963 166.883 225.096C166.27 225.228 165.681 224.495 165.429 223.473C165.177 222.451 165.429 221.514 166.042 221.382C166.655 221.249 167.268 221.983 167.496 223.004Z" fill="#1A4850"/>
<path d="M156.03 225.48C156.27 226.502 156.03 227.427 155.417 227.559C154.804 227.692 154.215 226.958 153.975 225.937C153.734 224.915 153.975 223.978 154.588 223.845C155.201 223.713 155.802 224.446 156.03 225.48Z" fill="#1A4850"/>
<path d="M159.744 235.168C159.744 235.168 165.032 234.747 167.376 232.764C167.376 232.764 166.727 236.898 163.842 237.187C163.037 237.281 162.222 237.14 161.495 236.782C160.768 236.424 160.16 235.863 159.744 235.168Z" fill="#1A4850"/>
<path d="M164.66 223.124C164.66 223.124 164.84 220.432 165.862 220.384C166.883 220.336 168.121 222.343 168.121 222.343L169.419 221.237L168.001 221.754C168.001 221.754 166.727 219.675 165.754 219.891C164.311 220.192 164.66 223.124 164.66 223.124Z" fill="#1A4850"/>
<path d="M156.667 225.18C156.667 225.18 155.357 222.776 154.407 223.22C153.458 223.665 153.206 225.949 153.206 225.949L151.571 225.504L153.073 225.372C153.073 225.372 153.338 222.968 154.275 222.728C155.681 222.451 156.667 225.18 156.667 225.18Z" fill="#1A4850"/>
<path d="M162.412 230.396L161.992 229.591C162.23 229.506 162.43 229.337 162.554 229.116C162.678 228.895 162.717 228.637 162.665 228.389C162.623 228.182 162.528 227.99 162.389 227.832C162.249 227.674 162.071 227.555 161.871 227.488C161.715 227.488 161.571 227.62 161.463 227.908L160.609 227.596C160.679 227.297 160.85 227.032 161.093 226.846C161.337 226.659 161.637 226.563 161.944 226.574C162.344 226.65 162.713 226.846 163.001 227.135C163.288 227.425 163.481 227.795 163.554 228.197C163.644 228.639 163.58 229.098 163.372 229.498C163.164 229.899 162.825 230.215 162.412 230.396Z" fill="#DB614D"/>
<path d="M149.395 231.79C149.395 231.79 146.847 222.427 148.362 215.817C148.362 215.817 155.573 205.829 169.383 210.756C172.207 215.71 174.262 221.063 175.477 226.634C175.477 226.634 175.994 223.304 174.612 215.901C173.229 208.497 166.667 203.881 157.665 205.384C148.662 206.886 139.059 215.816 149.395 231.79Z" fill="#0E3944"/>
<path d="M163.915 208.69C163.915 208.69 164.455 211.093 162.088 217.416C161.845 217.17 161.556 216.974 161.237 216.841C160.918 216.708 160.576 216.639 160.231 216.639C159.885 216.639 159.543 216.708 159.224 216.841C158.905 216.974 158.616 217.17 158.374 217.416C156.379 219.206 152.364 218.618 150.922 219.567C150.484 219.971 150.136 220.462 149.898 221.008C149.66 221.555 149.538 222.144 149.54 222.74C148.827 220.8 148.827 218.67 149.54 216.73C147.882 218.935 147.033 221.643 147.136 224.399C147.136 224.399 143.53 223.81 143.638 217.764C143.746 211.718 152.388 201.947 162.028 202.584C171.667 203.221 173.951 218.473 173.951 218.473C173.625 218.254 173.256 218.106 172.868 218.04C172.481 217.973 172.084 217.99 171.703 218.089C171.38 215.521 170.563 213.039 169.299 210.781C169.885 212.774 169.885 214.894 169.299 216.887C167.822 216.111 166.153 215.777 164.491 215.925C164.491 215.925 165.862 213.341 163.915 208.69Z" fill="#0E3944"/>
<path d="M134.455 245.612C139.143 241.91 142.797 246.61 143.686 253.112C144.576 259.615 136.102 297.98 129.564 296.574C127.04 296.021 125.958 285.973 125.958 285.973C127.897 277.058 129.301 268.036 130.165 258.954C131.006 251.442 132.016 247.487 134.455 245.612Z" fill="#FF8B66"/>
<path d="M120.814 291.093C114.504 285.084 103.181 265.12 100.309 254.951L105.117 253.028C105.117 253.028 119.54 273.665 126.126 278.87C132.713 284.074 135.008 289.867 132.136 294.831C129.263 299.795 122.136 292.367 120.814 291.093Z" fill="#FF8B66"/>
<path d="M102.28 241.646C101.943 248.173 107.268 249.711 104.9 254.723C104.713 255.154 104.439 255.541 104.096 255.862C103.753 256.182 103.347 256.429 102.905 256.586C102.179 256.819 101.401 256.842 100.663 256.65C99.9243 256.459 99.2556 256.061 98.7342 255.504C96.1485 253.039 93.2894 250.878 90.2126 249.062C87.8088 247.692 89.191 247.319 89.191 247.319L88.5059 247.031C86.8232 246.334 85.477 246.057 86.691 245.312C87.9049 244.567 92.953 246.238 92.953 246.238C86.6068 242.007 84.8761 243.04 86.0419 242.139C87.6165 240.937 93.6621 243.738 93.8424 243.822C90.489 240.649 88.0491 239.927 89.3833 239.447C90.7174 238.966 97.352 243.774 99.7559 245.613L100.633 246.286C100.597 240.913 102.28 241.646 102.28 241.646Z" fill="#FF8B66"/>
<path d="M99.7559 245.612L100.633 246.285C100.299 246.982 100.155 247.754 100.214 248.524C100.273 249.294 100.534 250.035 100.97 250.672C100.187 250.12 99.6328 249.302 99.4094 248.371C99.1861 247.44 99.3092 246.459 99.7559 245.612Z" fill="#EF6E4B"/>
<path d="M94.2271 249.326C93.6622 249.026 90.4651 247.211 89.1911 247.319L88.506 247.031C89.3714 245.901 93.5901 248.869 94.2271 249.326Z" fill="#EF6E4B"/>
<path d="M119.431 346.177C119.431 346.432 119.356 346.68 119.215 346.892C119.073 347.103 118.873 347.268 118.638 347.365C118.403 347.463 118.144 347.488 117.895 347.439C117.645 347.389 117.416 347.266 117.236 347.087C117.056 346.907 116.934 346.678 116.884 346.428C116.834 346.179 116.86 345.92 116.957 345.685C117.055 345.45 117.219 345.249 117.431 345.108C117.642 344.967 117.891 344.891 118.145 344.891C118.487 344.891 118.814 345.027 119.055 345.268C119.296 345.509 119.431 345.836 119.431 346.177Z" fill="#6097B2"/>
<path d="M142.316 354.987C142.318 355.242 142.245 355.492 142.105 355.705C141.965 355.918 141.765 356.085 141.531 356.184C141.296 356.283 141.037 356.31 140.787 356.262C140.536 356.214 140.306 356.092 140.125 355.913C139.944 355.734 139.82 355.505 139.77 355.255C139.719 355.005 139.744 354.746 139.841 354.51C139.938 354.274 140.103 354.073 140.314 353.931C140.526 353.789 140.775 353.713 141.03 353.713C141.369 353.713 141.694 353.847 141.935 354.086C142.176 354.324 142.313 354.648 142.316 354.987Z" fill="#6097B2"/>
<path d="M161.811 359.795C161.811 360.05 161.736 360.298 161.595 360.51C161.453 360.721 161.252 360.886 161.017 360.984C160.782 361.081 160.524 361.106 160.274 361.057C160.025 361.007 159.796 360.885 159.616 360.705C159.436 360.525 159.313 360.296 159.264 360.046C159.214 359.797 159.24 359.538 159.337 359.303C159.434 359.068 159.599 358.867 159.811 358.726C160.022 358.585 160.271 358.509 160.525 358.509C160.866 358.509 161.193 358.645 161.435 358.886C161.676 359.127 161.811 359.454 161.811 359.795Z" fill="#6097B2"/>
<path d="M131.847 329.422C131.847 329.677 131.772 329.925 131.631 330.137C131.489 330.348 131.288 330.513 131.053 330.61C130.818 330.708 130.56 330.733 130.31 330.684C130.061 330.634 129.832 330.512 129.652 330.332C129.472 330.152 129.35 329.923 129.3 329.673C129.25 329.424 129.276 329.165 129.373 328.93C129.471 328.695 129.635 328.494 129.847 328.353C130.058 328.212 130.307 328.136 130.561 328.136C130.902 328.136 131.23 328.272 131.471 328.513C131.712 328.754 131.847 329.081 131.847 329.422Z" fill="#6097B2"/>
<path d="M134.888 342.908C135.598 342.908 136.174 342.332 136.174 341.622C136.174 340.912 135.598 340.336 134.888 340.336C134.178 340.336 133.602 340.912 133.602 341.622C133.602 342.332 134.178 342.908 134.888 342.908Z" fill="#6097B2"/>
<path d="M156.463 348.557C156.465 348.812 156.392 349.062 156.252 349.275C156.112 349.488 155.912 349.655 155.677 349.754C155.442 349.853 155.183 349.88 154.933 349.832C154.683 349.784 154.453 349.662 154.272 349.483C154.091 349.304 153.967 349.074 153.916 348.825C153.866 348.575 153.89 348.316 153.987 348.08C154.084 347.844 154.249 347.643 154.461 347.501C154.673 347.359 154.922 347.283 155.177 347.283C155.516 347.283 155.841 347.417 156.082 347.656C156.323 347.894 156.46 348.218 156.463 348.557Z" fill="#6097B2"/>
<path d="M159.239 327.536C159.239 327.791 159.163 328.04 159.022 328.251C158.88 328.463 158.678 328.628 158.442 328.725C158.207 328.822 157.947 328.847 157.698 328.796C157.448 328.745 157.219 328.622 157.039 328.441C156.86 328.26 156.739 328.029 156.69 327.779C156.642 327.529 156.669 327.27 156.768 327.035C156.868 326.8 157.034 326.6 157.247 326.46C157.46 326.321 157.71 326.247 157.965 326.25C158.133 326.25 158.3 326.283 158.455 326.348C158.611 326.412 158.752 326.507 158.87 326.627C158.989 326.747 159.082 326.888 159.146 327.044C159.209 327.2 159.241 327.367 159.239 327.536Z" fill="#6097B2"/>
<path d="M144.672 324.447C145.382 324.447 145.958 323.871 145.958 323.161C145.958 322.45 145.382 321.875 144.672 321.875C143.962 321.875 143.386 322.45 143.386 323.161C143.386 323.871 143.962 324.447 144.672 324.447Z" fill="#6097B2"/>
<path d="M108.073 371.202C108.073 371.456 107.998 371.705 107.856 371.916C107.715 372.128 107.514 372.292 107.279 372.39C107.044 372.487 106.786 372.513 106.536 372.463C106.287 372.413 106.058 372.291 105.878 372.111C105.698 371.931 105.575 371.702 105.526 371.453C105.476 371.203 105.502 370.944 105.599 370.709C105.696 370.474 105.861 370.274 106.073 370.132C106.284 369.991 106.533 369.916 106.787 369.916C106.956 369.914 107.124 369.946 107.281 370.01C107.438 370.074 107.58 370.169 107.7 370.289C107.82 370.408 107.915 370.551 107.979 370.708C108.043 370.864 108.075 371.032 108.073 371.202Z" fill="#6097B2"/>
<path d="M89.7921 365.805C89.7921 366.059 89.7167 366.308 89.5753 366.519C89.434 366.731 89.2332 366.895 88.9982 366.993C88.7632 367.09 88.5046 367.116 88.2551 367.066C88.0057 367.016 87.7765 366.894 87.5966 366.714C87.4168 366.534 87.2943 366.305 87.2447 366.056C87.1951 365.806 87.2205 365.547 87.3179 365.312C87.4152 365.077 87.58 364.877 87.7915 364.735C88.003 364.594 88.2517 364.519 88.506 364.519C88.8471 364.519 89.1742 364.654 89.4154 364.895C89.6566 365.136 89.7921 365.464 89.7921 365.805Z" fill="#6097B2"/>
<path d="M78.8906 355.708C78.7734 355.888 78.6128 356.035 78.4237 356.135C78.2346 356.236 78.0232 356.288 77.8089 356.285C77.64 356.284 77.4731 356.249 77.3177 356.183C77.1622 356.117 77.0213 356.021 76.903 355.9C76.7847 355.78 76.6913 355.637 76.6281 355.48C76.565 355.324 76.5333 355.156 76.5349 354.987C76.5284 354.833 76.5615 354.68 76.631 354.542C77.4286 354.838 78.1874 355.23 78.8906 355.708Z" fill="#6097B2"/>
<path d="M113.338 389.218C114.048 389.218 114.624 388.642 114.624 387.932C114.624 387.222 114.048 386.646 113.338 386.646C112.627 386.646 112.052 387.222 112.052 387.932C112.052 388.642 112.627 389.218 113.338 389.218Z" fill="#6097B2"/>
<path d="M81.8112 406.105C81.8285 406.284 81.8083 406.464 81.7519 406.634C81.6954 406.804 81.604 406.961 81.4834 407.094C81.3629 407.227 81.2159 407.333 81.0519 407.405C80.8879 407.478 80.7105 407.515 80.5312 407.515C80.3518 407.515 80.1744 407.478 80.0104 407.405C79.8464 407.333 79.6994 407.227 79.5789 407.094C79.4584 406.961 79.3669 406.804 79.3105 406.634C79.254 406.464 79.2338 406.284 79.2511 406.105C79.282 405.787 79.4302 405.492 79.6668 405.277C79.9035 405.062 80.2116 404.943 80.5312 404.943C80.8508 404.943 81.1589 405.062 81.3955 405.277C81.6322 405.492 81.7804 405.787 81.8112 406.105Z" fill="#6097B2"/>
<path d="M93.9387 396.382C94.6489 396.382 95.2247 395.806 95.2247 395.096C95.2247 394.385 94.6489 393.81 93.9387 393.81C93.2284 393.81 92.6526 394.385 92.6526 395.096C92.6526 395.806 93.2284 396.382 93.9387 396.382Z" fill="#6097B2"/>
<path d="M73.9747 386.634C74.6849 386.634 75.2607 386.058 75.2607 385.348C75.2607 384.638 74.6849 384.062 73.9747 384.062C73.2644 384.062 72.6886 384.638 72.6886 385.348C72.6886 386.058 73.2644 386.634 73.9747 386.634Z" fill="#6097B2"/>
<path d="M91.3425 423.738C91.3419 423.995 91.2639 424.247 91.1185 424.46C90.9731 424.673 90.7671 424.837 90.5272 424.932C90.2872 425.026 90.0245 425.046 89.773 424.989C89.5215 424.932 89.2929 424.801 89.1169 424.613C88.9408 424.425 88.8254 424.188 88.7857 423.933C88.746 423.678 88.7838 423.417 88.8942 423.184C89.0045 422.951 89.1824 422.757 89.4046 422.626C89.6269 422.495 89.8833 422.435 90.1406 422.451C90.4669 422.473 90.7728 422.618 90.996 422.857C91.2193 423.096 91.3432 423.411 91.3425 423.738Z" fill="#6097B2"/>
<path d="M103.578 356.285C103.576 356.54 103.498 356.788 103.355 356.998C103.211 357.208 103.009 357.371 102.773 357.466C102.537 357.561 102.278 357.584 102.029 357.532C101.78 357.48 101.552 357.356 101.374 357.174C101.196 356.993 101.076 356.762 101.028 356.512C100.981 356.263 101.009 356.004 101.109 355.77C101.208 355.536 101.375 355.337 101.588 355.197C101.8 355.058 102.05 354.985 102.304 354.987C102.473 354.987 102.641 355.021 102.797 355.087C102.953 355.152 103.095 355.248 103.213 355.369C103.332 355.49 103.425 355.633 103.488 355.791C103.551 355.948 103.581 356.116 103.578 356.285Z" fill="#6097B2"/>
<path d="M115.91 334.687C115.9 334.939 115.817 335.183 115.67 335.388C115.523 335.593 115.319 335.75 115.084 335.84C114.848 335.93 114.591 335.949 114.345 335.894C114.098 335.839 113.874 335.713 113.699 335.531C113.524 335.35 113.406 335.12 113.36 334.872C113.314 334.624 113.342 334.368 113.441 334.136C113.54 333.904 113.704 333.706 113.915 333.566C114.125 333.427 114.372 333.353 114.624 333.353C114.797 333.351 114.969 333.384 115.129 333.451C115.289 333.518 115.434 333.617 115.554 333.742C115.675 333.867 115.769 334.015 115.83 334.178C115.891 334.34 115.918 334.513 115.91 334.687Z" fill="#6097B2"/>
<path d="M129.804 316.706C129.773 317.024 129.625 317.319 129.388 317.534C129.152 317.749 128.844 317.868 128.524 317.868C128.204 317.868 127.896 317.749 127.66 317.534C127.423 317.319 127.275 317.024 127.244 316.706C127.227 316.528 127.247 316.347 127.303 316.177C127.36 316.007 127.451 315.85 127.572 315.718C127.692 315.585 127.839 315.479 128.003 315.406C128.167 315.333 128.345 315.296 128.524 315.296C128.703 315.296 128.881 315.333 129.045 315.406C129.209 315.479 129.356 315.585 129.476 315.718C129.597 315.85 129.688 316.007 129.745 316.177C129.801 316.347 129.821 316.528 129.804 316.706Z" fill="#6097B2"/>
<path d="M101.595 342.896C101.595 343.15 101.52 343.399 101.378 343.61C101.237 343.822 101.036 343.987 100.801 344.084C100.566 344.181 100.307 344.207 100.058 344.157C99.8085 344.108 99.5794 343.985 99.3995 343.805C99.2196 343.625 99.0972 343.396 99.0475 343.147C98.9979 342.897 99.0234 342.639 99.1207 342.404C99.2181 342.169 99.3829 341.968 99.5944 341.827C99.8059 341.685 100.055 341.61 100.309 341.61C100.65 341.61 100.977 341.745 101.218 341.987C101.459 342.228 101.595 342.555 101.595 342.896Z" fill="#6097B2"/>
<path d="M117.196 321.874C117.196 322.129 117.12 322.377 116.979 322.589C116.838 322.8 116.637 322.965 116.402 323.063C116.167 323.16 115.908 323.185 115.659 323.136C115.409 323.086 115.18 322.964 115 322.784C114.821 322.604 114.698 322.375 114.648 322.125C114.599 321.876 114.624 321.617 114.722 321.382C114.819 321.147 114.984 320.946 115.195 320.805C115.407 320.664 115.655 320.588 115.91 320.588C116.251 320.588 116.578 320.724 116.819 320.965C117.06 321.206 117.196 321.533 117.196 321.874Z" fill="#6097B2"/>
<path d="M92.6526 379.639C92.6525 379.892 92.5777 380.14 92.4374 380.351C92.2971 380.562 92.0977 380.726 91.8641 380.825C91.6305 380.923 91.3731 380.949 91.1243 380.902C90.8755 380.854 90.6464 380.734 90.4656 380.556C90.2848 380.379 90.1605 380.152 90.1082 379.904C90.0558 379.656 90.0779 379.398 90.1716 379.163C90.2652 378.928 90.4263 378.725 90.6346 378.581C90.8429 378.437 91.0892 378.357 91.3425 378.353C91.5134 378.35 91.6832 378.38 91.842 378.444C92.0008 378.507 92.1454 378.601 92.2674 378.721C92.3894 378.841 92.4863 378.983 92.5524 379.141C92.6186 379.299 92.6526 379.468 92.6526 379.639Z" fill="#6097B2"/>
<path d="M76.5349 368.305C76.5522 368.483 76.532 368.664 76.4755 368.834C76.4191 369.004 76.3276 369.161 76.2071 369.293C76.0865 369.426 75.9395 369.532 75.7755 369.605C75.6115 369.678 75.4342 369.715 75.2548 369.715C75.0755 369.715 74.8981 369.678 74.7341 369.605C74.5701 369.532 74.4231 369.426 74.3025 369.293C74.182 369.161 74.0906 369.004 74.0341 368.834C73.9777 368.664 73.9574 368.483 73.9748 368.305C74.0056 367.987 74.1538 367.692 74.3904 367.477C74.6271 367.262 74.9352 367.143 75.2548 367.143C75.5744 367.143 75.8825 367.262 76.1192 367.477C76.3558 367.692 76.504 367.987 76.5349 368.305Z" fill="#6097B2"/>
<path d="M121.992 365.757C122.702 365.757 123.278 365.181 123.278 364.471C123.278 363.76 122.702 363.185 121.992 363.185C121.281 363.185 120.705 363.76 120.705 364.471C120.705 365.181 121.281 365.757 121.992 365.757Z" fill="#6097B2"/>
<path d="M148.518 372.488C149.228 372.488 149.804 371.912 149.804 371.202C149.804 370.491 149.228 369.916 148.518 369.916C147.808 369.916 147.232 370.491 147.232 371.202C147.232 371.912 147.808 372.488 148.518 372.488Z" fill="#6097B2"/>
<path d="M148.518 334.687C148.509 334.939 148.425 335.183 148.278 335.388C148.131 335.593 147.927 335.75 147.692 335.84C147.456 335.93 147.199 335.949 146.953 335.894C146.707 335.839 146.482 335.713 146.307 335.531C146.132 335.35 146.014 335.12 145.968 334.872C145.922 334.624 145.95 334.368 146.049 334.136C146.148 333.904 146.312 333.706 146.523 333.566C146.733 333.427 146.98 333.353 147.232 333.353C147.405 333.351 147.577 333.384 147.738 333.451C147.898 333.518 148.042 333.617 148.163 333.742C148.283 333.867 148.377 334.015 148.438 334.178C148.499 334.34 148.526 334.513 148.518 334.687Z" fill="#6097B2"/>
<path d="M163.939 337.367C163.941 337.622 163.868 337.872 163.728 338.085C163.588 338.298 163.388 338.465 163.153 338.564C162.918 338.663 162.659 338.69 162.409 338.642C162.159 338.594 161.929 338.472 161.748 338.293C161.566 338.114 161.443 337.884 161.392 337.635C161.342 337.385 161.366 337.126 161.463 336.89C161.56 336.654 161.725 336.453 161.937 336.311C162.149 336.169 162.398 336.093 162.653 336.093C162.992 336.093 163.317 336.227 163.558 336.466C163.799 336.704 163.935 337.028 163.939 337.367Z" fill="#6097B2"/>
<path d="M133.133 380.925C133.133 381.179 133.058 381.428 132.917 381.639C132.775 381.851 132.574 382.016 132.339 382.113C132.104 382.21 131.846 382.236 131.596 382.186C131.347 382.136 131.118 382.014 130.938 381.834C130.758 381.654 130.636 381.425 130.586 381.176C130.536 380.926 130.562 380.668 130.659 380.433C130.757 380.198 130.921 379.997 131.133 379.855C131.344 379.714 131.593 379.639 131.847 379.639C132.017 379.637 132.185 379.669 132.341 379.733C132.498 379.797 132.641 379.892 132.76 380.012C132.88 380.132 132.975 380.274 133.039 380.431C133.103 380.587 133.135 380.755 133.133 380.925Z" fill="#6097B2"/>
<path d="M120.705 405.036C121.416 405.036 121.992 404.46 121.992 403.749C121.992 403.039 121.416 402.463 120.705 402.463C119.995 402.463 119.419 403.039 119.419 403.749C119.419 404.46 119.995 405.036 120.705 405.036Z" fill="#6097B2"/>
<path d="M101.018 408.689C101.728 408.689 102.304 408.113 102.304 407.403C102.304 406.693 101.728 406.117 101.018 406.117C100.308 406.117 99.7319 406.693 99.7319 407.403C99.7319 408.113 100.308 408.689 101.018 408.689Z" fill="#6097B2"/>
<path d="M155.177 389.218C155.887 389.218 156.463 388.642 156.463 387.932C156.463 387.222 155.887 386.646 155.177 386.646C154.466 386.646 153.891 387.222 153.891 387.932C153.891 388.642 154.466 389.218 155.177 389.218Z" fill="#6097B2"/>
<path d="M138.734 397.656C138.734 397.91 138.659 398.159 138.518 398.37C138.376 398.582 138.175 398.747 137.94 398.844C137.705 398.941 137.447 398.967 137.197 398.917C136.948 398.867 136.719 398.745 136.539 398.565C136.359 398.385 136.237 398.156 136.187 397.907C136.137 397.657 136.163 397.399 136.26 397.164C136.357 396.929 136.522 396.728 136.734 396.586C136.945 396.445 137.194 396.37 137.448 396.37C137.789 396.37 138.116 396.505 138.358 396.746C138.599 396.988 138.734 397.315 138.734 397.656Z" fill="#6097B2"/>
<path d="M112.064 426.297C112.066 426.552 111.993 426.802 111.853 427.015C111.713 427.228 111.513 427.395 111.278 427.494C111.043 427.593 110.784 427.621 110.534 427.572C110.284 427.524 110.054 427.403 109.873 427.223C109.691 427.044 109.568 426.815 109.517 426.565C109.467 426.315 109.491 426.056 109.588 425.82C109.685 425.584 109.85 425.383 110.062 425.241C110.274 425.099 110.523 425.023 110.778 425.023C111.117 425.023 111.442 425.157 111.683 425.396C111.924 425.634 112.06 425.958 112.064 426.297Z" fill="#6097B2"/>
<path d="M130.561 420.913C131.272 420.913 131.847 420.337 131.847 419.627C131.847 418.917 131.272 418.341 130.561 418.341C129.851 418.341 129.275 418.917 129.275 419.627C129.275 420.337 129.851 420.913 130.561 420.913Z" fill="#6097B2"/>
<path d="M149.624 413.353C150.334 413.353 150.91 412.777 150.91 412.067C150.91 411.357 150.334 410.781 149.624 410.781C148.913 410.781 148.338 411.357 148.338 412.067C148.338 412.777 148.913 413.353 149.624 413.353Z" fill="#6097B2"/>
<path d="M142.316 434.134C142.316 434.389 142.241 434.637 142.099 434.849C141.958 435.06 141.757 435.225 141.522 435.322C141.287 435.42 141.029 435.445 140.779 435.396C140.53 435.346 140.3 435.223 140.121 435.044C139.941 434.864 139.818 434.635 139.769 434.385C139.719 434.136 139.744 433.877 139.842 433.642C139.939 433.407 140.104 433.206 140.315 433.065C140.527 432.924 140.776 432.848 141.03 432.848C141.371 432.848 141.698 432.984 141.939 433.225C142.181 433.466 142.316 433.793 142.316 434.134Z" fill="#6097B2"/>
<path d="M140.91 501.694H119.84C118.458 497.764 121.042 493.833 120.573 490.372C119.84 484.53 123.242 487.752 123.242 487.752C123.842 481.478 132.677 480.288 132.58 483.088C132.436 487.211 133.23 489.759 134.407 491.502C136.811 494.927 140.681 494.903 141.342 497.367C141.415 497.595 141.463 497.836 141.511 498.052C142.16 501.093 140.91 501.694 140.91 501.694Z" fill="#164353"/>
<path d="M141.511 498.016C137.148 499.038 127.088 497.716 126.679 495.18C126.27 492.644 131.715 491.574 134.407 491.466C136.811 494.891 140.681 494.867 141.342 497.331C141.415 497.56 141.463 497.8 141.511 498.016Z" fill="#205260"/>
<path d="M54.2872 338.473C52.0516 336.43 48.4098 339.807 48.4098 339.807C48.4098 339.807 50.3689 342.716 49.0949 343.894C47.8209 345.072 46.3665 342.379 43.8665 343.557C43.6547 343.66 43.4499 343.776 43.2536 343.906C41.3064 345.108 39.2752 347.511 37.6406 349.362L36.6911 350.384C34.78 352.391 29.8521 353.569 28.9387 348.233C28.0252 342.896 34.0228 336.634 40.6093 330.877C47.1959 325.12 51.4266 328.545 51.4266 328.545C52.1846 329.736 52.6918 331.07 52.917 332.463C52.917 333.966 54.2512 334.711 54.9963 336.141C55.1886 336.549 55.2225 337.013 55.0914 337.444C54.9603 337.875 54.6737 338.242 54.2872 338.473Z" fill="#164353"/>
<path d="M43.2656 343.906C41.3185 345.108 39.2872 347.512 37.6526 349.363C35.1766 349.952 32.9651 349.771 32.6166 347.452C31.7752 341.851 42.9531 334.723 42.0637 338.666C41.9085 339.575 41.9348 340.507 42.1411 341.406C42.3473 342.305 42.7295 343.155 43.2656 343.906Z" fill="#205260"/>
<path d="M433.434 492.572C432.205 491.762 431.217 490.637 430.573 489.315C430.143 486.265 430.143 483.17 430.573 480.12C431.318 475.408 429.263 471.55 422.592 470.108C416.114 468.702 412.256 471.827 413.758 484.868C412.773 490.288 412.556 496.478 414.816 501.694H434.78C434.78 501.694 437.929 494.94 433.434 492.572Z" fill="#CFD8DC"/>
<path d="M450.946 422.295C450.541 431.521 448.033 440.533 443.614 448.641C436.138 462.235 426.895 480.889 426.895 480.889C426.895 480.889 420.741 486.899 416.835 476.947C416.835 476.947 419.588 442.307 425.934 429.627C432.28 416.947 450.946 422.295 450.946 422.295Z" fill="#FF8B66"/>
<path d="M546.703 379.916C546.703 379.916 558.59 429.928 566.15 443.125C566.15 443.125 564.419 448.641 556.222 450.336C556.222 450.336 530.345 412.307 528.686 396.25C527.028 380.192 546.703 379.916 546.703 379.916Z" fill="#FF8B66"/>
<path d="M552.448 391.682C549.287 399.303 524.804 399.711 524.804 399.711L522.941 396.959L522.448 396.238L518.626 390.613C518.626 390.613 478.133 350.949 470.249 354.23C470.015 354.335 469.794 354.464 469.588 354.615C464.167 358.485 463.662 379.699 457.256 415.288C456.539 418.712 455.534 422.069 454.251 425.324C454.131 425.613 454.023 425.889 453.915 426.166C453.326 427.668 452.917 428.569 452.917 428.569C428.205 438.581 420.044 418.798 420.044 418.798C420.044 418.798 420.345 418.221 420.766 417.307L421.078 416.634C422.376 413.786 424.443 408.834 424.419 406.214C424.419 403.353 424.395 400.593 424.347 397.932C424.347 397.692 424.347 397.464 424.347 397.235C424.347 388.678 424.347 381.25 424.347 374.795V374.218C424.347 371.406 424.419 368.774 424.468 366.322V365.625C424.684 354.375 425.044 346.863 425.429 341.863C425.429 341.634 425.429 341.394 425.429 341.178C426.114 332.764 426.835 331.935 426.835 331.935L421.883 297.512H475.958C475.958 297.512 484.071 305.637 494.6 316.37L495.261 317.019C499.071 320.901 503.193 325.12 507.34 329.411L507.821 329.904L512.629 334.928C512.821 335.132 513.013 335.348 513.217 335.541C518.626 341.166 523.891 346.706 528.386 351.55C528.542 351.706 528.698 351.863 528.842 352.031C534.996 358.69 539.66 364.05 541.294 366.454C545.199 372.862 548.372 379.687 550.754 386.803C550.85 387.043 550.922 387.259 551.006 387.488C551.967 390.048 552.448 391.682 552.448 391.682Z" fill="#8B383E"/>
<path d="M435.02 337.03C432.56 339.78 429.151 341.497 425.477 341.838C425.477 341.61 425.477 341.369 425.477 341.153C428.938 340.822 432.148 339.2 434.467 336.61C436.735 333.662 437.835 329.981 437.556 326.273L438.229 326.189C438.551 330.077 437.406 333.944 435.02 337.03Z" fill="#662C33"/>
<path d="M495.297 316.971H494.672C488.662 316.971 482.388 310.396 482.076 310.072L482.556 309.603C482.629 309.699 488.879 316.238 494.636 316.286L495.297 316.971Z" fill="#662C33"/>
<path d="M454.323 425.324C454.203 425.612 454.095 425.889 453.987 426.165C450.464 427.501 446.732 428.201 442.965 428.233C432.292 428.233 424.936 422.055 420.838 417.415L421.15 416.742C426.306 422.788 437.388 431.766 454.323 425.324Z" fill="#662C33"/>
<path d="M468.746 341.838C469.702 345.901 470.202 350.057 470.237 354.23C470.003 354.335 469.782 354.464 469.576 354.615C469.576 334.471 457.881 318.749 457.749 318.557L458.278 318.148C463.077 325.114 466.564 332.898 468.566 341.117C469.244 340.689 469.83 340.128 470.288 339.47C470.746 338.811 471.068 338.068 471.234 337.283C472.917 330.216 465.225 318.665 465.225 318.545L465.766 318.16C466.09 318.665 473.638 330.084 471.907 337.391C471.717 338.311 471.337 339.181 470.793 339.946C470.249 340.712 469.552 341.356 468.746 341.838Z" fill="#662C33"/>
<path d="M528.939 351.983C526.943 354.134 525.08 355.985 524.912 356.141L524.552 356.502L524.371 356.021C521.751 349.17 504.948 334.386 504.768 334.194L504.564 334.002L507.376 329.362L507.857 329.855L505.453 333.749C507.741 334.664 510.206 335.051 512.665 334.879C512.857 335.083 513.049 335.3 513.254 335.492C512.674 335.594 512.087 335.647 511.499 335.648C509.745 335.6 508.008 335.297 506.342 334.747C510.153 338.196 521.967 349.17 524.744 355.312C525.79 354.278 527.148 352.908 528.422 351.502C528.638 351.658 528.842 351.814 528.939 351.983Z" fill="#662C33"/>
<path d="M436.667 397.872H436.403C434.176 398.333 431.909 398.567 429.636 398.569C427.865 398.597 426.098 398.387 424.383 397.944C424.383 397.704 424.383 397.475 424.383 397.247C428.782 398.521 434.672 397.536 436.006 397.247L434.888 369.483C434.106 371.518 432.617 373.203 430.693 374.23C429.54 374.8 428.266 375.084 426.979 375.06C426.114 375.053 425.252 374.956 424.407 374.771V374.218C426.401 374.789 428.533 374.627 430.417 373.762C431.471 373.165 432.395 372.363 433.134 371.403C433.874 370.443 434.413 369.344 434.72 368.173C432.496 368.509 427.989 367.367 424.564 366.322V365.625C428.266 366.742 433.266 368.028 435.068 367.415L435.489 367.271L436.667 397.872Z" fill="#662C33"/>
<path d="M551.102 387.439C547.928 390.554 544.171 393.013 540.047 394.675C535.922 396.337 531.51 397.171 527.064 397.127C525.715 397.124 524.367 397.052 523.025 396.911L522.532 396.189C537.4 397.896 546.739 390.925 550.886 386.754C550.946 387.043 551.018 387.259 551.102 387.439Z" fill="#662C33"/>
<path d="M485.982 151.153C485.982 151.153 484.492 147.728 478.23 147.728C473.422 147.728 471.547 150.396 471.547 150.396C468.65 158.809 465.537 191.261 464.431 192.355C463.867 192.944 428.013 217.091 428.013 217.091C447.472 217.451 459.612 241.429 459.612 241.429C460.237 233.557 482.208 202.331 482.448 199.542C482.893 194.29 492.184 170.829 485.982 151.153Z" fill="#CE364C"/>
<path d="M423.746 320.348C423.746 320.348 423.566 327.103 425.754 327.559C439.25 330.974 453.507 329.702 466.186 323.954C486.619 314.651 490.225 307.764 484.215 302.644C478.205 297.523 423.746 320.348 423.746 320.348Z" fill="#CE364C"/>
<path d="M415.549 221.766C415.549 221.766 396.931 219.555 386.258 224.17C386.258 224.17 383.278 237.391 397.941 266.947C412.604 296.502 409.203 315.144 425.754 322.151C440.417 328.365 483.65 309.867 485.008 303.738C488.422 288.293 461.979 261.238 460.333 245.492C458.686 229.747 443.302 206.19 415.549 221.766Z" fill="#F24052"/>
<path d="M386.258 224.17C373.242 228.797 358.614 243.401 358.614 250.444C358.614 257.487 370.814 260.203 370.814 260.203L390.838 250.42C390.838 250.42 396.583 246.417 392.929 234.795C389.275 223.172 386.258 224.17 386.258 224.17Z" fill="#CE364C"/>
<path d="M439.72 237.199C435.561 237.146 431.502 235.917 428.013 233.653C427.307 233.236 426.692 232.682 426.202 232.023C425.713 231.365 425.36 230.616 425.164 229.819C424.431 225.204 428.927 222.848 429.119 222.752L429.72 223.954C429.564 224.038 425.898 225.973 426.475 229.627C426.834 230.873 427.661 231.932 428.782 232.584C432.602 235.09 437.172 236.194 441.715 235.709C442.368 235.669 443.003 235.486 443.577 235.172C444.15 234.859 444.647 234.422 445.032 233.894C445.206 233.519 445.303 233.113 445.318 232.7C445.332 232.287 445.264 231.876 445.116 231.49L446.318 230.961C446.539 231.528 446.641 232.134 446.619 232.742C446.596 233.349 446.449 233.946 446.186 234.495C445.714 235.211 445.084 235.81 444.344 236.245C443.604 236.681 442.775 236.941 441.919 237.007C441.193 237.133 440.457 237.197 439.72 237.199Z" fill="#CFD8DC"/>
<path d="M423.217 251.274C420.333 251.274 415.561 250.072 414.888 245.348C414.636 243.295 414.661 241.217 414.96 239.17C415.249 236.562 415.465 234.507 413.951 232.031C411.439 227.968 408.025 227.692 407.881 227.68L407.965 226.346C408.133 226.346 412.196 226.646 415.092 231.334C416.847 234.194 416.571 236.682 416.294 239.314C416.008 241.249 415.984 243.214 416.222 245.156C416.943 250.264 423.434 249.963 423.722 249.963L423.794 251.298L423.217 251.274Z" fill="#CFD8DC"/>
<path d="M427.268 227.319C427.268 227.319 437.112 220.624 434.768 213.365C432.424 206.105 400.741 206.61 392.568 215.288C384.395 223.966 410.249 229.711 410.249 229.711C412.256 225.684 425.044 225.24 427.268 227.319Z" fill="#CE364C"/>
<path d="M409.576 226.189C404.9 224.603 402.136 221.237 403.133 217.343C404.131 213.449 424.215 213.341 428.013 216.454C431.811 219.567 426.463 231.922 409.576 226.189Z" fill="#A02E44"/>
<path d="M407.352 215.252C407.352 215.252 411.475 222.307 409.576 226.189C409.576 226.189 423.746 231.081 423.746 223.148C423.746 223.148 421.078 217.211 422.076 213.365L407.352 215.252Z" fill="#EF6E4B"/>
<path d="M402.641 209.086C402.641 209.086 395.681 197.932 396.33 187.283C396.655 181.959 399.395 179.867 399.395 179.867C399.395 179.867 397.184 176.79 399.552 172.091C399.552 172.091 402.833 175.889 414.335 174.687C425.441 173.485 426.547 181.454 426.547 181.454C434.48 182.656 429.131 206.634 423.59 209.098L402.641 209.086Z" fill="#FFB878"/>
<path d="M399.672 198.737C399.672 198.737 395.669 194.747 395.177 199.41C394.6 204.819 399.516 207.006 400.477 205.288C401.439 203.569 399.672 198.737 399.672 198.737Z" fill="#FF8B66"/>
<path d="M427.701 199.074C427.701 199.074 431.703 195.072 432.196 199.747C432.761 205.156 427.845 207.331 426.883 205.612C425.922 203.894 427.701 199.074 427.701 199.074Z" fill="#FF8B66"/>
<path d="M413.266 218.377C404.383 218.377 399.371 212.583 399.371 195.179C399.371 186.213 403.939 180.756 413.879 180.756C423.818 180.756 428.013 186.261 428.013 195.179C428.013 213.881 422.436 218.377 413.266 218.377Z" fill="#FF8B66"/>
<path d="M425.08 201.394C425.246 201.797 425.282 202.241 425.184 202.665C425.086 203.089 424.859 203.473 424.534 203.762C424.208 204.052 423.801 204.234 423.369 204.282C422.936 204.331 422.499 204.244 422.118 204.033C421.737 203.823 421.43 203.499 421.241 203.107C421.051 202.715 420.988 202.274 421.06 201.845C421.132 201.415 421.335 201.019 421.642 200.71C421.949 200.401 422.344 200.195 422.773 200.12C423.248 199.986 423.756 200.044 424.188 200.283C424.62 200.521 424.941 200.921 425.08 201.394Z" fill="#DB614D"/>
<path d="M406.811 201.874C406.88 202.305 406.814 202.746 406.621 203.137C406.428 203.528 406.119 203.849 405.736 204.056C405.353 204.264 404.915 204.347 404.482 204.295C404.049 204.243 403.644 204.057 403.321 203.765C402.998 203.472 402.774 203.086 402.68 202.66C402.586 202.235 402.627 201.791 402.796 201.389C402.966 200.988 403.256 200.649 403.626 200.419C403.997 200.19 404.429 200.081 404.864 200.108C405.355 200.091 405.833 200.266 406.196 200.596C406.56 200.926 406.78 201.384 406.811 201.874Z" fill="#DB614D"/>
<path d="M421.162 192.055C421.103 192.067 421.043 192.066 420.984 192.051C420.926 192.037 420.872 192.009 420.826 191.971C419.751 191.301 418.467 191.053 417.22 191.273C417.106 191.292 416.989 191.266 416.893 191.201C416.797 191.136 416.729 191.038 416.703 190.925C416.693 190.867 416.694 190.808 416.706 190.751C416.719 190.694 416.743 190.64 416.776 190.592C416.81 190.544 416.852 190.503 416.902 190.471C416.951 190.44 417.006 190.418 417.064 190.408C418.544 190.137 420.072 190.447 421.33 191.273C421.421 191.345 421.481 191.449 421.497 191.563C421.512 191.677 421.483 191.793 421.415 191.886C421.354 191.972 421.264 192.032 421.162 192.055Z" fill="#FFB878"/>
<path d="M404.167 192.127C404.054 192.107 403.951 192.048 403.878 191.959C403.804 191.868 403.768 191.751 403.779 191.634C403.791 191.517 403.848 191.409 403.939 191.334C405.178 190.482 406.692 190.126 408.181 190.336C408.299 190.357 408.403 190.422 408.473 190.519C408.542 190.616 408.571 190.735 408.554 190.853C408.533 190.967 408.469 191.069 408.375 191.136C408.281 191.203 408.164 191.231 408.049 191.214C406.809 191.044 405.549 191.33 404.503 192.019C404.458 192.059 404.404 192.089 404.346 192.108C404.289 192.127 404.227 192.133 404.167 192.127Z" fill="#FFB878"/>
<path d="M420.249 197.067C420.249 198.173 419.756 199.074 419.143 199.074C418.53 199.074 418.025 198.173 418.025 197.067C418.025 195.961 418.53 195.072 419.143 195.072C419.756 195.072 420.249 195.973 420.249 197.067Z" fill="#1A4850"/>
<path d="M408.386 197.067C408.386 198.173 407.893 199.074 407.28 199.074C406.667 199.074 406.162 198.173 406.162 197.067C406.162 195.961 406.667 195.072 407.28 195.072C407.893 195.072 408.386 195.973 408.386 197.067Z" fill="#1A4850"/>
<path d="M402.088 182.632C409.537 184.935 417.36 185.779 425.129 185.12C425.129 185.12 428.013 188.726 427.665 201.454C427.665 201.454 435.609 178.533 412.412 178.533C389.215 178.533 399.672 200.949 399.672 200.949C399.672 200.949 397.833 186.923 402.088 182.632Z" fill="#FFB878"/>
<path d="M413.818 203.005L413.157 202.331L414.912 200.589C413.205 198.185 413.217 192.608 413.217 192.355H414.167C414.167 192.416 414.167 198.365 415.898 200.288L416.198 200.625L413.818 203.005Z" fill="#DB614D"/>
<path d="M407.929 205.949C407.929 205.949 416.667 206.309 421.078 205.144C421.198 205.991 421.131 206.855 420.881 207.674C420.631 208.493 420.204 209.247 419.631 209.883C419.058 210.519 418.353 211.021 417.564 211.355C416.776 211.689 415.924 211.846 415.068 211.814C407.929 212.115 407.929 205.949 407.929 205.949Z" fill="#1A4850"/>
<path d="M445.285 229.987C446.943 229.675 446.787 234.038 445.285 232.776C443.782 231.514 443.614 230.252 445.285 229.987Z" fill="#CFD8DC"/>
<path d="M425.165 251.093C424.912 252.764 420.838 251.177 422.532 250.18C424.227 249.182 425.477 249.41 425.165 251.093Z" fill="#CFD8DC"/>
<path d="M407.256 260.204C407.256 260.204 404.612 266.994 404.756 270.829C404.9 274.663 406.162 274.17 406.162 274.17C405.546 274.436 405.005 274.849 404.586 275.373C404.167 275.897 403.882 276.515 403.758 277.175C403.374 279.386 408.963 281.009 409.347 281.009C409.732 281.009 413.662 279.506 413.662 279.506L414.492 266.946L411.006 264.759L407.256 260.204Z" fill="#EF6E4B"/>
<path d="M409.371 259.326C411.718 260.756 413.953 262.363 416.054 264.134C417.929 265.973 416.859 280.143 416.054 280.817C415.249 281.49 409.107 282.86 407.929 282.091C406.751 281.321 408.386 277.151 408.386 277.151C408.386 277.151 411.475 276.478 411.03 277.643C410.766 278.345 410.766 279.118 411.03 279.819L412.232 279.314C411.891 277.495 411.891 275.628 412.232 273.809C412.857 271.478 407.893 269.002 407.292 264.735C406.691 260.468 409.371 259.326 409.371 259.326Z" fill="#FF8B66"/>
<path d="M359.371 252.415C357.833 245.745 364.443 243.389 373.65 244.519C384.323 245.841 406.246 248.629 411.018 260.144C411.018 260.144 412.568 264.699 408.542 266.887C397.292 273.076 362.292 264.939 359.371 252.415Z" fill="#CE364C"/>
<path d="M392.785 248.016C392.785 248.016 380.056 242.74 373.722 242.199C367.388 241.658 382.484 247.175 392.785 248.016Z" fill="#A02E44"/>
<path d="M488.157 133.449C487.125 135.139 486.271 136.931 485.609 138.798C484.936 142.403 484.552 144.35 483.302 146.009C482.052 147.668 482.713 150.54 482.713 150.54C482.713 150.54 477.905 153.04 473.77 149.951C473.77 149.951 474.203 147.091 473.77 146.273C472.929 144.639 470.237 143.773 469.311 140.492C468.452 137.996 467.211 135.649 465.633 133.533C465.633 133.533 466.415 131.814 467.857 132.86C469.299 133.906 470.261 136.55 471.018 136.814C471.174 136.866 471.335 136.902 471.499 136.923C471.778 136.97 472.064 136.958 472.338 136.885C472.612 136.813 472.867 136.682 473.085 136.502C473.119 136.485 473.148 136.46 473.169 136.43C474.491 134.891 474.804 130.42 474.744 128.365C474.672 125.564 474.744 121.694 476.487 122.355C478.229 123.016 476.631 124.579 477.953 130.769L478.59 130.841C478.71 131.285 479.888 127.091 480.165 123.16C480.369 120.444 482.148 121.454 482.568 122.307C482.989 123.16 482.364 125.913 482.244 127.812C482.148 129.11 482.04 130.456 481.979 131.261L482.725 131.67C485.417 126.971 484.504 125.023 486.078 124.927C487.653 124.831 487.076 128.798 486.234 130.312C485.773 131.386 485.442 132.512 485.249 133.665C488.013 130.468 487.653 128.858 488.975 129.002C490.297 129.146 489.179 132.355 488.157 133.449Z" fill="#FF8B66"/>
<path d="M476.222 140.805C475.297 138.233 471.955 137.055 471.547 136.923C471.826 136.971 472.112 136.958 472.386 136.885C472.66 136.813 472.915 136.682 473.133 136.502C474.023 136.823 474.794 137.406 475.346 138.174C475.897 138.942 476.203 139.859 476.222 140.805Z" fill="#EF6E4B"/>
<path d="M418.266 482.115C418.266 482.115 416.427 478.353 418.073 476.73C419.72 475.108 421.679 478.112 424.468 477.439C427.256 476.766 427.929 474.783 428.662 477.499C429.395 480.216 428.494 488.786 418.266 482.115Z" fill="#CFD8DC"/>
<path d="M428.843 481.946C428.843 481.946 421.294 484.627 417.376 481.946L418.374 485.216C418.374 485.216 426.583 486.093 427.713 484.014L428.843 481.946Z" fill="#ADBEC4"/>
<path d="M428.734 485.997C428.734 485.997 421.823 485.036 418.494 486.754V488.401C418.494 488.401 427.508 486.298 430.417 488.401L428.734 485.997Z" fill="#ADBEC4"/>
<path d="M418.157 491.754C418.672 490.717 419.463 489.842 420.442 489.225C421.422 488.608 422.553 488.273 423.71 488.256C426.227 488.117 428.716 488.852 430.754 490.336C430.754 490.336 424.083 487.583 418.157 491.754Z" fill="#ADBEC4"/>
<path d="M596.15 446.334C588.461 456.791 577.383 464.259 564.804 467.463C559.564 463.269 559.431 458.305 559.431 458.305C559.431 458.305 554.371 453.797 553.698 451.634C553.025 449.471 558.037 442.956 561.042 443.629C561.858 443.849 562.618 444.236 563.276 444.766C563.934 445.296 564.475 445.956 564.864 446.706C562.376 441.117 564.371 439.17 567.893 439.651C571.415 440.132 568.085 441.009 570.717 443.966C570.906 444.168 571.115 444.35 571.342 444.507C571.856 444.855 572.438 445.088 573.049 445.192C573.672 445.298 574.306 445.33 574.936 445.288C575.285 445.288 575.645 445.228 576.006 445.18C576.713 445.057 577.412 444.889 578.097 444.675C579.267 444.301 580.399 443.814 581.475 443.221C586.066 440.709 588.001 439.855 591.499 440.745C594.996 441.634 594.924 444.266 594.924 444.266L596.15 446.334Z" fill="#CFD8DC"/>
<path d="M596.15 446.334C588.461 456.792 577.383 464.259 564.804 467.463C574.023 463.497 582.496 458.305 588.29 451.911C594.083 445.516 596.15 446.334 596.15 446.334Z" fill="#ADBEC4"/>
<path d="M571.343 444.519C571.856 444.867 572.438 445.1 573.049 445.204C572.091 445.353 571.207 445.809 570.529 446.502C569.851 447.195 569.416 448.089 569.287 449.05L567.797 448.569C568.121 444.807 571.09 444.531 571.343 444.519Z" fill="#ADBEC4"/>
<path d="M573.71 449.422H572.148C571.884 448.698 571.829 447.914 571.988 447.16C572.148 446.406 572.515 445.711 573.049 445.155C573.672 445.262 574.306 445.294 574.936 445.251C574.393 445.784 573.995 446.447 573.781 447.177C573.566 447.907 573.542 448.68 573.71 449.422Z" fill="#ADBEC4"/>
<path d="M577.568 448.569L576.018 448.761C575.755 448.197 575.618 447.581 575.618 446.959C575.618 446.336 575.755 445.72 576.018 445.156C576.725 445.033 577.424 444.865 578.109 444.651C577.727 445.22 577.48 445.869 577.386 446.548C577.292 447.226 577.355 447.918 577.568 448.569Z" fill="#ADBEC4"/>
<path d="M428.975 284.074C428.975 284.074 432.412 302.559 425.477 309.927C418.542 317.295 423.133 311.249 425.201 301.742C427.268 292.235 425.693 282.175 428.975 284.074Z" fill="#CE364C"/>
<path d="M460.958 275.757C460.958 275.757 471.883 279.362 477.592 289.435C477.592 289.435 469.948 273.004 460.958 275.757Z" fill="#CE364C"/>
<path d="M177.244 138.365C179.192 138.734 181.097 139.302 182.929 140.059C186.018 141.97 187.737 143.004 189.804 143.184C191.871 143.365 192.701 146.886 192.701 146.886C192.701 146.886 200.778 148.653 201.234 143.557C201.234 143.557 196.715 137.163 196.427 136.345C195.778 134.627 196.944 132.054 195.129 129.134C193.863 126.813 192.959 124.312 192.448 121.718C192.448 121.718 190.645 121.165 190.453 122.92C190.261 124.675 191.583 127.151 191.258 127.908C191.193 128.06 191.112 128.205 191.018 128.34C190.871 128.583 190.672 128.79 190.435 128.946C190.198 129.102 189.929 129.203 189.648 129.242C189.609 129.255 189.567 129.255 189.528 129.242C187.496 129.242 183.951 126.393 182.496 124.999C180.477 123.064 177.532 120.54 176.871 122.247C176.21 123.953 178.41 123.845 182.1 128.965L181.739 129.494C181.98 129.879 178.133 127.944 174.984 125.504C172.845 123.833 172.388 125.816 172.761 126.706C173.133 127.595 175.477 129.026 177.016 130.227C178.037 131.033 179.107 131.85 179.744 132.343L179.552 133.172C174.263 131.97 173.434 130.023 172.34 131.129C171.246 132.235 174.54 134.47 176.222 134.855C177.328 135.24 178.384 135.752 179.371 136.381C175.153 136.285 174.119 134.939 173.362 136.009C172.605 137.078 175.79 138.34 177.244 138.365Z" fill="#FF8B66"/>
<path d="M190.705 134.459C189.419 132.055 190.79 128.774 190.97 128.377C190.823 128.619 190.623 128.826 190.386 128.982C190.149 129.138 189.881 129.239 189.6 129.278C189.242 130.153 189.156 131.115 189.353 132.039C189.55 132.963 190.022 133.806 190.705 134.459Z" fill="#EF6E4B"/>
<path d="M415.056 138.365C413.112 138.733 411.211 139.301 409.383 140.059C406.282 141.97 404.576 143.004 402.496 143.184C400.417 143.365 399.612 146.886 399.612 146.886C399.612 146.886 391.523 148.653 391.066 143.557C391.066 143.557 395.585 137.163 395.874 136.345C396.523 134.627 395.357 132.054 397.172 129.134C398.445 126.815 399.353 124.313 399.864 121.718C399.864 121.718 401.655 121.165 401.847 122.92C402.04 124.675 400.718 127.151 401.042 127.908C401.107 128.062 401.192 128.208 401.294 128.34C401.443 128.582 401.643 128.788 401.879 128.944C402.116 129.099 402.384 129.201 402.665 129.242C402.704 129.255 402.746 129.255 402.785 129.242C404.816 129.242 408.362 126.393 409.816 124.999C411.847 123.064 414.78 120.54 415.441 122.247C416.102 123.953 413.903 123.845 410.213 128.965L410.585 129.494C410.333 129.879 414.191 127.944 417.328 125.504C419.48 123.833 419.924 125.816 419.552 126.706C419.179 127.595 416.823 129.026 415.285 130.227C414.263 131.033 413.193 131.85 412.556 132.343L412.749 133.172C418.049 131.97 418.867 130.023 419.96 131.129C421.054 132.235 417.761 134.47 416.078 134.855C414.977 135.241 413.924 135.753 412.941 136.381C417.16 136.285 418.181 134.939 418.891 136.009C419.6 137.078 416.511 138.34 415.056 138.365Z" fill="#FF8B66"/>
<path d="M401.595 134.459C402.881 132.055 401.511 128.774 401.33 128.377C401.479 128.618 401.679 128.824 401.915 128.98C402.152 129.136 402.42 129.238 402.701 129.278C403.058 130.153 403.144 131.115 402.947 132.039C402.75 132.963 402.279 133.806 401.595 134.459Z" fill="#EF6E4B"/>
<path d="M344.023 383.365L328.494 287.211L297.4 290.684L266.306 287.211L250.79 383.365L243.326 476.61C243.326 476.61 245.73 484.338 261.21 479.014C261.21 479.014 272.713 392.475 274.431 390.624C276.15 388.773 294.492 332.223 294.492 332.223H300.201C300.201 332.223 318.47 388.713 320.249 390.624C322.028 392.535 333.542 479.014 333.542 479.014C349.047 484.35 351.427 476.61 351.427 476.61L344.023 383.365Z" fill="#0E3944"/>
<path d="M287.604 194.122C289.576 196.033 299.239 199.483 304.335 194.122L307.797 197.524C307.797 197.524 303.854 206.79 296.979 207.139C290.104 207.487 285.056 198.894 285.056 198.894L287.604 194.122Z" fill="#0C476B"/>
<path d="M314.972 193.076C326.535 188.1 363.903 174.855 363.903 174.855C363.903 174.855 389.023 143.389 394.143 138.725C394.143 138.725 399.708 139.723 401.354 146.646C401.354 146.646 385.177 181.273 376.391 191.189C367.605 201.105 323.073 222.547 323.073 222.547L314.972 193.076Z" fill="#0C476B"/>
<path d="M274.492 192.355C277.941 190.179 295.213 201.742 295.213 201.742C295.213 201.742 317.665 189.819 322.941 192.127C322.941 192.127 327.689 198.485 329.6 214.819C331.511 231.153 331.631 298.401 331.631 298.401C320.132 301.992 308.149 303.792 296.102 303.737C272.833 303.737 260.297 297.066 260.297 297.066C260.297 297.066 256.15 203.965 274.492 192.355Z" fill="#FFB878"/>
<path d="M288.518 190.612C288.518 190.612 291.006 198.437 288.518 201.43C288.518 201.43 291.102 206.85 295.729 207.091C301.102 207.367 302.941 201.43 302.941 201.43C302.941 201.43 300.104 193.87 302.941 191.213L288.518 190.612Z" fill="#EF6E4B"/>
<path d="M282.316 182.908C282.316 182.908 277.088 172.836 278.121 162.067C279.155 151.297 295.381 148.846 306.319 154.122C306.319 154.122 303.073 150.949 304.335 150.072C305.597 149.194 307.797 154.879 307.797 154.879C307.797 154.879 311.246 153.822 311.775 154.879C312.304 155.937 308.242 156.514 308.242 156.514C308.242 156.514 315.297 160.432 308.71 181.249L282.316 182.908Z" fill="#8B383E"/>
<path d="M281.535 176.538C281.535 176.538 277.629 172.644 277.148 177.187C276.595 182.463 281.391 184.591 282.316 182.908C283.242 181.225 281.535 176.538 281.535 176.538Z" fill="#FF8B66"/>
<path d="M308.891 176.802C308.891 176.802 312.785 172.908 313.266 177.463C313.83 182.74 309.035 184.867 308.097 183.185C307.16 181.502 308.891 176.802 308.891 176.802Z" fill="#FF8B66"/>
<path d="M294.792 195.636C286.126 195.636 281.234 189.987 281.234 173.016C281.234 164.266 285.694 158.894 295.393 158.894C305.093 158.894 309.179 164.266 309.179 173.016C309.179 191.249 303.734 195.636 294.792 195.636Z" fill="#FF8B66"/>
<path d="M306.306 179.074C306.279 179.536 306.096 179.976 305.788 180.322C305.479 180.667 305.063 180.898 304.607 180.978C304.15 181.057 303.68 180.98 303.273 180.759C302.866 180.537 302.546 180.185 302.364 179.759C302.341 179.281 302.505 178.813 302.821 178.453C303.138 178.094 303.582 177.873 304.059 177.836C304.521 177.705 305.016 177.762 305.437 177.994C305.857 178.225 306.17 178.613 306.306 179.074Z" fill="#DB614D"/>
<path d="M288.458 179.507C288.522 179.925 288.454 180.352 288.265 180.73C288.075 181.109 287.773 181.419 287.4 181.618C287.026 181.817 286.601 181.895 286.181 181.842C285.761 181.789 285.369 181.606 285.057 181.321C284.745 181.035 284.53 180.659 284.441 180.246C284.352 179.832 284.393 179.401 284.559 179.012C284.725 178.623 285.008 178.295 285.368 178.074C285.729 177.852 286.149 177.748 286.571 177.776C287.05 177.759 287.515 177.932 287.868 178.255C288.221 178.579 288.433 179.028 288.458 179.507Z" fill="#DB614D"/>
<path d="M302.352 170.264C302.294 170.264 302.236 170.252 302.182 170.23C302.129 170.207 302.08 170.173 302.04 170.132C301.114 169.33 299.923 168.901 298.698 168.93C298.584 168.93 298.475 168.886 298.392 168.808C298.309 168.73 298.26 168.623 298.254 168.509C298.252 168.452 298.262 168.396 298.282 168.342C298.302 168.289 298.333 168.241 298.372 168.199C298.411 168.158 298.458 168.125 298.51 168.102C298.561 168.079 298.617 168.066 298.674 168.064C300.142 168.028 301.569 168.553 302.665 169.531C302.743 169.613 302.787 169.723 302.787 169.837C302.787 169.951 302.743 170.061 302.665 170.144C302.624 170.184 302.575 170.215 302.521 170.236C302.467 170.257 302.41 170.266 302.352 170.264Z" fill="#8B383E"/>
<path d="M286.054 170.264C285.998 170.265 285.943 170.254 285.892 170.234C285.84 170.213 285.793 170.182 285.753 170.144C285.713 170.103 285.681 170.056 285.659 170.003C285.637 169.95 285.626 169.894 285.626 169.837C285.626 169.78 285.637 169.724 285.659 169.671C285.681 169.619 285.713 169.571 285.753 169.531C286.849 168.553 288.276 168.028 289.744 168.064C289.8 168.066 289.856 168.079 289.907 168.102C289.958 168.125 290.004 168.159 290.042 168.2C290.08 168.242 290.11 168.29 290.129 168.343C290.148 168.396 290.156 168.453 290.153 168.509C290.146 168.623 290.097 168.73 290.014 168.808C289.931 168.886 289.822 168.93 289.708 168.93C288.487 168.904 287.301 169.332 286.378 170.132C286.337 170.175 286.286 170.209 286.23 170.232C286.174 170.255 286.114 170.266 286.054 170.264Z" fill="#8B383E"/>
<path d="M301.595 174.855C301.595 175.937 301.114 176.802 300.513 176.802C299.912 176.802 299.431 175.937 299.431 174.855C299.431 173.774 299.924 172.908 300.513 172.908C301.102 172.908 301.595 173.786 301.595 174.855Z" fill="#1A4850"/>
<path d="M290.032 174.855C290.032 175.937 289.552 176.802 288.951 176.802C288.35 176.802 287.869 175.937 287.869 174.855C287.869 173.774 288.362 172.908 288.951 172.908C289.54 172.908 290.032 173.786 290.032 174.855Z" fill="#1A4850"/>
<path d="M290.032 186.37C290.032 186.37 297.677 187.355 301.595 185.468C301.595 185.468 299.383 190.661 295.213 190.192C294.073 190.12 292.978 189.722 292.06 189.044C291.141 188.366 290.437 187.437 290.032 186.37Z" fill="#1A4850"/>
<path d="M308.278 178.726C308.278 178.726 308.001 169.315 304.335 162.067C304.335 162.067 297.869 165.06 296.451 164.351C295.032 163.641 297.809 162.067 297.809 162.067C297.809 162.067 287.136 165.589 286.499 164.879C285.862 164.17 290.032 162.067 290.032 162.067L283.386 164.351C283.386 164.351 281.342 172.824 282.184 178.774C282.184 178.774 279.323 173.846 278.975 170.444C278.626 167.043 280.116 157.343 290.116 156.646C300.116 155.949 305.741 158.209 308.229 162.8C310.717 167.391 310.417 173.004 308.278 178.726Z" fill="#8B383E"/>
<path d="M296.294 183.642C295.636 183.628 294.982 183.531 294.347 183.353L294.588 182.476C295.501 182.716 296.919 182.872 297.232 182.476C297.34 182.356 297.232 182.055 297.112 181.67C295.91 179.002 295.597 172.271 295.585 171.983H296.511C296.511 172.055 296.775 178.822 297.941 181.31C298.124 181.575 298.222 181.889 298.222 182.211C298.222 182.533 298.124 182.848 297.941 183.113C297.72 183.313 297.459 183.464 297.175 183.555C296.891 183.647 296.591 183.676 296.294 183.642Z" fill="#DB614D"/>
<path d="M305.874 196.598C305.874 196.598 321.499 245.252 323.049 284.843C323.049 284.843 328.698 286.394 335.068 277.728C341.439 269.062 337.653 200.348 325.453 188.906C325.453 188.906 319.912 187.644 305.874 196.598Z" fill="#105E99"/>
<path d="M308.434 205.108C308.434 205.108 311.234 198.593 309.996 194.122C308.758 189.651 304.335 194.122 304.335 194.122C304.335 194.122 306.114 201.442 308.434 205.108Z" fill="#0C476B"/>
<path d="M276.979 193.076C265.405 188.1 228.049 174.855 228.049 174.855C228.049 174.855 202.809 142.475 197.737 137.8C195.83 138.982 194.226 140.593 193.051 142.504C191.877 144.416 191.164 146.574 190.97 148.809C190.97 148.809 206.787 181.261 215.585 191.189C224.383 201.117 268.903 222.547 268.903 222.547L276.979 193.076Z" fill="#0C476B"/>
<path d="M286.054 196.598C286.054 196.598 270.429 245.252 268.891 284.843C268.891 284.843 263.23 286.394 256.871 277.728C250.513 269.062 254.299 200.348 266.487 188.906C266.499 188.906 272.04 187.644 286.054 196.598Z" fill="#105E99"/>
<path d="M283.518 205.108C283.518 205.108 280.706 198.593 281.956 194.122C283.206 189.651 287.605 194.122 287.605 194.122C287.605 194.122 285.826 201.442 283.518 205.108Z" fill="#0C476B"/>
<path d="M365.309 501.694H334.191C332.016 489.314 335.477 476.935 335.477 476.935L349.708 474.531C351.006 482.343 352.569 485.432 354.72 487.019C356.294 488.221 358.169 488.545 360.513 489.35C361.602 489.68 362.602 490.254 363.435 491.029C364.268 491.804 364.913 492.759 365.321 493.822C366.116 496.386 366.112 499.132 365.309 501.694Z" fill="#662C33"/>
<path d="M365.381 493.785C357.713 494.747 340.862 496.393 341.883 491.946C342.737 488.232 349.852 487.235 354.756 486.982C356.33 488.184 358.205 488.509 360.549 489.314C361.643 489.64 362.647 490.213 363.485 490.988C364.322 491.763 364.971 492.72 365.381 493.785Z" fill="#8B383E"/>
<path d="M261.09 501.694H229.972C229.367 499.752 229.183 497.703 229.431 495.684C229.595 494.219 230.184 492.834 231.126 491.7C232.068 490.566 233.322 489.732 234.732 489.302C237.424 488.377 239.54 488.028 241.186 486.442C242.833 484.855 244.407 481.502 245.573 474.482L259.792 476.886C259.792 476.886 263.217 489.314 261.09 501.694Z" fill="#662C33"/>
<path d="M229.431 495.696C229.595 494.231 230.184 492.846 231.126 491.712C232.068 490.578 233.322 489.744 234.732 489.314C237.424 488.389 239.54 488.04 241.186 486.454C245.129 487.656 250.633 489.891 252.352 493.268C254.72 497.896 236.535 497.163 229.431 495.696Z" fill="#8B383E"/>
<path d="M484.504 499.459C484.507 500.206 484.463 500.953 484.371 501.694H446.559C446.559 500.937 446.559 500.192 446.559 499.459C446.913 493.169 448.127 486.958 450.165 480.997L459.612 476.935C460.078 480.868 462.067 484.462 465.153 486.947C465.828 487.475 466.552 487.938 467.316 488.329C467.665 488.521 468.001 488.689 468.362 488.846C469.142 489.2 469.945 489.501 470.766 489.747C473.745 490.508 476.779 491.039 479.84 491.334C483.891 492.007 484.504 496.622 484.504 499.459Z" fill="#164353"/>
<path d="M484.504 499.458C484.507 500.206 484.463 500.952 484.371 501.694H446.559C446.559 500.937 446.559 500.192 446.559 499.458H484.504Z" fill="#225866"/>
<path d="M467.316 488.328L462.064 490.011L460.958 488.088L465.153 486.946C465.828 487.475 466.552 487.938 467.316 488.328Z" fill="#225866"/>
<path d="M470.778 489.747L467.244 492.091L465.068 491.237L468.362 488.833C469.145 489.192 469.953 489.498 470.778 489.747Z" fill="#225866"/>
<path d="M340.056 499.458C340.002 500.217 339.861 500.967 339.636 501.694H314.455C314.14 500.976 313.902 500.227 313.746 499.458C311.258 487.439 328.001 472.667 328.001 472.667L333.302 479.747C333.302 479.747 332.689 491.093 337.196 493.461C338.238 494.038 339.073 494.927 339.586 496.002C340.099 497.077 340.263 498.285 340.056 499.458Z" fill="#164353"/>
<path d="M313.698 499.458H340.008C339.954 500.217 339.813 500.967 339.588 501.694H314.455C314.123 500.978 313.869 500.229 313.698 499.458Z" fill="#225866"/>
<path d="M336.042 492.547C336.042 492.547 325.429 490.144 320.597 493.269V491.514C320.597 491.514 329.516 487.199 336.042 492.547Z" fill="#225866"/>
<path d="M333.939 489.855C333.939 489.855 327.16 486.766 320.597 489.855L321.342 488.089C321.342 488.089 329.191 485.132 333.939 489.855Z" fill="#225866"/>
<path d="M473.085 392.331C473.085 402.464 464.107 485.036 464.107 485.036C458.692 485.571 453.226 485.263 447.905 484.122C445.441 442.283 445.201 406.286 445.201 406.286L402.1 373.978L401.992 373.906C401.992 373.906 401.835 374.639 401.535 375.949C399.407 385.42 390.369 425.108 386.607 434.194C382.316 444.543 335.489 488.089 335.489 488.089C326.787 486.887 319.407 480.589 319.407 480.589C336.234 452.704 359.143 424.735 359.143 424.735C360.934 414.687 362.208 392.283 362.977 375.625V374.855C363.482 363.533 363.734 355 363.734 355L355.838 338.798L406.03 320.348L417.28 334.771C417.28 334.771 419.852 337.175 423.903 340.985L424.468 341.502C439.564 355.685 473.085 387.8 473.085 392.331Z" fill="#8BBDDB"/>
<path d="M362.977 375.624V374.855C373.542 369.11 371.775 359.963 371.739 359.867L372.4 359.735C372.46 359.795 374.359 369.663 362.977 375.624Z" fill="#6097B2"/>
<path d="M401.318 367.512C401.704 369.65 401.965 371.809 402.1 373.978L401.991 373.906C401.991 373.906 401.835 374.639 401.535 375.949C401.066 360.252 394.6 350.973 394.516 350.865L395.068 350.48C398.134 355.462 400.211 360.987 401.186 366.754C408.818 359.975 401.354 346.081 401.27 345.949L401.859 345.625C401.943 345.769 409.852 360.48 401.318 367.512Z" fill="#6097B2"/>
<path d="M424.504 341.478C424.168 341.597 423.814 341.654 423.458 341.646C419.756 341.646 413.554 336.478 413.266 336.225L413.698 335.708C415.718 337.427 421.331 341.514 423.987 340.937L424.504 341.478Z" fill="#6097B2"/>
<path d="M359.371 252.415C359.371 252.415 374.636 250.012 382.292 254.819C389.948 259.627 399.984 272.427 399.984 272.427C399.984 272.427 388.061 274.002 386.763 282.103C386.727 282.115 378.061 261.478 359.371 252.415Z" fill="#ADBEC4"/>
<path d="M336.415 260.372C329.96 263.87 319.167 276.971 318.674 285.036C318.205 292.896 324.023 300.132 327.953 306.274C340.201 325.504 353.109 342.403 358.59 364.903C358.59 365.048 386.607 376.153 419.455 336.67C419.455 336.67 400.898 311.694 394.48 290.432C391.871 281.778 389.215 272.584 384.203 264.963C381.572 260.835 377.878 257.491 373.509 255.283C369.139 253.075 364.256 252.084 359.371 252.415C351.066 253.088 342.785 256.935 336.415 260.372Z" fill="#CFD8DC"/>
<path d="M333.71 252.331C333.71 252.331 337.845 259.387 335.934 263.269C335.934 263.269 350.104 268.161 350.104 260.228C350.104 260.228 347.436 254.29 348.446 250.444L333.71 252.331Z" fill="#EF6E4B"/>
<path d="M365.201 300.66C365.201 300.66 357.316 302.896 355.333 305.684C353.35 308.473 351.571 314.735 351.571 314.735H365.201L367.773 310.023L370.766 303.737L365.201 300.66Z" fill="#EF6E4B"/>
<path d="M352.16 244.41C352.16 244.41 357.701 242.091 354.119 225.444C351.715 214.41 348.326 212.764 346.114 212.668C346.114 212.668 343.41 208.593 334.095 210.552C330.855 211.111 327.839 212.576 325.397 214.777C322.955 216.979 321.187 219.827 320.297 222.992C317.893 230.516 322.701 246.658 328.842 248.233L352.16 244.41Z" fill="#164353"/>
<path d="M353.482 233.209C353.482 233.209 356.967 228.401 358.29 233.136C359.816 238.689 355.068 241.802 353.77 240.168C352.472 238.533 353.482 233.209 353.482 233.209Z" fill="#FF8B66"/>
<path d="M324.299 238.329C324.299 238.329 319.492 234.843 319.72 239.807C320.056 245.54 325.561 247.019 326.258 245.011C326.956 243.004 324.299 238.329 324.299 238.329Z" fill="#FF8B66"/>
<path d="M342.677 255.985C351.943 254.459 356.174 247.572 353.169 229.399C351.631 220.036 345.958 215.084 335.549 216.791C325.141 218.497 321.739 224.964 323.29 234.327C326.511 253.834 333.109 257.632 342.677 255.985Z" fill="#FF8B66"/>
<path d="M327.424 240.3C327.32 240.748 327.357 241.218 327.531 241.645C327.705 242.071 328.007 242.433 328.396 242.68C328.784 242.927 329.24 243.048 329.7 243.025C330.16 243.002 330.601 242.837 330.964 242.553C331.326 242.268 331.59 241.878 331.721 241.437C331.852 240.995 331.843 240.524 331.695 240.088C331.546 239.652 331.266 239.273 330.893 239.003C330.52 238.733 330.072 238.585 329.612 238.581C329.095 238.526 328.578 238.675 328.169 238.996C327.761 239.317 327.493 239.785 327.424 240.3Z" fill="#DB614D"/>
<path d="M346.559 237.656C346.561 238.117 346.706 238.566 346.975 238.941C347.243 239.316 347.622 239.598 348.057 239.748C348.493 239.898 348.965 239.909 349.408 239.78C349.85 239.65 350.241 239.386 350.527 239.024C350.813 238.663 350.979 238.221 351.003 237.76C351.027 237.3 350.907 236.844 350.66 236.454C350.413 236.065 350.051 235.762 349.624 235.588C349.197 235.413 348.727 235.376 348.278 235.48C347.765 235.55 347.299 235.815 346.979 236.221C346.658 236.627 346.507 237.141 346.559 237.656Z" fill="#DB614D"/>
<path d="M330.032 230.18C329.939 230.18 329.848 230.155 329.768 230.108C329.666 230.035 329.596 229.925 329.573 229.802C329.551 229.678 329.577 229.551 329.648 229.447C330.643 228.206 332.075 227.393 333.65 227.175C333.711 227.165 333.773 227.167 333.834 227.182C333.894 227.197 333.95 227.223 333.999 227.26C334.049 227.297 334.09 227.344 334.121 227.398C334.152 227.451 334.172 227.51 334.179 227.572C334.187 227.633 334.183 227.696 334.167 227.756C334.151 227.816 334.123 227.873 334.085 227.922C334.047 227.971 334 228.012 333.946 228.043C333.892 228.074 333.832 228.093 333.77 228.101C332.46 228.292 331.266 228.96 330.417 229.976C330.374 230.038 330.317 230.09 330.25 230.125C330.183 230.161 330.108 230.18 330.032 230.18Z" fill="#1A4850"/>
<path d="M347.472 227.307C347.372 227.304 347.276 227.271 347.196 227.211C346.067 226.519 344.723 226.271 343.422 226.514C343.361 226.526 343.298 226.526 343.238 226.514C343.177 226.502 343.119 226.477 343.068 226.443C343.016 226.408 342.972 226.364 342.938 226.312C342.904 226.26 342.88 226.202 342.869 226.141C342.855 226.081 342.853 226.019 342.864 225.958C342.875 225.897 342.897 225.839 342.931 225.788C342.965 225.736 343.009 225.692 343.06 225.657C343.111 225.623 343.169 225.599 343.23 225.588C344.797 225.297 346.416 225.61 347.761 226.466C347.81 226.502 347.851 226.548 347.881 226.601C347.912 226.653 347.932 226.712 347.94 226.772C347.948 226.833 347.943 226.894 347.927 226.953C347.911 227.012 347.883 227.067 347.845 227.115C347.804 227.176 347.749 227.225 347.683 227.259C347.618 227.293 347.546 227.309 347.472 227.307Z" fill="#1A4850"/>
<path d="M331.727 234.964C331.92 236.166 332.593 236.959 333.23 236.851C333.867 236.742 334.239 235.733 334.047 234.579C333.855 233.425 333.182 232.584 332.545 232.692C331.907 232.8 331.535 233.81 331.727 234.964Z" fill="#1A4850"/>
<path d="M344.095 232.92C344.275 234.122 344.948 234.915 345.597 234.807C346.246 234.699 346.595 233.689 346.403 232.536C346.21 231.382 345.549 230.54 344.9 230.649C344.251 230.757 343.903 231.766 344.095 232.92Z" fill="#1A4850"/>
<path d="M347.568 243.365C347.568 243.365 339.528 245.516 335.068 244.663C335.068 244.663 338.145 248.545 342.544 247.427C346.943 246.309 347.568 243.365 347.568 243.365Z" fill="#1A4850"/>
<path d="M347.941 220.973C347.941 220.973 337.484 228.545 324.359 229.122L324.732 240.804C324.732 240.804 312.496 218.268 336.691 214.278C360.886 210.288 353.843 235.456 353.843 235.456C353.843 235.456 353.097 224.603 347.941 220.973Z" fill="#0E3944"/>
<path d="M339.395 240.228L339.323 239.218C339.323 239.218 340.73 239.11 341.102 238.244C341.246 237.884 340.657 236.754 340.129 235.756C339.217 234.179 338.537 232.479 338.109 230.708L339.095 230.516C339.506 232.203 340.158 233.822 341.03 235.324C341.799 236.802 342.364 237.872 342.028 238.677C341.754 239.135 341.369 239.518 340.91 239.789C340.45 240.06 339.929 240.21 339.395 240.228Z" fill="#DB614D"/>
<path d="M353.614 220.997C336.03 213.365 319.431 229.194 319.431 229.194C319.431 229.194 317.496 216.37 320.886 213.365C321.762 212.589 322.703 211.889 323.698 211.273C331.463 206.382 341.799 206.466 346.535 208.148C347.326 208.392 348.055 208.802 348.674 209.35C351.487 212.259 353.614 220.997 353.614 220.997Z" fill="#CE364C"/>
<path d="M351.487 218.148C341.536 216.696 331.396 218.894 322.941 224.338C322.941 224.338 322.064 216.069 323.698 211.273C331.463 206.382 341.799 206.466 346.535 208.148C349.299 211.298 351.487 218.148 351.487 218.148Z" fill="#CFD8DC"/>
<path d="M320.91 227.692C320.91 227.692 323.254 217.74 326.403 214.939C331.655 210.276 346.403 208.677 354.155 211.478C361.907 214.278 354.155 222.752 354.155 222.752C354.155 222.752 341.775 213.906 320.91 227.692Z" fill="#A02E44"/>
<path d="M343.746 293.773C347.99 299.894 353.567 304.974 360.056 308.629C360.056 308.629 372.917 297.463 389.6 298.473C389.6 298.473 375.778 323.413 363.903 326.117C357.677 327.572 335.056 312.644 335.056 312.644C335.056 312.644 339.576 296.814 343.746 293.773Z" fill="#FF8B66"/>
<path d="M321.463 276.862C326.992 267.872 339.732 281.165 344.071 290.66C348.41 300.156 351.571 302.163 351.571 302.163C351.571 302.163 338.842 307.487 338.927 317.031C338.939 316.995 309.407 296.454 321.463 276.862Z" fill="#ADBEC4"/>
<path d="M360.008 304.507C360.008 304.507 367.773 296.899 393.278 286.971L389.984 276.61C392.905 272.752 398.29 272.752 398.29 272.752C398.29 272.752 411.354 291.213 409.107 296.718C407.701 300.18 380.441 303.786 360.008 304.507Z" fill="#EF6E4B"/>
<path d="M387.941 289.47C388.178 288.597 388.587 287.78 389.143 287.067C390.08 285.732 389.828 283.317 390.165 282.559C390.501 281.802 392.508 278.749 393.842 278.148C395.177 277.547 396.919 276.574 397.292 278.268C397.665 279.963 394.888 279.47 393.686 281.874C395.259 281.381 396.924 281.253 398.554 281.502C400.693 282.018 401.306 283.978 398.65 283.905C396.962 284.04 395.322 284.536 393.842 285.36C393.842 285.36 396.607 285.768 396.162 287.042C395.429 288.881 392.064 287.752 387.941 289.47Z" fill="#FF8B66"/>
<path d="M199.299 324.206C201.583 330.048 210.922 340.06 210.922 340.06C210.922 340.06 233.758 326.382 244.263 332.127C254.768 337.872 263.157 341.394 269.984 338.894C276.811 336.394 247.593 283.149 247.593 283.149L209.636 268.726C209.636 268.726 208.806 278.341 204.468 280.024C200.129 281.706 195.513 297.584 195.826 300.577C196.138 303.569 199.299 324.206 199.299 324.206Z" fill="#3E6575"/>
<path d="M242.004 340.408C242.004 340.408 232.22 359.639 211.955 384.158C211.955 384.158 209.888 413.377 156.463 459.35L150.862 454.939C150.862 454.939 182.689 405.096 189.095 389.843C195.501 374.591 185.585 360.552 214.864 321.898L242.004 340.408Z" fill="#EF6E4B"/>
<path d="M210.85 306.454C202.436 322.595 199.6 343.22 199.6 343.22L195.766 352.908C205.006 357.632 214.879 361 225.081 362.908L231.391 346.225L210.85 306.454Z" fill="#662C33"/>
<path d="M254.804 338.894C254.804 338.894 258.975 360.023 258.29 391.778C258.29 391.778 274.732 416.021 261.162 485.192H254.047C254.047 485.192 248.23 426.297 243.782 410.396C239.335 394.495 222.905 389.555 222.016 341.069L254.804 338.894Z" fill="#FF8B66"/>
<path d="M258.963 361.574C258.963 361.574 245.585 363.978 222.003 362.872L221.631 360.216L221.535 359.531L219.131 342.343C217.367 340.038 215.826 337.571 214.528 334.975C214.239 334.447 213.975 333.894 213.71 333.317C210.537 326.562 207.701 316.718 210.886 306.466L215.862 306.682H216.547L233.205 307.439H233.915L239.383 307.692H240.237L243.842 307.848C243.842 307.848 261.871 324.086 258.662 354.11L258.89 358.293V358.966L258.963 361.574Z" fill="#8B383E"/>
<path d="M216.511 306.73C216.054 308.101 212.905 318.293 214.492 334.976C214.203 334.447 213.939 333.894 213.674 333.317C212.472 318.064 215.225 308.557 215.826 306.682C215.898 306.466 215.946 306.358 215.946 306.346L216.571 306.562C216.556 306.62 216.536 306.676 216.511 306.73Z" fill="#662C33"/>
<path d="M258.831 359.098C254.095 360.3 246.066 360.649 238.398 360.649C231.547 360.649 225.044 360.372 221.571 360.216L221.475 359.531C227.484 359.819 243.242 360.444 253.41 359.326L252.749 348.593C252.765 337.954 250.27 327.461 245.465 317.968C236.21 316.286 233.662 309.423 233.109 307.487C233.025 307.175 232.989 306.995 232.989 306.983L233.65 306.875C233.694 307.094 233.75 307.311 233.818 307.524C234.622 310.017 236.099 312.241 238.086 313.948C240.074 315.655 242.494 316.78 245.08 317.199C243.416 313.901 241.479 310.749 239.287 307.776C238.999 307.379 238.806 307.151 238.794 307.139L239.299 306.718C239.299 306.718 239.636 307.115 240.141 307.824C243.242 312.031 253.686 327.836 253.422 348.557L254.071 359.254C255.646 359.083 257.208 358.806 258.746 358.425L258.831 359.098Z" fill="#662C33"/>
<path d="M224.756 234.062C219.455 231.129 181.174 246.141 181.174 246.141C181.174 246.141 175.513 256.237 179.047 260.204C182.58 264.17 195.092 262.415 198.939 260.204C202.785 257.992 212.929 256.31 212.929 256.31L224.756 234.062Z" fill="#8BBDDB"/>
<path d="M258.578 202.199C261.132 203.353 263.415 205.031 265.279 207.124C267.142 209.218 268.545 211.68 269.395 214.35C272.28 223.461 263.638 246.526 266.631 257.127C269.624 267.728 269.155 287.74 259.816 291.982C250.477 296.225 231.354 288.653 227.244 277.091C223.133 265.528 224.9 221.706 232.809 206.802C240.717 191.898 256.679 199.386 258.578 202.199Z" fill="#F24052"/>
<path d="M249.492 241.49C251.583 243.737 256.944 239.735 256.944 239.735C256.944 239.735 256.835 259.615 251.054 261.129C245.273 262.643 230.621 245.504 231.162 240.805C231.703 236.105 244.876 236.502 249.492 241.49Z" fill="#8BBDDB"/>
<path d="M227.232 236.526C231.977 240.101 237.444 242.599 243.254 243.846C253.434 246.249 258.951 241.442 264.155 247.98C271.967 257.836 259.251 275.997 252.568 285.408C250.068 288.918 244.816 298.629 243.746 307.98C243.746 307.98 226.09 313.112 210.85 306.454L209.72 284.819C209.72 284.819 200.117 255.576 227.232 236.526Z" fill="#0E3944"/>
<path d="M245.489 257.631C245.489 257.631 253.566 238.401 255.898 237.199C258.23 235.997 264.167 238.918 265.357 241.55C266.547 244.182 265.357 249.963 265.357 249.963C265.357 249.963 258.987 242.595 245.489 257.631Z" fill="#8BBDDB"/>
<path d="M284.143 338.882C280.537 346.406 271.475 348.497 271.475 348.497C271.475 348.497 270.79 347.463 269.636 345.588C269.516 345.408 269.383 345.192 269.263 344.975C262.184 333.485 240.525 296.73 240.946 277.608C241.035 270.98 242.443 264.436 245.089 258.359C247.734 252.282 251.564 246.792 256.355 242.211C263.915 244.014 266.306 246.081 266.306 246.081C267.847 255.561 267.92 265.221 266.523 274.723C264.179 290.348 259.936 294.483 262.076 295.66C264.215 296.838 262.076 299.158 262.076 299.158C262.076 299.158 274.636 316.646 276.98 322.091L282.701 335.432C282.809 335.709 282.917 335.973 283.025 336.213C283.71 337.86 284.143 338.882 284.143 338.882Z" fill="#6097B2"/>
<path d="M262.34 246.141C262.34 246.141 253.35 252.8 258.578 262.968L283.506 288.761C269.828 303.341 268.47 309.326 258.578 316.045L262.34 321.85C262.34 321.85 296.968 295.24 297.016 288.761C297.04 286.009 275.862 252.475 262.34 246.141Z" fill="#FF8B66"/>
<path d="M258.037 316.069C255.437 316.359 252.853 316.784 250.297 317.343C247.304 318.088 243.314 318.834 243.193 319.459C243.073 320.084 249.792 319.459 249.792 319.459C249.792 319.459 244.311 321.718 244.191 322.584C244.071 323.449 251.162 321.959 251.162 321.959C251.162 321.959 246.679 324.699 246.931 325.444C247.184 326.189 252.701 324.326 252.701 324.326C252.17 325.696 251.468 326.993 250.609 328.185C250.609 328.185 251.679 328.774 253.855 326.358C256.03 323.942 259.492 324.723 262.268 322.584C265.044 320.444 260.537 315.745 258.037 316.069Z" fill="#FF8B66"/>
<path d="M232.568 239.723C232.568 239.723 225.73 244.146 221.415 254.819C217.1 265.492 203.458 285.576 200.273 290.768C197.088 295.961 199.299 324.206 199.299 324.206C199.299 324.206 195.297 307.079 193.518 300.408C191.739 293.737 199.263 277.247 200.393 276.369C201.523 275.492 207.304 277.091 206.198 270.36C205.093 263.629 220.621 234.819 224.732 234.014C224.756 234.062 231.367 235.3 232.568 239.723Z" fill="#6097B2"/>
<path d="M211.415 241.165C211.294 241.399 211.158 241.624 211.006 241.838C209.769 243.418 208.268 244.772 206.571 245.841C206.571 245.841 201.354 253.148 201.306 253.99C201.258 254.831 192.244 261.201 188.241 261.117C187.759 261.137 187.287 260.974 186.919 260.66C184.516 258.425 195.008 239.603 197.316 235.552C197.46 235.276 197.58 235.084 197.665 234.951L197.749 234.771C197.749 234.771 195.91 227.92 203.602 229.194C209.984 230.252 211.258 235.336 211.919 238.737C212.043 239.581 211.865 240.441 211.415 241.165Z" fill="#6097B2"/>
<path d="M184.576 248.281C189.864 241.333 208.446 227.848 218.23 223.894L220.633 228.437C220.633 228.437 201.727 245.059 197.28 252.175C192.833 259.29 187.34 262.223 182.076 259.855C176.811 257.487 183.47 249.735 184.576 248.281Z" fill="#FF8B66"/>
<path d="M209.576 239.735L208.578 240.937L208.073 241.526L206.415 243.413C206.415 243.413 202.256 248.461 202.412 250.492C202.532 251.946 194.516 258.449 188.242 261.165C185.693 262.271 183.434 262.752 182.1 261.994C177.568 259.374 178.578 251.514 181.15 246.189C183.398 241.55 193.314 235.552 195.862 234.086L196.451 233.737L197.4 230.059C197.4 230.059 200.85 227.98 203.578 229.254C203.578 229.254 197.568 229.506 198.554 231.85C199.54 234.194 207.929 239.663 209.576 239.735Z" fill="#8BBDDB"/>
<path d="M231.379 220.48C225.369 222.968 226.21 228.437 220.669 228.437C217.232 228.437 216.787 224.507 216.787 224.507C218.263 220.733 219.186 216.766 219.528 212.728C219.756 210.011 220.669 211.057 220.669 211.057C220.669 210.805 220.669 210.564 220.669 210.324C220.585 208.497 220.249 207.163 221.451 207.92C222.653 208.677 223.278 213.93 223.278 213.93C224.395 206.37 222.737 205.252 224.035 205.925C225.826 206.826 225.838 213.497 225.838 213.701C227.28 209.314 226.895 206.802 227.893 207.8C228.891 208.797 227.388 216.874 226.787 219.819C226.655 220.48 226.559 220.889 226.559 220.889C231.331 218.653 231.379 220.48 231.379 220.48Z" fill="#FF8B66"/>
<path d="M226.763 219.927C226.631 220.589 226.535 220.997 226.535 220.997C225.764 220.996 225.005 221.196 224.335 221.578C223.665 221.959 223.106 222.509 222.713 223.173C222.878 222.232 223.381 221.384 224.126 220.786C224.871 220.189 225.809 219.884 226.763 219.927Z" fill="#EF6E4B"/>
<path d="M221.006 216.478C221.006 215.841 221.306 212.163 220.669 211.057C220.669 210.805 220.669 210.564 220.669 210.324C222.028 210.624 221.15 215.708 221.006 216.478Z" fill="#EF6E4B"/>
<path d="M224.756 248.317C224.756 248.317 228.83 237.247 230.141 234.771C231.451 232.295 238.205 232.728 243.362 233.677C248.518 234.627 249.528 241.49 249.528 241.49C249.528 241.49 233.915 234.134 224.756 248.317Z" fill="#8BBDDB"/>
<path d="M251.054 226.526C248.056 232.44 246.413 238.948 246.246 245.576C246.246 245.576 238.302 250.985 235.429 244.218C237.375 237.456 237.906 230.365 236.992 223.389C236.03 215.372 251.054 226.526 251.054 226.526Z" fill="#EF6E4B"/>
<path d="M235.441 213.99C235.441 213.99 233.987 208.81 231.403 212.439C228.41 216.658 231.463 220.769 233.061 219.783C234.66 218.798 235.441 213.99 235.441 213.99Z" fill="#FF8B66"/>
<path d="M258.554 227.307C258.554 227.307 263.734 225.865 261.967 229.963C259.912 234.771 254.756 234.23 254.828 232.367C254.9 230.504 258.554 227.307 258.554 227.307Z" fill="#FF8B66"/>
<path d="M237.569 236.574C230.201 232.427 228.758 225.276 236.883 210.853C241.066 203.413 247.424 200.985 255.669 205.624C263.915 210.264 264.828 216.79 260.633 224.23C251.907 239.735 245.189 240.865 237.569 236.574Z" fill="#FF8B66"/>
<path d="M255.297 228.004C255.246 228.414 255.07 228.798 254.792 229.103C254.514 229.408 254.149 229.62 253.746 229.709C253.343 229.798 252.922 229.759 252.541 229.599C252.161 229.438 251.84 229.164 251.622 228.813C251.404 228.463 251.3 228.053 251.325 227.641C251.35 227.229 251.501 226.835 251.759 226.513C252.018 226.191 252.369 225.957 252.766 225.843C253.163 225.729 253.585 225.741 253.975 225.877C254.431 225.985 254.826 226.27 255.074 226.668C255.321 227.067 255.402 227.547 255.297 228.004Z" fill="#DB614D"/>
<path d="M239.924 219.879C239.775 220.267 239.51 220.598 239.165 220.829C238.82 221.059 238.412 221.177 237.998 221.166C237.583 221.155 237.182 221.016 236.85 220.768C236.517 220.52 236.27 220.174 236.142 219.78C236.013 219.385 236.011 218.961 236.134 218.565C236.256 218.168 236.499 217.82 236.828 217.567C237.157 217.315 237.556 217.17 237.971 217.154C238.386 217.137 238.795 217.25 239.143 217.476C239.565 217.692 239.884 218.066 240.03 218.516C240.176 218.967 240.138 219.457 239.924 219.879Z" fill="#DB614D"/>
<path d="M256.354 218.677C256.26 218.677 256.168 218.645 256.094 218.586C256.02 218.527 255.967 218.445 255.946 218.353C255.538 217.233 254.734 216.301 253.686 215.733C253.588 215.681 253.513 215.593 253.48 215.487C253.446 215.381 253.455 215.267 253.506 215.168C253.56 215.068 253.65 214.994 253.758 214.96C253.866 214.926 253.982 214.936 254.083 214.987C255.345 215.663 256.302 216.793 256.763 218.148C256.789 218.258 256.77 218.374 256.712 218.47C256.654 218.567 256.56 218.637 256.451 218.665L256.354 218.677Z" fill="#1A4850"/>
<path d="M246.234 211.478C246.164 211.499 246.088 211.499 246.018 211.478C244.993 210.875 243.781 210.674 242.617 210.913C242.563 210.929 242.506 210.935 242.451 210.929C242.395 210.924 242.341 210.907 242.291 210.88C242.242 210.853 242.199 210.817 242.164 210.773C242.129 210.729 242.103 210.678 242.088 210.624C242.069 210.572 242.062 210.517 242.066 210.462C242.07 210.407 242.086 210.353 242.112 210.305C242.138 210.256 242.174 210.213 242.217 210.18C242.261 210.146 242.311 210.121 242.364 210.107C243.763 209.795 245.229 210.027 246.463 210.756C246.556 210.816 246.623 210.909 246.65 211.016C246.676 211.124 246.661 211.237 246.607 211.333C246.56 211.385 246.502 211.425 246.438 211.45C246.373 211.475 246.303 211.484 246.234 211.478Z" fill="#1A4850"/>
<path d="M253.314 222.175C252.797 223.088 251.968 223.593 251.463 223.305C250.958 223.016 250.958 222.103 251.463 221.129C251.968 220.156 252.797 219.711 253.314 219.999C253.83 220.288 253.83 221.261 253.314 222.175Z" fill="#1A4850"/>
<path d="M242.989 216.634C242.472 217.547 241.643 218.052 241.138 217.836C240.633 217.619 240.633 216.574 241.138 215.66C241.643 214.747 242.472 214.23 242.989 214.518C243.506 214.807 243.506 215.72 242.989 216.634Z" fill="#1A4850"/>
<path d="M239.407 226.021C239.407 226.021 243.638 229.242 246.691 229.338C246.691 229.338 243.434 231.983 241.102 230.276C240.44 229.805 239.928 229.153 239.627 228.398C239.326 227.644 239.25 226.818 239.407 226.021Z" fill="#1A4850"/>
<path d="M251.09 220.372C251.09 220.372 253.025 218.497 253.818 219.17C254.612 219.843 254.203 222.139 254.203 222.139H255.898L254.492 221.574C254.492 221.574 254.948 219.17 254.071 218.689C252.833 217.968 251.09 220.372 251.09 220.372Z" fill="#1A4850"/>
<path d="M243.782 216.574C243.782 216.574 244.383 213.942 243.41 213.605C242.436 213.268 240.669 214.807 240.669 214.807L239.756 213.377L240.958 214.29C240.958 214.29 242.773 212.655 243.65 213.148C244.912 213.857 243.782 216.574 243.782 216.574Z" fill="#1A4850"/>
<path d="M257.629 208.713C257.29 208.22 256.851 207.805 256.34 207.495C255.828 207.185 255.257 206.987 254.663 206.915C254.069 206.844 253.467 206.9 252.896 207.079C252.326 207.258 251.8 207.557 251.355 207.956C247.749 210.865 239.492 215.528 235.441 213.966C231.391 212.403 244.287 195.192 255.477 200.24C266.667 205.288 265.657 221.706 261.006 226.923C256.355 232.139 258.602 227.283 258.602 227.283C258.786 223.122 259.41 218.993 260.465 214.963C260.719 214.37 260.846 213.73 260.839 213.084C260.832 212.439 260.69 211.802 260.423 211.214C260.157 210.626 259.77 210.1 259.289 209.669C258.808 209.239 258.242 208.913 257.629 208.713Z" fill="#F24052"/>
<path d="M245.189 224.338C244.974 224.339 244.759 224.311 244.552 224.254L244.78 223.377C245.013 223.47 245.271 223.478 245.508 223.399C245.746 223.319 245.948 223.158 246.078 222.944C246.191 222.764 246.251 222.556 246.251 222.343C246.251 222.131 246.191 221.922 246.078 221.742C245.97 221.622 245.766 221.634 245.489 221.742L245.068 220.925C245.32 220.75 245.625 220.668 245.93 220.695C246.235 220.721 246.521 220.854 246.739 221.069C246.989 221.393 247.133 221.786 247.153 222.194C247.172 222.602 247.065 223.007 246.847 223.353C246.689 223.655 246.45 223.907 246.158 224.081C245.865 224.255 245.529 224.344 245.189 224.338Z" fill="#DB614D"/>
<path d="M299.155 287.764C298.722 294.243 282.701 315.312 280.032 316.057C279.294 316.287 278.596 316.632 277.965 317.079L277.136 317.704C276.171 318.506 275.278 319.391 274.467 320.348C269.804 320.048 256.679 313.978 260.898 312.644C261.199 312.539 261.482 312.389 261.739 312.199C261.935 312.071 262.12 311.926 262.292 311.767C267.256 307.608 276.919 290.709 276.979 289.435C277.04 288.161 278.698 287.764 278.698 287.764C278.698 287.764 269.588 274.375 264.275 272.764C258.963 271.154 256.33 264.759 256.33 264.759C251.102 242.68 266.282 246.142 266.282 246.142C277.484 252.824 299.6 281.274 299.155 287.764Z" fill="#8BBDDB"/>
<path d="M277.965 317.079L277.136 317.704C271.628 317.169 266.338 315.278 261.739 312.199C261.935 312.071 262.12 311.926 262.292 311.766C266.968 314.865 272.369 316.696 277.965 317.079Z" fill="#3E6575"/>
<path d="M211.415 241.165C211.294 241.399 211.158 241.624 211.006 241.838C210.02 241.796 209.04 241.676 208.073 241.478C203.977 240.573 200.224 238.517 197.256 235.552C196.703 235.016 196.222 234.511 195.814 234.038L196.403 233.689C196.751 234.074 197.148 234.507 197.604 234.891C200.574 237.914 204.378 239.981 208.53 240.829C209.48 241.025 210.445 241.138 211.415 241.165Z" fill="#3E6575"/>
<path d="M283.025 336.273C281.644 338.744 279.723 340.871 277.404 342.495C275.086 344.118 272.43 345.196 269.636 345.648C269.516 345.468 269.383 345.252 269.263 345.035C272.094 344.608 274.784 343.522 277.118 341.864C279.452 340.206 281.364 338.024 282.701 335.492C282.809 335.757 282.917 336.033 283.025 336.273Z" fill="#3E6575"/>
<path d="M161.583 457.692C160.26 459.102 159.113 460.668 158.169 462.355C156.439 465.36 158.35 468.137 149.96 475.132C149.96 475.132 133.025 465.216 125.369 452.475C125.44 451.414 125.852 450.403 126.542 449.593C127.233 448.784 128.166 448.218 129.203 447.98C131.198 447.524 136.667 450.084 141.92 451.069C142.665 451.201 143.422 451.322 144.155 451.382C145.05 451.478 145.953 451.478 146.847 451.382C147.628 451.31 148.393 451.124 149.119 450.829C150.102 450.407 150.971 449.758 151.655 448.935C152.338 448.111 152.816 447.137 153.049 446.093C153.049 446.093 157.544 448.653 154.552 452.992C154.564 452.98 159.852 450.649 161.583 457.692Z" fill="#CFD8DC"/>
<path d="M149.96 475.18C149.96 475.18 133.025 465.264 125.369 452.523C125.369 452.523 128.218 451.922 130.561 456.129C132.905 460.336 151.331 469.915 149.96 475.18Z" fill="#ADBEC4"/>
<path d="M150.02 455.096C148.65 457.271 148.674 453.245 146.847 451.37C147.628 451.298 148.393 451.112 149.119 450.817C149.936 451.706 151.102 453.401 150.02 455.096Z" fill="#ADBEC4"/>
<path d="M144.696 455.216C143.242 456.586 142.773 452.992 141.919 451.069C142.665 451.202 143.422 451.322 144.155 451.382C145.008 452.536 145.802 454.158 144.696 455.216Z" fill="#ADBEC4"/>
<path d="M265.754 501.694H241.799C241.211 499.396 241.211 496.986 241.799 494.687C242.232 493.101 244.708 491.61 247.028 489.543C247.678 488.968 248.289 488.35 248.855 487.692C249.309 487.146 249.712 486.558 250.056 485.937C250.507 485.161 250.839 484.323 251.042 483.449C251.446 481.246 251.165 478.973 250.237 476.935C250.237 476.935 258.398 475.228 261.306 479.675C261.306 479.675 261.583 477.62 264.167 478.99C263.959 481.516 264.004 484.057 264.299 486.574C264.828 490.012 268.025 491.009 265.754 501.694Z" fill="#CFD8DC"/>
<path d="M259.528 487.259C259.427 487.373 259.303 487.464 259.164 487.526C259.025 487.589 258.874 487.62 258.722 487.62C258.465 487.623 258.215 487.538 258.013 487.379C256.902 486.519 255.6 485.94 254.217 485.689C252.834 485.438 251.411 485.523 250.068 485.937C250.519 485.161 250.851 484.323 251.054 483.449C252.653 482.86 255.669 482.512 259.395 485.685C259.509 485.778 259.602 485.894 259.67 486.024C259.739 486.155 259.78 486.298 259.792 486.444C259.805 486.591 259.788 486.738 259.742 486.878C259.697 487.018 259.624 487.148 259.528 487.259Z" fill="#ADBEC4"/>
<path d="M257.508 491.237L257.376 491.442C257.225 491.679 256.988 491.849 256.715 491.916C256.442 491.983 256.154 491.942 255.91 491.802C254.287 490.841 250.621 489.026 247.028 489.543C247.678 488.968 248.289 488.35 248.855 487.692C250.322 487.348 251.851 487.359 253.313 487.723C254.776 488.086 256.132 488.793 257.268 489.783C257.48 489.954 257.621 490.196 257.666 490.464C257.71 490.733 257.654 491.008 257.508 491.237Z" fill="#ADBEC4"/>
</svg>
