<svg width="62" height="62" viewBox="0 0 62 62" fill="none" xmlns="http://www.w3.org/2000/svg">
<path d="M31 0C13.9067 0 0 13.9067 0 31C0 48.0933 13.9067 62 31 62C48.0933 62 62 48.0933 62 31C62 13.9067 48.0933 0 31 0ZM38.7094 32.0914H33.666C33.666 40.1492 33.666 50.07 33.666 50.07H26.1925C26.1925 50.07 26.1925 40.2453 26.1925 32.0914H22.64V25.738H26.1925V21.6286C26.1925 18.6854 27.5911 14.0865 33.7346 14.0865L39.2701 14.1077V20.275C39.2701 20.275 35.9049 20.275 35.2505 20.275C34.5962 20.275 33.6672 20.6022 33.6672 22.0057V25.7393H39.3612L38.7094 32.0914Z" fill="white"/>
</svg>
