<svg width="62" height="62" viewBox="0 0 62 62" fill="none" xmlns="http://www.w3.org/2000/svg">
<path d="M31.0013 0C13.8798 0 0 13.8772 0 30.9987C0 48.1203 13.8798 62 31.0013 62C48.1202 62 62 48.1203 62 30.9987C62 13.8772 48.119 0 31.0013 0ZM47.6985 28.0126V41.8117C47.6985 45.4022 44.7753 48.3229 41.1848 48.3229H20.5068C16.915 48.3229 13.9943 45.4022 13.9943 41.8117V28.0126V21.1337C13.9943 17.542 16.915 14.6213 20.5068 14.6213H41.1848C44.7753 14.6213 47.6985 17.542 47.6985 21.1337V28.0126Z" fill="white"/>
</svg>
