<svg width="360" height="373" viewBox="0 0 360 373" fill="none" xmlns="http://www.w3.org/2000/svg">
<path d="M180 233.144C130.439 233.144 85.6492 226.871 53.3167 216.779C37.1385 211.729 24.1917 205.758 15.3329 199.22C6.43457 192.653 2 185.783 2 178.959C2 172.135 6.43457 165.266 15.3329 158.699C24.1917 152.161 37.1385 146.19 53.3167 141.14C85.6492 131.048 130.439 124.775 180 124.775C229.561 124.775 274.351 131.048 306.683 141.14C322.862 146.19 335.808 152.161 344.667 158.699C353.565 165.266 358 172.136 358 178.96C358 185.784 353.565 192.653 344.667 199.22C335.808 205.758 322.861 211.729 306.683 216.779C274.351 226.871 229.561 233.144 180 233.144Z" stroke="black" stroke-width="4"/>
<path d="M215.727 141.179C250.772 176.224 278.007 212.331 293.734 242.33C301.603 257.34 306.535 270.718 308.176 281.604C309.825 292.54 308.103 300.533 303.278 305.359C298.452 310.184 290.459 311.906 279.523 310.257C268.637 308.616 255.259 303.684 240.249 295.815C210.25 280.088 174.143 252.853 139.098 217.808C104.053 182.763 76.8177 146.656 61.0914 116.657C53.2225 101.647 48.2903 88.2696 46.649 77.3827C45.0003 66.4472 46.7222 58.4539 51.5475 53.6286C56.3728 48.8033 64.3662 47.0813 75.3016 48.73C86.1886 50.3713 99.5659 55.3035 114.576 63.1724C144.575 78.8987 180.682 106.134 215.727 141.179Z" stroke="black" stroke-width="4"/>
<circle cx="54.104" cy="58.2659" r="20.8092" fill="black"/>
<path d="M215.728 217.808C180.683 252.853 144.576 280.088 114.577 295.815C99.5664 303.684 86.1891 308.616 75.3022 310.257C64.3667 311.906 56.3733 310.184 51.5481 305.359C46.7228 300.533 45.0008 292.54 46.6495 281.604C48.2908 270.718 53.223 257.34 61.0919 242.33C76.8182 212.331 104.054 176.224 139.098 141.179C174.143 106.134 210.25 78.8987 240.249 63.1725C255.26 55.3035 268.637 50.3714 279.524 48.73C290.459 47.0814 298.453 48.8033 303.278 53.6286C308.103 58.4539 309.825 66.4472 308.177 77.3827C306.535 88.2696 301.603 101.647 293.734 116.657C278.008 146.656 250.773 182.763 215.728 217.808Z" stroke="black" stroke-width="4"/>
<circle cx="299.653" cy="58.2658" r="20.8092" fill="black"/>
<path d="M231.063 180C231.063 229.561 224.79 274.351 214.698 306.683C209.648 322.862 203.677 335.808 197.139 344.667C190.572 353.565 183.702 358 176.878 358C170.054 358 163.185 353.565 156.618 344.667C150.08 335.808 144.109 322.862 139.059 306.683C128.967 274.351 122.693 229.561 122.693 180C122.693 130.439 128.967 85.6492 139.059 53.3167C144.109 37.1385 150.08 24.1917 156.618 15.3329C163.185 6.43458 170.054 2 176.878 2C183.702 2 190.572 6.43458 197.139 15.3329C203.677 24.1917 209.648 37.1385 214.698 53.3167C224.79 85.6492 231.063 130.439 231.063 180Z" stroke="black" stroke-width="4"/>
<circle cx="178.96" cy="351.676" r="20.8092" fill="black"/>
<path d="M164.93 164.322L183.809 148.027C186.34 145.953 188.941 144.916 191.613 144.916C194.566 144.916 197.115 145.988 199.26 148.133C201.439 150.277 202.529 152.58 202.529 155.041V182.146C202.529 187.279 200.332 191.709 195.938 195.436L189.979 200.551L192.246 206.141H198.205C199.436 206.141 200.473 206.58 201.316 207.459C202.195 208.303 202.635 209.34 202.635 210.57C202.635 211.801 202.195 212.855 201.316 213.734C200.473 214.578 199.436 215 198.205 215H186.076L182.859 206.668L176.795 211.678C174.123 213.893 171.434 215 168.727 215C165.633 215 163.031 213.945 160.922 211.836C158.848 209.691 157.811 207.107 157.811 204.084V179.352C157.811 176.258 158.285 173.604 159.234 171.389C160.184 169.139 162.082 166.783 164.93 164.322ZM189.662 154.514L170.783 170.809C169.131 172.25 168.023 173.621 167.461 174.922C166.934 176.223 166.67 178.068 166.67 180.459V203.557C166.67 205.385 167.373 206.299 168.779 206.299C169.342 206.299 169.887 206.07 170.414 205.613L179.379 197.914L176.479 190.162C176.057 189.143 175.846 188.264 175.846 187.525C175.846 186.436 176.285 185.469 177.164 184.625C178.043 183.746 179.08 183.307 180.275 183.307C182.35 183.307 183.721 184.15 184.389 185.838L186.656 191.797C189.223 189.793 191.016 188.141 192.035 186.84C193.055 185.504 193.564 183.939 193.564 182.146V156.043C193.564 154.566 192.896 153.828 191.561 153.828C190.822 153.828 190.189 154.057 189.662 154.514Z" fill="black"/>
</svg>
