<svg width="472" height="319" viewBox="0 0 472 319" fill="none" xmlns="http://www.w3.org/2000/svg">
<path d="M96.7869 314.219H41.6769C40.7104 314.219 39.9269 315.003 39.9269 315.969V316.939C39.9269 317.906 40.7104 318.689 41.6769 318.689H96.7869C97.7534 318.689 98.5369 317.906 98.5369 316.939V315.969C98.5369 315.003 97.7534 314.219 96.7869 314.219Z" fill="#ADBEC4"/>
<path d="M445.937 314.219H430.857C429.89 314.219 429.107 315.003 429.107 315.969V316.939C429.107 317.906 429.89 318.689 430.857 318.689H445.937C446.903 318.689 447.687 317.906 447.687 316.939V315.969C447.687 315.003 446.903 314.219 445.937 314.219Z" fill="#ADBEC4"/>
<path d="M200.487 314.219H145.377C144.41 314.219 143.627 315.003 143.627 315.969V316.939C143.627 317.906 144.41 318.689 145.377 318.689H200.487C201.453 318.689 202.237 317.906 202.237 316.939V315.969C202.237 315.003 201.453 314.219 200.487 314.219Z" fill="#ADBEC4"/>
<path d="M281.397 314.219H226.287C225.32 314.219 224.537 315.003 224.537 315.969V316.939C224.537 317.906 225.32 318.689 226.287 318.689H281.397C282.363 318.689 283.147 317.906 283.147 316.939V315.969C283.147 315.003 282.363 314.219 281.397 314.219Z" fill="#ADBEC4"/>
<path d="M380.477 314.219H305.357C304.39 314.219 303.607 315.003 303.607 315.969V316.939C303.607 317.906 304.39 318.689 305.357 318.689H380.477C381.443 318.689 382.227 317.906 382.227 316.939V315.969C382.227 315.003 381.443 314.219 380.477 314.219Z" fill="#ADBEC4"/>
<path d="M115.257 68.4091C115.257 68.4091 109.437 64.4091 100.917 67.4991C92.3969 70.5891 90.4969 82.0191 92.5969 91.3491C94.6969 100.679 82.9969 132.349 82.9969 132.349C82.9969 132.349 89.087 140.919 110.367 137.639C110.367 137.639 126.247 108.789 125.067 88.0891C123.887 67.3891 115.257 68.4091 115.257 68.4091Z" fill="#0E3944"/>
<path d="M121.997 104.199C129.997 101.639 134.887 108.299 139.477 120.699C144.067 133.099 145.577 134.349 145.577 134.349L163.267 145.719L161.797 152.349C161.797 152.349 144.957 145.759 140.887 141.559C136.817 137.359 125.107 116.129 125.107 116.129L121.997 104.199Z" fill="#EF6E4B"/>
<path d="M82.997 184.289C82.997 184.289 79.5269 201.869 80.0969 228.289C80.0969 228.289 66.427 248.459 77.707 306.009H83.637C83.637 306.009 88.4669 257.009 92.1669 243.779C95.8669 230.549 109.537 226.439 110.277 186.099L82.997 184.289Z" fill="#FF8B66"/>
<path d="M55.9169 235.979C52.4769 224.639 43.6369 205.649 20.9169 179.909C20.3939 179.709 19.829 179.642 19.2736 179.715C18.7182 179.789 18.19 180 17.7369 180.329C15.8069 181.509 15.8069 182.899 15.8069 182.899C15.8069 182.899 27.1869 207.689 34.4369 225.849C35.6301 228.841 37.6938 231.406 40.3609 233.212C43.0281 235.018 46.1759 235.982 49.3969 235.979H55.9169Z" fill="#FF8B66"/>
<path d="M97.217 257.909C97.217 257.909 97.297 266.369 91.747 266.509C83.907 266.719 83.617 258.179 74.747 258.459C65.877 258.739 47.547 260.959 41.747 247.079C38.747 239.909 42.857 230.709 33.147 223.769C23.437 216.829 28.147 209.059 33.147 204.889C38.147 200.719 30.987 196.189 36.147 194.069C37.2982 193.607 38.5787 193.582 39.747 193.999C40.412 194.255 41.0434 194.591 41.627 194.999C43.4913 196.356 45.0825 198.052 46.317 199.999C60.997 159.679 87.227 154.349 87.227 154.349L113.127 163.289C113.757 225.989 97.217 257.909 97.217 257.909Z" fill="#164353"/>
<path d="M121.997 104.199C117.229 105.507 112.232 105.756 107.357 104.929C98.757 103.619 95.967 98.2292 89.917 101.699C80.847 106.919 85.097 124.869 87.377 134.199C88.227 137.679 89.297 146.819 87.247 154.369C87.247 154.369 99.327 163.759 113.157 163.299L120.697 146.889C120.697 146.889 137.077 127.269 121.997 104.199Z" fill="#CFD8DC"/>
<path d="M106.627 89.1393C107.126 94.6346 106.395 100.172 104.487 105.349C104.487 105.349 108.977 111.969 113.257 107.609C113.836 101.782 115.606 96.135 118.457 91.0194C121.667 85.1394 106.627 89.1393 106.627 89.1393Z" fill="#EF6E4B"/>
<path d="M99.7469 89.4291C99.7469 89.4291 95.9669 87.0391 96.3969 90.7291C96.8869 95.0091 101.067 95.8391 101.507 94.3391C101.947 92.8391 99.7469 89.4291 99.7469 89.4291Z" fill="#FF8B66"/>
<path d="M121.457 84.7993C121.457 84.7993 123.857 81.0193 125.047 84.5393C126.417 88.6193 123.047 91.1593 121.967 89.9893C120.887 88.8193 121.457 84.7993 121.457 84.7993Z" fill="#FF8B66"/>
<path d="M113.647 102.219C106.777 103.749 101.907 100.139 98.8969 86.6994C97.3469 79.7594 99.8969 74.6993 107.607 72.9993C115.317 71.2993 119.477 74.8093 121.027 81.7393C124.267 96.1793 120.727 100.629 113.647 102.219Z" fill="#FF8B66"/>
<path d="M119.827 87.0394C119.888 87.4104 119.821 87.791 119.639 88.1197C119.456 88.4484 119.168 88.7059 118.821 88.8505C118.474 88.9951 118.088 89.0183 117.727 88.9165C117.365 88.8147 117.048 88.5937 116.827 88.2894C116.724 87.9142 116.77 87.5136 116.957 87.1722C117.143 86.8307 117.455 86.5751 117.827 86.4594C118.169 86.2731 118.572 86.2295 118.946 86.3381C119.321 86.4467 119.637 86.6987 119.827 87.0394Z" fill="#DB614D"/>
<path d="M105.807 90.5792C105.942 90.8991 105.973 91.253 105.897 91.5917C105.822 91.9304 105.642 92.2371 105.384 92.4691C105.126 92.7011 104.802 92.847 104.457 92.8863C104.112 92.9257 103.764 92.8567 103.46 92.6889C103.156 92.521 102.912 92.2627 102.762 91.9499C102.612 91.637 102.563 91.2851 102.622 90.9431C102.681 90.6011 102.845 90.2859 103.092 90.0415C103.338 89.7971 103.654 89.6355 103.997 89.5792C104.369 89.4793 104.766 89.5276 105.104 89.7141C105.441 89.9006 105.693 90.2107 105.807 90.5792Z" fill="#DB614D"/>
<path d="M115.057 80.7793C114.986 80.7795 114.916 80.7586 114.857 80.7193C113.983 80.2447 112.963 80.1128 111.997 80.3493C111.906 80.3706 111.809 80.3553 111.729 80.3068C111.649 80.2582 111.591 80.1802 111.567 80.0893C111.546 80.0006 111.56 79.9069 111.606 79.8285C111.653 79.75 111.729 79.6929 111.817 79.6693C112.974 79.3825 114.197 79.5469 115.237 80.1293C115.276 80.1537 115.309 80.1856 115.335 80.2232C115.362 80.2607 115.38 80.3032 115.389 80.348C115.399 80.3929 115.399 80.4391 115.39 80.484C115.381 80.5289 115.363 80.5715 115.337 80.6093C115.307 80.6578 115.266 80.6985 115.217 80.728C115.169 80.7576 115.114 80.7752 115.057 80.7793Z" fill="#0E3944"/>
<path d="M102.137 83.6693C102.078 83.6884 102.015 83.6884 101.957 83.6693C101.917 83.6466 101.881 83.616 101.853 83.5791C101.825 83.5423 101.805 83.5001 101.793 83.4552C101.782 83.4102 101.78 83.3635 101.788 83.3177C101.795 83.272 101.812 83.2283 101.837 83.1893C102.523 82.2169 103.559 81.5471 104.727 81.3193C104.772 81.3101 104.819 81.3099 104.864 81.3188C104.91 81.3276 104.953 81.3453 104.991 81.3708C105.03 81.3964 105.063 81.4293 105.089 81.4676C105.115 81.5059 105.133 81.549 105.142 81.5943C105.151 81.6396 105.151 81.6863 105.142 81.7316C105.134 81.777 105.116 81.8202 105.09 81.8587C105.065 81.8973 105.032 81.9304 104.994 81.9562C104.955 81.9821 104.912 82.0001 104.867 82.0093C103.894 82.2035 103.028 82.7524 102.437 83.5493C102.4 83.5919 102.354 83.6251 102.302 83.646C102.249 83.6669 102.193 83.6749 102.137 83.6693Z" fill="#0E3944"/>
<path d="M115.357 84.5393C115.547 85.3993 115.357 86.1693 114.847 86.2793C114.337 86.3893 113.847 85.7793 113.637 84.9293C113.427 84.0793 113.637 83.2993 114.147 83.1893C114.657 83.0793 115.167 83.6893 115.357 84.5393Z" fill="#1A4850"/>
<path d="M105.817 86.5994C106.017 87.4494 105.817 88.2194 105.307 88.3294C104.797 88.4394 104.307 87.8294 104.107 86.9794C103.907 86.1294 104.107 85.3494 104.617 85.2394C105.127 85.1294 105.627 85.7394 105.817 86.5994Z" fill="#1A4850"/>
<path d="M108.907 94.6592C108.907 94.6592 113.307 94.3092 115.257 92.6592C115.257 92.6592 114.717 96.0992 112.317 96.3392C111.647 96.4174 110.969 96.3005 110.364 96.0025C109.759 95.7044 109.253 95.238 108.907 94.6592Z" fill="#1A4850"/>
<path d="M112.997 84.6392C112.997 84.6392 113.147 82.3992 113.997 82.3592C114.847 82.3192 115.877 83.9892 115.877 83.9892L116.957 83.0692L115.777 83.4992C115.777 83.4992 114.717 81.7692 113.907 81.9492C112.707 82.1992 112.997 84.6392 112.997 84.6392Z" fill="#1A4850"/>
<path d="M106.347 86.3493C106.347 86.3493 105.257 84.3493 104.467 84.7193C103.677 85.0893 103.467 86.9893 103.467 86.9893L102.107 86.6193L103.357 86.5093C103.357 86.5093 103.577 84.5093 104.357 84.3093C105.527 84.0793 106.347 86.3493 106.347 86.3493Z" fill="#1A4850"/>
<path d="M111.127 90.6892L110.777 90.0192C110.976 89.9487 111.142 89.8084 111.245 89.6245C111.348 89.4405 111.381 89.2255 111.337 89.0192C111.302 88.8473 111.223 88.6875 111.107 88.5559C110.991 88.4243 110.843 88.3254 110.677 88.2692C110.547 88.2692 110.427 88.3792 110.337 88.6192L109.627 88.3592C109.685 88.1108 109.827 87.8902 110.03 87.7352C110.232 87.5801 110.482 87.5003 110.737 87.5092C111.071 87.5725 111.377 87.7353 111.616 87.9763C111.856 88.2173 112.016 88.5251 112.077 88.8592C112.152 89.2269 112.098 89.6092 111.926 89.9422C111.753 90.2752 111.471 90.5389 111.127 90.6892Z" fill="#DB614D"/>
<path d="M100.297 91.8492C100.297 91.8492 98.1769 84.0592 99.4369 78.5592C99.4369 78.5592 105.437 70.2492 116.927 74.3492C119.276 78.4704 120.986 82.9245 121.997 87.5592C121.997 87.5592 122.427 84.7892 121.277 78.6292C120.127 72.4692 114.667 68.6292 107.177 69.8792C99.6869 71.1292 91.6969 78.5592 100.297 91.8492Z" fill="#0E3944"/>
<path d="M112.377 72.6293C112.377 72.6293 112.827 74.6293 110.857 79.8893C110.655 79.6846 110.415 79.5221 110.149 79.4112C109.884 79.3002 109.599 79.2431 109.312 79.2431C109.024 79.2431 108.74 79.3002 108.475 79.4112C108.209 79.5221 107.969 79.6846 107.767 79.8893C106.107 81.3793 102.767 80.8893 101.567 81.6793C101.203 82.0158 100.913 82.4242 100.715 82.8786C100.517 83.3331 100.415 83.8237 100.417 84.3193C99.824 82.7054 99.824 80.9333 100.417 79.3193C99.038 81.1535 98.3318 83.4062 98.4169 85.6993C98.4169 85.6993 95.4169 85.2093 95.5069 80.1793C95.5969 75.1493 102.787 67.0193 110.807 67.5493C118.827 68.0793 120.727 80.7693 120.727 80.7693C120.456 80.5867 120.149 80.4637 119.826 80.4085C119.504 80.3533 119.174 80.3673 118.857 80.4493C118.588 78.3128 117.909 76.2484 116.857 74.3693C117.345 76.0275 117.345 77.7911 116.857 79.4493C115.628 78.8037 114.239 78.526 112.857 78.6493C112.857 78.6493 113.997 76.4993 112.377 72.6293Z" fill="#0E3944"/>
<path d="M87.8669 103.349C91.7669 100.269 94.8069 104.179 95.5469 109.589C96.2869 114.999 89.2369 146.919 83.7969 145.749C81.6969 145.289 80.7969 136.929 80.7969 136.929C82.4099 129.512 83.5787 122.006 84.2969 114.449C84.9969 108.199 85.8369 104.909 87.8669 103.349Z" fill="#FF8B66"/>
<path d="M76.5169 141.189C71.2669 136.189 61.8469 119.579 59.4569 111.119L63.4569 109.519C63.4569 109.519 75.4569 126.689 80.9369 131.019C86.4169 135.349 88.3269 140.169 85.9369 144.299C83.5469 148.429 77.6169 142.249 76.5169 141.189Z" fill="#FF8B66"/>
<path d="M61.0969 100.049C60.8169 105.479 65.2469 106.759 63.2769 110.929C63.1212 111.288 62.8935 111.61 62.608 111.877C62.3224 112.144 61.9851 112.349 61.6169 112.479C61.0127 112.673 60.3657 112.692 59.7514 112.533C59.1371 112.373 58.5806 112.043 58.1469 111.579C55.9955 109.528 53.6168 107.73 51.0569 106.219C49.0569 105.079 50.2069 104.769 50.2069 104.769L49.6369 104.529C48.2369 103.949 47.1169 103.719 48.1269 103.099C49.1369 102.479 53.3369 103.869 53.3369 103.869C48.0569 100.349 46.6169 101.209 47.5869 100.459C48.8969 99.4594 53.9269 101.789 54.0769 101.859C51.2869 99.2194 49.2569 98.6194 50.3669 98.2194C51.4769 97.8194 56.9969 101.819 58.9969 103.349L59.7269 103.909C59.6969 99.4394 61.0969 100.049 61.0969 100.049Z" fill="#FF8B66"/>
<path d="M58.9969 103.349L59.727 103.909C59.4491 104.489 59.3287 105.131 59.3778 105.772C59.427 106.413 59.644 107.029 60.0069 107.559C59.356 107.1 58.8945 106.419 58.7087 105.645C58.5228 104.87 58.6253 104.054 58.9969 103.349Z" fill="#EF6E4B"/>
<path d="M54.397 106.439C53.927 106.189 51.267 104.679 50.207 104.769L49.637 104.529C50.357 103.589 53.867 106.059 54.397 106.439Z" fill="#EF6E4B"/>
<path d="M75.3669 187.019C75.3669 187.231 75.3042 187.438 75.1866 187.614C75.069 187.79 74.9019 187.927 74.7064 188.008C74.5109 188.089 74.2957 188.11 74.0882 188.069C73.8806 188.027 73.69 187.925 73.5403 187.776C73.3907 187.626 73.2888 187.436 73.2475 187.228C73.2062 187.02 73.2274 186.805 73.3084 186.61C73.3894 186.414 73.5265 186.247 73.7025 186.13C73.8784 186.012 74.0853 185.949 74.2969 185.949C74.5807 185.949 74.8529 186.062 75.0535 186.263C75.2542 186.463 75.3669 186.735 75.3669 187.019Z" fill="#6097B2"/>
<path d="M94.4069 194.349C94.4089 194.561 94.3478 194.769 94.2315 194.946C94.1151 195.124 93.9487 195.262 93.7534 195.345C93.558 195.427 93.3426 195.45 93.1344 195.41C92.9262 195.37 92.7346 195.269 92.5839 195.119C92.4333 194.97 92.3304 194.78 92.2883 194.572C92.2462 194.364 92.2668 194.148 92.3474 193.952C92.4281 193.756 92.5653 193.588 92.7414 193.47C92.9176 193.352 93.1249 193.289 93.3369 193.289C93.619 193.289 93.8896 193.401 94.09 193.599C94.2904 193.798 94.4043 194.067 94.4069 194.349Z" fill="#6097B2"/>
<path d="M110.627 198.349C110.627 198.561 110.564 198.768 110.447 198.944C110.329 199.12 110.162 199.257 109.966 199.338C109.771 199.419 109.556 199.44 109.348 199.399C109.141 199.357 108.95 199.256 108.8 199.106C108.651 198.956 108.549 198.766 108.507 198.558C108.466 198.35 108.487 198.135 108.568 197.94C108.649 197.744 108.787 197.577 108.962 197.46C109.138 197.342 109.345 197.279 109.557 197.279C109.841 197.279 110.113 197.392 110.314 197.593C110.514 197.793 110.627 198.066 110.627 198.349Z" fill="#6097B2"/>
<path d="M85.6969 173.079C85.6969 173.291 85.6342 173.498 85.5166 173.674C85.399 173.85 85.2319 173.987 85.0364 174.068C84.8409 174.149 84.6258 174.17 84.4182 174.129C84.2106 174.087 84.02 173.986 83.8703 173.836C83.7207 173.686 83.6188 173.496 83.5775 173.288C83.5362 173.08 83.5574 172.865 83.6384 172.67C83.7194 172.474 83.8565 172.307 84.0325 172.19C84.2084 172.072 84.4153 172.009 84.6269 172.009C84.9107 172.009 85.1829 172.122 85.3836 172.323C85.5842 172.523 85.6969 172.796 85.6969 173.079Z" fill="#6097B2"/>
<path d="M88.2269 184.299C88.8179 184.299 89.2969 183.82 89.2969 183.229C89.2969 182.638 88.8179 182.159 88.2269 182.159C87.636 182.159 87.1569 182.638 87.1569 183.229C87.1569 183.82 87.636 184.299 88.2269 184.299Z" fill="#6097B2"/>
<path d="M106.177 188.999C106.179 189.211 106.118 189.419 106.001 189.596C105.885 189.774 105.719 189.912 105.523 189.995C105.328 190.077 105.113 190.1 104.904 190.06C104.696 190.02 104.505 189.919 104.354 189.769C104.203 189.62 104.1 189.43 104.058 189.222C104.016 189.014 104.037 188.798 104.117 188.602C104.198 188.406 104.335 188.238 104.511 188.12C104.688 188.002 104.895 187.939 105.107 187.939C105.389 187.939 105.66 188.051 105.86 188.249C106.06 188.448 106.174 188.717 106.177 188.999Z" fill="#6097B2"/>
<path d="M108.487 171.509C108.487 171.721 108.424 171.929 108.306 172.105C108.188 172.281 108.02 172.418 107.824 172.499C107.628 172.579 107.412 172.6 107.204 172.558C106.997 172.516 106.806 172.413 106.657 172.262C106.508 172.112 106.406 171.92 106.366 171.712C106.326 171.504 106.349 171.288 106.431 171.093C106.514 170.897 106.652 170.731 106.83 170.615C107.007 170.498 107.215 170.437 107.427 170.439C107.567 170.439 107.706 170.467 107.835 170.521C107.964 170.575 108.081 170.654 108.18 170.753C108.279 170.853 108.356 170.971 108.409 171.101C108.462 171.23 108.488 171.369 108.487 171.509Z" fill="#6097B2"/>
<path d="M96.3669 168.939C96.9579 168.939 97.4369 168.46 97.4369 167.869C97.4369 167.278 96.9579 166.799 96.3669 166.799C95.776 166.799 95.2969 167.278 95.2969 167.869C95.2969 168.46 95.776 168.939 96.3669 168.939Z" fill="#6097B2"/>
<path d="M65.9169 207.839C65.9169 208.051 65.8542 208.258 65.7366 208.434C65.619 208.61 65.4519 208.747 65.2564 208.828C65.0609 208.909 64.8457 208.93 64.6382 208.889C64.4306 208.847 64.24 208.746 64.0903 208.596C63.9407 208.446 63.8388 208.256 63.7975 208.048C63.7562 207.841 63.7774 207.625 63.8584 207.43C63.9394 207.234 64.0765 207.067 64.2525 206.95C64.4284 206.832 64.6353 206.769 64.8469 206.769C64.9878 206.768 65.1275 206.795 65.258 206.848C65.3884 206.901 65.5069 206.98 65.6065 207.08C65.7061 207.179 65.7849 207.298 65.8382 207.428C65.8915 207.559 65.9183 207.698 65.9169 207.839Z" fill="#6097B2"/>
<path d="M50.707 203.349C50.707 203.561 50.6442 203.768 50.5266 203.944C50.4091 204.12 50.2419 204.257 50.0464 204.338C49.8509 204.419 49.6358 204.44 49.4282 204.399C49.2206 204.357 49.03 204.256 48.8804 204.106C48.7307 203.956 48.6288 203.766 48.5875 203.558C48.5462 203.35 48.5674 203.135 48.6484 202.94C48.7294 202.744 48.8665 202.577 49.0425 202.46C49.2185 202.342 49.4253 202.279 49.637 202.279C49.9207 202.279 50.1929 202.392 50.3936 202.593C50.5942 202.793 50.707 203.066 50.707 203.349Z" fill="#6097B2"/>
<path d="M41.6369 194.949C41.5394 195.098 41.4058 195.221 41.2485 195.305C41.0912 195.389 40.9152 195.431 40.7369 195.429C40.5964 195.428 40.4575 195.399 40.3282 195.344C40.1989 195.289 40.0817 195.209 39.9832 195.109C39.8848 195.009 39.8071 194.89 39.7545 194.759C39.702 194.629 39.6756 194.49 39.6769 194.349C39.6715 194.221 39.6991 194.094 39.7569 193.979C40.4206 194.225 41.0519 194.551 41.6369 194.949Z" fill="#6097B2"/>
<path d="M70.2969 222.829C70.8879 222.829 71.3669 222.35 71.3669 221.759C71.3669 221.168 70.8879 220.689 70.2969 220.689C69.706 220.689 69.2269 221.168 69.2269 221.759C69.2269 222.35 69.706 222.829 70.2969 222.829Z" fill="#6097B2"/>
<path d="M44.0669 236.879C44.0814 237.028 44.0645 237.178 44.0176 237.319C43.9706 237.461 43.8945 237.591 43.7942 237.702C43.6939 237.812 43.5716 237.901 43.4352 237.961C43.2988 238.021 43.1512 238.053 43.0019 238.053C42.8527 238.053 42.7051 238.021 42.5687 237.961C42.4323 237.901 42.31 237.812 42.2097 237.702C42.1094 237.591 42.0333 237.461 41.9863 237.319C41.9394 237.178 41.9225 237.028 41.9369 236.879C41.9626 236.615 42.0859 236.369 42.2828 236.19C42.4797 236.012 42.7361 235.913 43.0019 235.913C43.2678 235.913 43.5242 236.012 43.7211 236.19C43.918 236.369 44.0413 236.615 44.0669 236.879Z" fill="#6097B2"/>
<path d="M54.1569 228.789C54.7479 228.789 55.2269 228.31 55.2269 227.719C55.2269 227.128 54.7479 226.649 54.1569 226.649C53.566 226.649 53.0869 227.128 53.0869 227.719C53.0869 228.31 53.566 228.789 54.1569 228.789Z" fill="#6097B2"/>
<path d="M37.5469 220.679C38.1379 220.679 38.6169 220.2 38.6169 219.609C38.6169 219.018 38.1379 218.539 37.5469 218.539C36.956 218.539 36.4769 219.018 36.4769 219.609C36.4769 220.2 36.956 220.679 37.5469 220.679Z" fill="#6097B2"/>
<path d="M51.9969 251.549C51.9965 251.764 51.9315 251.973 51.8106 252.15C51.6896 252.328 51.5182 252.464 51.3186 252.543C51.1189 252.621 50.9003 252.638 50.6911 252.591C50.4819 252.543 50.2917 252.434 50.1452 252.278C49.9987 252.121 49.9027 251.924 49.8697 251.712C49.8367 251.5 49.8681 251.283 49.9599 251.089C50.0517 250.895 50.1997 250.733 50.3846 250.625C50.5695 250.516 50.7829 250.465 50.9969 250.479C51.2684 250.497 51.5229 250.618 51.7087 250.816C51.8944 251.015 51.9975 251.277 51.9969 251.549Z" fill="#6097B2"/>
<path d="M62.1769 195.429C62.175 195.641 62.1103 195.847 61.991 196.022C61.8718 196.197 61.7034 196.332 61.5072 196.411C61.3109 196.491 61.0956 196.51 60.8884 196.467C60.6813 196.423 60.4916 196.32 60.3433 196.169C60.1951 196.018 60.095 195.826 60.0556 195.618C60.0163 195.41 60.0395 195.195 60.1223 195C60.2051 194.806 60.3438 194.64 60.5208 194.524C60.6979 194.408 60.9053 194.347 61.1169 194.349C61.2578 194.349 61.3973 194.377 61.5273 194.432C61.6572 194.486 61.7749 194.566 61.8736 194.667C61.9723 194.767 62.05 194.886 62.1021 195.017C62.1541 195.148 62.1796 195.288 62.1769 195.429Z" fill="#6097B2"/>
<path d="M72.4369 177.459C72.4291 177.669 72.3597 177.872 72.2375 178.042C72.1152 178.213 71.9455 178.344 71.7494 178.419C71.5534 178.494 71.3396 178.509 71.1347 178.464C70.9299 178.418 70.743 178.313 70.5973 178.162C70.4516 178.011 70.3536 177.82 70.3155 177.614C70.2773 177.407 70.3007 177.194 70.3828 177.001C70.4648 176.808 70.6018 176.643 70.7768 176.527C70.9518 176.411 71.157 176.349 71.3669 176.349C71.5113 176.348 71.6544 176.376 71.7876 176.431C71.9207 176.487 72.0411 176.57 72.1413 176.673C72.2415 176.777 72.3194 176.901 72.3702 177.036C72.421 177.171 72.4437 177.315 72.4369 177.459Z" fill="#6097B2"/>
<path d="M83.9969 162.499C83.9713 162.764 83.848 163.01 83.6511 163.188C83.4542 163.367 83.1978 163.466 82.9319 163.466C82.666 163.466 82.4097 163.367 82.2128 163.188C82.0159 163.01 81.8926 162.764 81.8669 162.499C81.8525 162.351 81.8693 162.201 81.9163 162.059C81.9633 161.918 82.0393 161.787 82.1396 161.677C82.2399 161.566 82.3622 161.478 82.4987 161.418C82.6351 161.357 82.7827 161.326 82.9319 161.326C83.0812 161.326 83.2287 161.357 83.3652 161.418C83.5016 161.478 83.6239 161.566 83.7242 161.677C83.8245 161.787 83.9006 161.918 83.9476 162.059C83.9945 162.201 84.0113 162.351 83.9969 162.499Z" fill="#6097B2"/>
<path d="M60.527 184.289C60.527 184.501 60.4642 184.708 60.3466 184.884C60.2291 185.06 60.0619 185.197 59.8664 185.278C59.6709 185.359 59.4558 185.38 59.2482 185.339C59.0407 185.297 58.85 185.195 58.7004 185.046C58.5507 184.896 58.4488 184.706 58.4075 184.498C58.3662 184.29 58.3874 184.075 58.4684 183.88C58.5494 183.684 58.6865 183.517 58.8625 183.4C59.0385 183.282 59.2453 183.219 59.457 183.219C59.7407 183.219 60.0129 183.332 60.2136 183.533C60.4142 183.733 60.527 184.005 60.527 184.289Z" fill="#6097B2"/>
<path d="M73.5069 166.799C73.5069 167.011 73.4442 167.218 73.3266 167.394C73.209 167.57 73.0419 167.707 72.8464 167.788C72.6509 167.869 72.4358 167.89 72.2282 167.849C72.0206 167.807 71.83 167.705 71.6803 167.556C71.5307 167.406 71.4288 167.216 71.3875 167.008C71.3462 166.8 71.3674 166.585 71.4484 166.39C71.5294 166.194 71.6665 166.027 71.8425 165.91C72.0185 165.792 72.2253 165.729 72.4369 165.729C72.7207 165.729 72.9929 165.842 73.1935 166.043C73.3942 166.243 73.5069 166.515 73.5069 166.799Z" fill="#6097B2"/>
<path d="M53.0869 214.859C53.0869 215.07 53.0246 215.276 52.9079 215.452C52.7912 215.627 52.6252 215.764 52.4309 215.846C52.2365 215.927 52.0224 215.95 51.8154 215.91C51.6084 215.87 51.4177 215.77 51.2673 215.623C51.1169 215.475 51.0135 215.286 50.97 215.08C50.9264 214.874 50.9448 214.659 51.0227 214.463C51.1007 214.268 51.2347 214.099 51.408 213.979C51.5813 213.859 51.7862 213.793 51.9969 213.789C52.1391 213.787 52.2804 213.812 52.4125 213.865C52.5447 213.917 52.665 213.996 52.7665 214.095C52.868 214.195 52.9486 214.314 53.0036 214.445C53.0586 214.576 53.0869 214.717 53.0869 214.859Z" fill="#6097B2"/>
<path d="M39.6769 205.429C39.6913 205.578 39.6745 205.728 39.6276 205.869C39.5806 206.011 39.5045 206.141 39.4042 206.252C39.3039 206.362 39.1816 206.451 39.0452 206.511C38.9087 206.571 38.7612 206.603 38.6119 206.603C38.4627 206.603 38.3151 206.571 38.1787 206.511C38.0422 206.451 37.9199 206.362 37.8196 206.252C37.7193 206.141 37.6433 206.011 37.5963 205.869C37.5493 205.728 37.5325 205.578 37.5469 205.429C37.5726 205.165 37.6959 204.919 37.8928 204.74C38.0897 204.562 38.346 204.463 38.6119 204.463C38.8778 204.463 39.1342 204.562 39.3311 204.74C39.528 204.919 39.6513 205.165 39.6769 205.429Z" fill="#6097B2"/>
<path d="M77.4969 203.309C78.0879 203.309 78.5669 202.83 78.5669 202.239C78.5669 201.648 78.0879 201.169 77.4969 201.169C76.906 201.169 76.4269 201.648 76.4269 202.239C76.4269 202.83 76.906 203.309 77.4969 203.309Z" fill="#6097B2"/>
<path d="M99.5669 208.909C100.158 208.909 100.637 208.43 100.637 207.839C100.637 207.248 100.158 206.769 99.5669 206.769C98.976 206.769 98.4969 207.248 98.4969 207.839C98.4969 208.43 98.976 208.909 99.5669 208.909Z" fill="#6097B2"/>
<path d="M99.5669 177.459C99.5591 177.669 99.4897 177.872 99.3675 178.042C99.2452 178.213 99.0755 178.344 98.8794 178.419C98.6834 178.494 98.4696 178.509 98.2647 178.464C98.0599 178.418 97.873 178.313 97.7273 178.162C97.5817 178.011 97.4836 177.82 97.4455 177.614C97.4073 177.407 97.4307 177.194 97.5128 177.001C97.5948 176.808 97.7318 176.643 97.9068 176.527C98.0818 176.411 98.287 176.349 98.4969 176.349C98.6413 176.348 98.7844 176.376 98.9176 176.431C99.0507 176.487 99.1711 176.57 99.2713 176.673C99.3714 176.777 99.4494 176.901 99.5002 177.036C99.551 177.171 99.5737 177.315 99.5669 177.459Z" fill="#6097B2"/>
<path d="M112.397 179.689C112.399 179.901 112.338 180.109 112.221 180.287C112.105 180.464 111.939 180.603 111.743 180.685C111.548 180.768 111.333 180.79 111.124 180.75C110.916 180.71 110.725 180.609 110.574 180.46C110.423 180.31 110.32 180.12 110.278 179.912C110.236 179.704 110.257 179.488 110.337 179.292C110.418 179.096 110.555 178.928 110.731 178.81C110.908 178.692 111.115 178.629 111.327 178.629C111.609 178.629 111.88 178.741 112.08 178.939C112.28 179.138 112.394 179.407 112.397 179.689Z" fill="#6097B2"/>
<path d="M86.767 215.929C86.767 216.141 86.7042 216.348 86.5866 216.524C86.4691 216.7 86.3019 216.837 86.1064 216.918C85.9109 216.999 85.6958 217.02 85.4882 216.979C85.2807 216.937 85.09 216.835 84.9404 216.686C84.7907 216.536 84.6888 216.345 84.6475 216.138C84.6062 215.93 84.6274 215.715 84.7084 215.52C84.7894 215.324 84.9265 215.157 85.1025 215.04C85.2785 214.922 85.4853 214.859 85.697 214.859C85.8378 214.858 85.9776 214.885 86.108 214.938C86.2384 214.991 86.3569 215.07 86.4565 215.17C86.5562 215.269 86.6349 215.388 86.6882 215.518C86.7415 215.649 86.7683 215.788 86.767 215.929Z" fill="#6097B2"/>
<path d="M76.4269 235.989C77.0179 235.989 77.4969 235.51 77.4969 234.919C77.4969 234.328 77.0179 233.849 76.4269 233.849C75.836 233.849 75.3569 234.328 75.3569 234.919C75.3569 235.51 75.836 235.989 76.4269 235.989Z" fill="#6097B2"/>
<path d="M60.0469 239.029C60.6379 239.029 61.1169 238.55 61.1169 237.959C61.1169 237.368 60.6379 236.889 60.0469 236.889C59.456 236.889 58.9769 237.368 58.9769 237.959C58.9769 238.55 59.456 239.029 60.0469 239.029Z" fill="#6097B2"/>
<path d="M105.107 222.829C105.698 222.829 106.177 222.35 106.177 221.759C106.177 221.168 105.698 220.689 105.107 220.689C104.516 220.689 104.037 221.168 104.037 221.759C104.037 222.35 104.516 222.829 105.107 222.829Z" fill="#6097B2"/>
<path d="M91.4269 229.849C91.4269 230.061 91.3642 230.268 91.2466 230.444C91.129 230.62 90.9619 230.757 90.7664 230.838C90.5709 230.919 90.3557 230.94 90.1482 230.899C89.9406 230.857 89.75 230.756 89.6003 230.606C89.4507 230.456 89.3488 230.266 89.3075 230.058C89.2662 229.85 89.2874 229.635 89.3684 229.44C89.4494 229.244 89.5865 229.077 89.7625 228.96C89.9384 228.842 90.1453 228.779 90.3569 228.779C90.6407 228.779 90.9129 228.892 91.1135 229.093C91.3142 229.293 91.4269 229.566 91.4269 229.849Z" fill="#6097B2"/>
<path d="M69.2369 253.679C69.2389 253.891 69.1779 254.099 69.0615 254.276C68.9451 254.454 68.7787 254.592 68.5834 254.675C68.3881 254.757 68.1726 254.78 67.9644 254.74C67.7562 254.7 67.5646 254.599 67.4139 254.449C67.2633 254.3 67.1604 254.109 67.1183 253.902C67.0762 253.694 67.0968 253.478 67.1775 253.282C67.2581 253.086 67.3953 252.918 67.5715 252.8C67.7476 252.682 67.9549 252.619 68.1669 252.619C68.449 252.619 68.7196 252.731 68.92 252.929C69.1204 253.128 69.2343 253.397 69.2369 253.679Z" fill="#6097B2"/>
<path d="M84.6269 249.199C85.2179 249.199 85.6969 248.72 85.6969 248.129C85.6969 247.538 85.2179 247.059 84.6269 247.059C84.036 247.059 83.5569 247.538 83.5569 248.129C83.5569 248.72 84.036 249.199 84.6269 249.199Z" fill="#6097B2"/>
<path d="M100.487 242.909C101.078 242.909 101.557 242.43 101.557 241.839C101.557 241.248 101.078 240.769 100.487 240.769C99.896 240.769 99.4169 241.248 99.4169 241.839C99.4169 242.43 99.896 242.909 100.487 242.909Z" fill="#6097B2"/>
<path d="M94.4069 260.199C94.4069 260.411 94.3442 260.618 94.2266 260.794C94.109 260.97 93.9419 261.107 93.7464 261.188C93.5509 261.269 93.3357 261.29 93.1282 261.249C92.9206 261.208 92.7299 261.106 92.5803 260.956C92.4307 260.806 92.3288 260.616 92.2875 260.408C92.2462 260.201 92.2674 259.985 92.3484 259.79C92.4293 259.594 92.5665 259.427 92.7424 259.31C92.9184 259.192 93.1253 259.129 93.3369 259.129C93.6207 259.129 93.8928 259.242 94.0935 259.443C94.2942 259.643 94.4069 259.916 94.4069 260.199Z" fill="#6097B2"/>
<path d="M93.2369 316.409H75.7069C74.5569 313.139 76.7069 309.869 76.3169 306.989C75.7069 302.129 78.5369 304.809 78.5369 304.809C79.0369 299.589 86.3869 298.599 86.3069 300.929C86.1869 304.359 86.8469 306.479 87.8269 307.929C89.8269 310.779 93.0469 310.759 93.5969 312.809C93.6569 312.999 93.6969 313.199 93.7369 313.379C94.2769 315.909 93.2369 316.409 93.2369 316.409Z" fill="#164353"/>
<path d="M93.7369 313.349C90.1069 314.199 81.7369 313.099 81.3969 310.989C81.0569 308.879 85.5869 307.989 87.8269 307.899C89.8269 310.749 93.0469 310.729 93.5969 312.779C93.6569 312.969 93.6969 313.169 93.7369 313.349Z" fill="#205260"/>
<path d="M21.1669 180.609C19.3069 178.909 16.2769 181.719 16.2769 181.719C16.2769 181.719 17.9069 184.139 16.8469 185.119C15.7869 186.099 14.5769 183.859 12.4969 184.839C12.3207 184.924 12.1503 185.021 11.9869 185.129C10.3669 186.129 8.67693 188.129 7.31693 189.669L6.52693 190.519C4.93693 192.189 0.836931 193.169 0.0769306 188.729C-0.683069 184.289 4.30693 179.079 9.78693 174.289C15.2669 169.499 18.7869 172.349 18.7869 172.349C19.4176 173.34 19.8395 174.45 20.0269 175.609C20.0269 176.859 21.1369 177.479 21.7569 178.669C21.9169 179.008 21.9451 179.395 21.836 179.753C21.727 180.112 21.4885 180.417 21.1669 180.609Z" fill="#164353"/>
<path d="M11.9969 185.129C10.3769 186.129 8.6869 188.129 7.3269 189.669C5.2669 190.159 3.4269 190.009 3.1369 188.079C2.4369 183.419 11.7369 177.489 10.9969 180.769C10.8678 181.526 10.8897 182.301 11.0613 183.049C11.2329 183.798 11.5509 184.505 11.9969 185.129Z" fill="#205260"/>
<path d="M336.617 308.819C335.595 308.146 334.773 307.21 334.237 306.109C333.879 303.572 333.879 300.997 334.237 298.459C334.857 294.539 333.147 291.329 327.597 290.129C322.207 288.959 318.997 291.559 320.247 302.409C319.427 306.919 319.247 312.069 321.127 316.409H337.737C337.737 316.409 340.357 310.789 336.617 308.819Z" fill="#CFD8DC"/>
<path d="M351.187 250.349C350.85 258.025 348.764 265.523 345.087 272.269C338.867 283.579 331.177 299.099 331.177 299.099C331.177 299.099 326.057 304.099 322.807 295.819C322.807 295.819 325.097 266.999 330.377 256.449C335.657 245.899 351.187 250.349 351.187 250.349Z" fill="#FF8B66"/>
<path d="M430.857 215.089C430.857 215.089 440.747 256.699 447.037 267.679C447.037 267.679 445.597 272.269 438.777 273.679C438.777 273.679 417.247 242.039 415.867 228.679C414.487 215.319 430.857 215.089 430.857 215.089Z" fill="#FF8B66"/>
<path d="M435.637 224.879C433.007 231.219 412.637 231.559 412.637 231.559L411.087 229.269L410.677 228.669L407.497 223.989C407.497 223.989 373.807 190.989 367.247 193.719C367.053 193.806 366.868 193.913 366.697 194.039C362.187 197.259 361.767 214.909 356.437 244.519C355.84 247.368 355.004 250.161 353.937 252.869C353.837 253.109 353.747 253.339 353.657 253.569C353.167 254.819 352.827 255.569 352.827 255.569C332.267 263.899 325.477 247.439 325.477 247.439C325.477 247.439 325.727 246.959 326.077 246.199L326.337 245.639C327.417 243.269 329.137 239.149 329.117 236.969C329.117 234.589 329.097 232.293 329.057 230.079C329.057 229.879 329.057 229.689 329.057 229.499C329.057 222.379 329.057 216.199 329.057 210.829V210.349C329.057 208.009 329.117 205.819 329.157 203.779V203.199C329.337 193.839 329.637 187.589 329.957 183.429C329.957 183.239 329.957 183.039 329.957 182.859C330.527 175.859 331.127 175.169 331.127 175.169L327.007 146.529H371.997C371.997 146.529 378.747 153.289 387.507 162.219L388.057 162.759C391.227 165.989 394.657 169.499 398.107 173.069L398.507 173.479L402.507 177.659C402.667 177.829 402.827 178.009 402.997 178.169C407.497 182.849 411.877 187.459 415.617 191.489C415.747 191.619 415.877 191.749 415.997 191.889C421.117 197.429 424.997 201.889 426.357 203.889C429.606 209.22 432.245 214.899 434.227 220.819C434.307 221.019 434.367 221.199 434.437 221.389C435.237 223.519 435.637 224.879 435.637 224.879Z" fill="#8B383E"/>
<path d="M337.937 179.409C335.89 181.697 333.054 183.126 329.997 183.409C329.997 183.219 329.997 183.019 329.997 182.839C332.877 182.564 335.547 181.214 337.477 179.059C339.364 176.607 340.279 173.544 340.047 170.459L340.607 170.389C340.874 173.624 339.922 176.841 337.937 179.409Z" fill="#662C33"/>
<path d="M388.087 162.719H387.567C382.567 162.719 377.347 157.249 377.087 156.979L377.487 156.589C377.547 156.669 382.747 162.109 387.537 162.149L388.087 162.719Z" fill="#662C33"/>
<path d="M353.997 252.869C353.897 253.109 353.807 253.339 353.717 253.569C350.786 254.68 347.681 255.263 344.547 255.289C335.667 255.289 329.547 250.149 326.137 246.289L326.397 245.729C330.687 250.759 339.907 258.229 353.997 252.869Z" fill="#662C33"/>
<path d="M365.997 183.409C366.792 186.789 367.208 190.247 367.237 193.719C367.043 193.806 366.858 193.913 366.687 194.039C366.687 177.279 356.957 164.199 356.847 164.039L357.287 163.699C361.28 169.495 364.181 175.971 365.847 182.809C366.411 182.453 366.898 181.987 367.28 181.439C367.661 180.891 367.929 180.272 368.067 179.619C369.467 173.739 363.067 164.129 363.067 164.029L363.517 163.709C363.787 164.129 370.067 173.629 368.627 179.709C368.468 180.474 368.153 181.198 367.7 181.835C367.247 182.472 366.667 183.008 365.997 183.409Z" fill="#662C33"/>
<path d="M416.077 191.849C414.417 193.639 412.867 195.179 412.727 195.309L412.427 195.609L412.277 195.209C410.097 189.509 396.117 177.209 395.967 177.049L395.797 176.889L398.137 173.029L398.537 173.439L396.537 176.679C398.441 177.441 400.492 177.762 402.537 177.619C402.697 177.789 402.857 177.969 403.027 178.129C402.545 178.214 402.056 178.258 401.567 178.259C400.108 178.219 398.663 177.967 397.277 177.509C400.447 180.379 410.277 189.509 412.587 194.619C413.457 193.759 414.587 192.619 415.647 191.449C415.827 191.579 415.997 191.709 416.077 191.849Z" fill="#662C33"/>
<path d="M339.307 230.029H339.087C337.235 230.413 335.348 230.607 333.457 230.609C331.984 230.633 330.514 230.458 329.087 230.089C329.087 229.889 329.087 229.699 329.087 229.509C332.747 230.569 337.647 229.749 338.757 229.509L337.827 206.409C337.176 208.102 335.937 209.505 334.337 210.359C333.377 210.833 332.317 211.07 331.247 211.049C330.527 211.044 329.81 210.963 329.107 210.809V210.349C330.765 210.824 332.539 210.689 334.107 209.969C334.984 209.473 335.753 208.805 336.368 208.007C336.983 207.208 337.431 206.294 337.687 205.319C335.837 205.599 332.087 204.649 329.237 203.779V203.199C332.317 204.129 336.477 205.199 337.977 204.689L338.327 204.569L339.307 230.029Z" fill="#662C33"/>
<path d="M434.517 221.349C431.876 223.941 428.751 225.986 425.319 227.369C421.887 228.752 418.217 229.446 414.517 229.409C413.395 229.407 412.273 229.347 411.157 229.229L410.747 228.629C423.117 230.049 430.887 224.249 434.337 220.779C434.387 221.019 434.447 221.199 434.517 221.349Z" fill="#662C33"/>
<path d="M380.337 24.7592C380.337 24.7592 379.097 21.9092 373.887 21.9092C369.887 21.9092 368.327 24.1292 368.327 24.1292C365.917 31.1292 363.327 58.1292 362.407 59.0392C361.937 59.5292 332.107 79.6192 332.107 79.6192C348.297 79.9192 358.397 99.8692 358.397 99.8692C358.917 93.3192 377.197 67.3392 377.397 65.0192C377.767 60.6492 385.497 41.1292 380.337 24.7592Z" fill="#CE364C"/>
<path d="M328.557 165.529C328.557 165.529 328.407 171.149 330.227 171.529C341.456 174.37 353.317 173.312 363.867 168.529C380.867 160.789 383.867 155.059 378.867 150.799C373.867 146.539 328.557 165.529 328.557 165.529Z" fill="#CE364C"/>
<path d="M321.737 83.5092C321.737 83.5092 306.247 81.6692 297.367 85.5092C297.367 85.5092 294.887 96.5092 307.087 121.099C319.287 145.689 316.457 161.199 330.227 167.029C342.427 172.199 378.397 156.809 379.527 151.709C382.367 138.859 360.367 116.349 358.997 103.249C357.627 90.1492 344.827 70.5492 321.737 83.5092Z" fill="#F24052"/>
<path d="M297.367 85.5093C286.537 89.3593 274.367 101.509 274.367 107.369C274.367 113.229 284.517 115.489 284.517 115.489L301.177 107.349C301.177 107.349 305.957 104.019 302.917 94.3493C299.877 84.6793 297.367 85.5093 297.367 85.5093Z" fill="#CE364C"/>
<path d="M341.847 96.3493C338.387 96.3051 335.01 95.2823 332.107 93.3994C331.52 93.052 331.007 92.5909 330.6 92.0432C330.194 91.4954 329.9 90.872 329.737 90.2094C329.127 86.3694 332.867 84.4093 333.027 84.3293L333.527 85.3293C333.397 85.3993 330.347 87.0093 330.827 90.0493C331.126 91.086 331.814 91.9672 332.747 92.5094C335.925 94.5946 339.727 95.5134 343.507 95.1093C344.05 95.0766 344.579 94.9243 345.056 94.6632C345.533 94.4022 345.947 94.0389 346.267 93.5993C346.412 93.2876 346.493 92.95 346.505 92.6064C346.517 92.2629 346.46 91.9205 346.337 91.5993L347.337 91.1593C347.521 91.6309 347.606 92.1351 347.587 92.6407C347.568 93.1464 347.445 93.6429 347.227 94.0993C346.834 94.6955 346.31 95.1937 345.694 95.556C345.079 95.9182 344.389 96.1349 343.677 96.1893C343.073 96.2944 342.46 96.3479 341.847 96.3493Z" fill="#CFD8DC"/>
<path d="M328.117 108.059C325.717 108.059 321.747 107.059 321.187 103.129C320.977 101.421 320.998 99.6923 321.247 97.9893C321.487 95.8193 321.667 94.1093 320.407 92.0493C318.317 88.6693 315.477 88.4393 315.357 88.4293L315.427 87.3193C315.567 87.3193 318.947 87.5693 321.357 91.4693C322.817 93.8493 322.587 95.9193 322.357 98.1093C322.119 99.7193 322.099 101.354 322.297 102.969C322.897 107.219 328.297 106.969 328.537 106.969L328.597 108.079L328.117 108.059Z" fill="#CFD8DC"/>
<path d="M331.487 88.1292C331.487 88.1292 339.677 82.5592 337.727 76.5192C335.777 70.4792 309.417 70.8992 302.617 78.1192C295.817 85.3392 317.327 90.1192 317.327 90.1192C318.997 86.7692 329.637 86.3992 331.487 88.1292Z" fill="#CE364C"/>
<path d="M316.767 87.1893C312.877 85.8693 310.577 83.0693 311.407 79.8293C312.237 76.5893 328.947 76.4993 332.107 79.0893C335.267 81.6793 330.817 91.9593 316.767 87.1893Z" fill="#A02E44"/>
<path d="M314.917 78.0893C314.917 78.0893 318.347 83.9593 316.767 87.1893C316.767 87.1893 328.557 91.2593 328.557 84.6593C328.557 84.6593 326.337 79.7193 327.167 76.5193L314.917 78.0893Z" fill="#EF6E4B"/>
<path d="M310.997 72.9592C310.997 72.9592 305.207 63.6792 305.747 54.8192C306.017 50.3892 308.297 48.6492 308.297 48.6492C308.297 48.6492 306.457 46.0892 308.427 42.1792C308.427 42.1792 311.157 45.3392 320.727 44.3392C329.967 43.3392 330.887 49.9692 330.887 49.9692C337.487 50.9692 333.037 70.9192 328.427 72.9692L310.997 72.9592Z" fill="#FFB878"/>
<path d="M308.527 64.3493C308.527 64.3493 305.197 61.0293 304.787 64.9093C304.307 69.4093 308.397 71.2293 309.197 69.7993C309.997 68.3693 308.527 64.3493 308.527 64.3493Z" fill="#FF8B66"/>
<path d="M331.847 64.6293C331.847 64.6293 335.177 61.2993 335.587 65.1893C336.057 69.6893 331.967 71.4993 331.167 70.0693C330.367 68.6393 331.847 64.6293 331.847 64.6293Z" fill="#FF8B66"/>
<path d="M319.837 80.6892C312.447 80.6892 308.277 75.8692 308.277 61.3892C308.277 53.9292 312.077 49.3892 320.347 49.3892C328.617 49.3892 332.107 53.9692 332.107 61.3892C332.107 76.9492 327.467 80.6892 319.837 80.6892Z" fill="#FF8B66"/>
<path d="M329.667 66.5593C329.804 66.8945 329.834 67.2641 329.753 67.617C329.671 67.97 329.482 68.289 329.212 68.5299C328.941 68.7709 328.603 68.922 328.243 68.9624C327.883 69.0027 327.519 68.9304 327.202 68.7553C326.885 68.5802 326.63 68.311 326.472 67.9849C326.315 67.6587 326.262 67.2917 326.322 66.9344C326.382 66.5771 326.551 66.2472 326.806 65.9901C327.061 65.7331 327.39 65.5616 327.747 65.4993C328.142 65.3878 328.565 65.4366 328.925 65.635C329.284 65.8334 329.551 66.1655 329.667 66.5593Z" fill="#DB614D"/>
<path d="M314.467 66.9592C314.524 67.3172 314.469 67.6842 314.309 68.0094C314.148 68.3346 313.891 68.602 313.572 68.7747C313.253 68.9473 312.889 69.0167 312.529 68.9732C312.169 68.9297 311.831 68.7755 311.563 68.5318C311.294 68.2882 311.108 67.9672 311.03 67.6131C310.952 67.2591 310.986 66.8895 311.127 66.5555C311.268 66.2214 311.509 65.9394 311.817 65.7484C312.125 65.5574 312.485 65.4668 312.847 65.4892C313.255 65.4754 313.653 65.6211 313.955 65.8956C314.258 66.17 314.441 66.5516 314.467 66.9592Z" fill="#DB614D"/>
<path d="M326.407 58.7894C326.358 58.7997 326.307 58.7987 326.259 58.7866C326.21 58.7745 326.165 58.7515 326.127 58.7194C325.233 58.1626 324.164 57.956 323.127 58.1394C323.032 58.1545 322.935 58.133 322.855 58.0791C322.775 58.0253 322.719 57.9432 322.697 57.8494C322.688 57.8014 322.689 57.7523 322.7 57.7047C322.71 57.6571 322.73 57.612 322.758 57.5721C322.785 57.5321 322.821 57.4981 322.862 57.4718C322.903 57.4456 322.949 57.4278 322.997 57.4194C324.229 57.194 325.5 57.4518 326.547 58.1394C326.623 58.1986 326.672 58.285 326.685 58.3802C326.698 58.4754 326.674 58.5719 326.617 58.6494C326.567 58.7205 326.492 58.7704 326.407 58.7894Z" fill="#FFB878"/>
<path d="M312.267 58.8493C312.173 58.8329 312.088 58.7832 312.027 58.7093C311.965 58.6337 311.935 58.5365 311.944 58.439C311.954 58.3416 312.001 58.2518 312.077 58.1893C313.108 57.4807 314.368 57.1845 315.607 57.3593C315.704 57.3765 315.791 57.4311 315.849 57.5114C315.907 57.5917 315.931 57.6914 315.917 57.7894C315.9 57.8842 315.846 57.9686 315.768 58.0247C315.689 58.0807 315.592 58.1039 315.497 58.0894C314.465 57.948 313.417 58.1861 312.547 58.7594C312.509 58.7927 312.464 58.8179 312.416 58.8334C312.368 58.8488 312.317 58.8543 312.267 58.8493Z" fill="#FFB878"/>
<path d="M325.647 62.9593C325.647 63.8793 325.237 64.6293 324.727 64.6293C324.217 64.6293 323.797 63.8793 323.797 62.9593C323.797 62.0393 324.217 61.2993 324.727 61.2993C325.237 61.2993 325.647 62.0493 325.647 62.9593Z" fill="#1A4850"/>
<path d="M315.777 62.9593C315.777 63.8793 315.367 64.6293 314.857 64.6293C314.347 64.6293 313.927 63.8793 313.927 62.9593C313.927 62.0393 314.347 61.2993 314.857 61.2993C315.367 61.2993 315.777 62.0493 315.777 62.9593Z" fill="#1A4850"/>
<path d="M310.537 50.9493C316.734 52.8653 323.243 53.5682 329.707 53.0193C329.707 53.0193 332.107 56.0193 331.817 66.6093C331.817 66.6093 338.427 47.5393 319.127 47.5393C299.827 47.5393 308.527 66.1893 308.527 66.1893C308.527 66.1893 306.997 54.5193 310.537 50.9493Z" fill="#FFB878"/>
<path d="M320.297 67.8993L319.747 67.3393L321.207 65.8893C319.787 63.8893 319.797 59.2493 319.797 59.0393H320.587C320.587 59.0893 320.587 64.0393 322.027 65.6393L322.277 65.9193L320.297 67.8993Z" fill="#DB614D"/>
<path d="M315.397 70.3492C315.397 70.3492 322.667 70.6492 326.337 69.6792C326.437 70.3844 326.381 71.103 326.173 71.7843C325.965 72.4656 325.61 73.0929 325.133 73.6221C324.657 74.1513 324.069 74.5695 323.414 74.8472C322.758 75.1249 322.049 75.2553 321.337 75.2292C315.397 75.4792 315.397 70.3492 315.397 70.3492Z" fill="#1A4850"/>
<path d="M346.477 90.3493C347.857 90.0893 347.727 93.7193 346.477 92.6693C345.227 91.6193 345.087 90.5693 346.477 90.3493Z" fill="#CFD8DC"/>
<path d="M329.737 107.909C329.527 109.299 326.137 107.979 327.547 107.149C328.957 106.319 329.997 106.509 329.737 107.909Z" fill="#CFD8DC"/>
<path d="M314.837 115.489C314.837 115.489 312.637 121.139 312.757 124.329C312.877 127.519 313.927 127.109 313.927 127.109C313.414 127.33 312.964 127.674 312.615 128.11C312.267 128.546 312.03 129.061 311.927 129.609C311.607 131.449 316.257 132.799 316.577 132.799C316.897 132.799 320.167 131.549 320.167 131.549L320.857 121.099L317.957 119.279L314.837 115.489Z" fill="#EF6E4B"/>
<path d="M316.597 114.759C318.55 115.949 320.408 117.286 322.157 118.759C323.717 120.289 322.827 132.079 322.157 132.639C321.487 133.199 316.377 134.339 315.397 133.699C314.417 133.059 315.777 129.589 315.777 129.589C315.777 129.589 318.347 129.029 317.977 129.999C317.757 130.583 317.757 131.226 317.977 131.809L318.977 131.389C318.693 129.876 318.693 128.323 318.977 126.809C319.497 124.869 315.367 122.809 314.867 119.259C314.367 115.709 316.597 114.759 316.597 114.759Z" fill="#FF8B66"/>
<path d="M274.997 109.009C273.717 103.459 279.217 101.499 286.877 102.439C295.757 103.539 313.997 105.859 317.967 115.439C317.967 115.439 319.257 119.229 315.907 121.049C306.547 126.199 277.427 119.429 274.997 109.009Z" fill="#CE364C"/>
<path d="M302.797 105.349C302.797 105.349 292.207 100.959 286.937 100.509C281.667 100.059 294.227 104.649 302.797 105.349Z" fill="#A02E44"/>
<path d="M382.147 10.0293C381.288 11.4352 380.578 12.9265 380.027 14.4793C379.467 17.4793 379.147 19.0993 378.107 20.4793C377.067 21.8593 377.617 24.2493 377.617 24.2493C377.617 24.2493 373.617 26.3293 370.177 23.7593C370.177 23.7593 370.537 21.3793 370.177 20.6993C369.477 19.3393 367.237 18.6193 366.467 15.8893C365.752 13.8128 364.72 11.8597 363.407 10.0993C363.407 10.0993 364.057 8.66928 365.257 9.53928C366.457 10.4093 367.257 12.6093 367.887 12.8293C368.017 12.8724 368.151 12.9026 368.287 12.9193C368.519 12.9592 368.757 12.9486 368.985 12.8882C369.213 12.8278 369.425 12.719 369.607 12.5693C369.635 12.5553 369.659 12.5347 369.677 12.5093C370.777 11.2293 371.037 7.50927 370.987 5.79927C370.927 3.46927 370.987 0.249273 372.437 0.799273C373.887 1.34927 372.557 2.64927 373.657 7.79927L374.187 7.85928C374.287 8.22928 375.267 4.73928 375.497 1.46928C375.667 -0.790721 377.147 0.0492798 377.497 0.75928C377.847 1.46928 377.327 3.75927 377.227 5.33927C377.147 6.41927 377.057 7.53928 377.007 8.20928L377.627 8.54927C379.867 4.63927 379.107 3.01927 380.417 2.93927C381.727 2.85927 381.247 6.15928 380.547 7.41928C380.163 8.31322 379.888 9.24989 379.727 10.2093C382.027 7.54928 381.727 6.20928 382.827 6.32928C383.927 6.44928 382.997 9.11928 382.147 10.0293Z" fill="#FF8B66"/>
<path d="M372.217 16.1493C371.447 14.0093 368.667 13.0293 368.327 12.9193C368.559 12.9593 368.797 12.9487 369.025 12.8883C369.253 12.8279 369.465 12.7191 369.647 12.5693C370.387 12.8362 371.029 13.3211 371.488 13.9603C371.947 14.5994 372.201 15.3627 372.217 16.1493Z" fill="#EF6E4B"/>
<path d="M323.997 300.119C323.997 300.119 322.467 296.989 323.837 295.639C325.207 294.289 326.837 296.789 329.157 296.229C331.477 295.669 332.037 294.019 332.647 296.279C333.257 298.539 332.507 305.669 323.997 300.119Z" fill="#CFD8DC"/>
<path d="M332.797 299.979C332.797 299.979 326.517 302.209 323.257 299.979L324.087 302.699C324.087 302.699 330.917 303.429 331.857 301.699L332.797 299.979Z" fill="#ADBEC4"/>
<path d="M332.707 303.349C332.707 303.349 326.957 302.549 324.187 303.979V305.349C324.187 305.349 331.687 303.599 334.107 305.349L332.707 303.349Z" fill="#ADBEC4"/>
<path d="M323.907 308.139C324.335 307.276 324.993 306.548 325.808 306.035C326.623 305.522 327.564 305.243 328.527 305.229C330.621 305.113 332.691 305.724 334.387 306.959C334.387 306.959 328.837 304.669 323.907 308.139Z" fill="#ADBEC4"/>
<path d="M471.997 270.349C465.599 279.05 456.382 285.263 445.917 287.929C441.557 284.439 441.447 280.309 441.447 280.309C441.447 280.309 437.237 276.559 436.677 274.759C436.117 272.959 440.287 267.539 442.787 268.099C443.465 268.282 444.099 268.604 444.646 269.045C445.193 269.486 445.643 270.035 445.967 270.659C443.897 266.009 445.557 264.389 448.487 264.789C451.417 265.189 448.647 265.919 450.837 268.379C450.993 268.548 451.168 268.698 451.357 268.829C451.784 269.119 452.268 269.313 452.777 269.399C453.295 269.488 453.822 269.515 454.347 269.479C454.637 269.479 454.937 269.429 455.237 269.389C455.825 269.287 456.407 269.147 456.977 268.969C457.951 268.658 458.892 268.253 459.787 267.759C463.607 265.669 465.217 264.959 468.127 265.699C471.037 266.439 470.977 268.629 470.977 268.629L471.997 270.349Z" fill="#CFD8DC"/>
<path d="M471.997 270.349C465.6 279.05 456.382 285.263 445.917 287.929C453.587 284.629 460.637 280.309 465.457 274.989C470.277 269.669 471.997 270.349 471.997 270.349Z" fill="#ADBEC4"/>
<path d="M451.357 268.839C451.784 269.129 452.268 269.323 452.777 269.409C451.98 269.534 451.244 269.913 450.68 270.489C450.116 271.066 449.754 271.81 449.647 272.609L448.407 272.209C448.677 269.079 451.147 268.849 451.357 268.839Z" fill="#ADBEC4"/>
<path d="M453.327 272.919H452.027C451.808 272.316 451.762 271.664 451.894 271.037C452.027 270.409 452.333 269.832 452.777 269.369C453.295 269.458 453.822 269.485 454.347 269.449C453.895 269.892 453.564 270.444 453.385 271.051C453.207 271.659 453.187 272.302 453.327 272.919Z" fill="#ADBEC4"/>
<path d="M456.537 272.209L455.247 272.369C455.028 271.899 454.914 271.387 454.914 270.869C454.914 270.351 455.028 269.839 455.247 269.369C455.835 269.267 456.417 269.127 456.987 268.949C456.669 269.423 456.463 269.962 456.385 270.527C456.307 271.092 456.359 271.667 456.537 272.209Z" fill="#ADBEC4"/>
<path d="M332.907 135.349C332.907 135.349 335.767 150.729 329.997 156.859C324.227 162.989 328.047 157.959 329.767 150.049C331.487 142.139 330.177 133.769 332.907 135.349Z" fill="#CE364C"/>
<path d="M359.517 128.429C359.517 128.429 368.607 131.429 373.357 139.809C373.357 139.809 366.997 126.139 359.517 128.429Z" fill="#CE364C"/>
<path d="M123.467 14.1192C125.088 14.4265 126.673 14.8989 128.197 15.5292C130.767 17.1192 132.197 17.9792 133.917 18.1292C135.637 18.2792 136.327 21.2092 136.327 21.2092C136.327 21.2092 143.047 22.6792 143.427 18.4392C143.427 18.4392 139.667 13.1192 139.427 12.4392C138.887 11.0092 139.857 8.86917 138.347 6.43917C137.294 4.50805 136.542 2.42739 136.117 0.269175C136.117 0.269175 134.617 -0.190825 134.457 1.26917C134.297 2.72917 135.397 4.78918 135.127 5.41918C135.072 5.5455 135.005 5.66609 134.927 5.77918C134.805 5.98097 134.639 6.15297 134.442 6.28269C134.244 6.41242 134.021 6.49662 133.787 6.52918C133.754 6.53986 133.719 6.53986 133.687 6.52918C131.997 6.52918 129.047 4.15918 127.837 2.99918C126.157 1.38918 123.707 -0.710823 123.157 0.709177C122.607 2.12918 124.437 2.03917 127.507 6.29917L127.207 6.73918C127.407 7.05918 124.207 5.44918 121.587 3.41918C119.807 2.02918 119.427 3.67918 119.737 4.41918C120.047 5.15918 121.997 6.34918 123.277 7.34918C124.127 8.01918 125.017 8.69918 125.547 9.10918L125.387 9.79917C120.987 8.79917 120.297 7.17918 119.387 8.09918C118.477 9.01918 121.217 10.8792 122.617 11.1992C123.536 11.5197 124.416 11.9459 125.237 12.4692C121.727 12.3892 120.867 11.2692 120.237 12.1592C119.607 13.0492 122.257 14.0992 123.467 14.1192Z" fill="#FF8B66"/>
<path d="M134.667 10.8693C133.597 8.86932 134.737 6.13933 134.887 5.80933C134.764 6.01112 134.599 6.18312 134.401 6.31284C134.204 6.44257 133.981 6.52677 133.747 6.55933C133.449 7.28695 133.378 8.08743 133.542 8.85629C133.706 9.62515 134.098 10.3267 134.667 10.8693Z" fill="#EF6E4B"/>
<path d="M321.327 14.1192C319.709 14.426 318.128 14.8985 316.607 15.5292C314.027 17.1192 312.607 17.9792 310.877 18.1292C309.147 18.2792 308.477 21.2092 308.477 21.2092C308.477 21.2092 301.747 22.6792 301.367 18.4392C301.367 18.4392 305.127 13.1192 305.367 12.4392C305.907 11.0092 304.937 8.86917 306.447 6.43917C307.506 4.50974 308.262 2.42867 308.687 0.269175C308.687 0.269175 310.177 -0.190825 310.337 1.26917C310.497 2.72917 309.397 4.78918 309.667 5.41918C309.721 5.54772 309.792 5.66872 309.877 5.77918C310 5.98004 310.167 6.15133 310.364 6.28092C310.561 6.41052 310.784 6.49527 311.017 6.52918C311.049 6.53986 311.084 6.53986 311.117 6.52918C312.807 6.52918 315.757 4.15918 316.967 2.99918C318.657 1.38918 321.097 -0.710823 321.647 0.709177C322.197 2.12918 320.367 2.03917 317.297 6.29917L317.607 6.73918C317.397 7.05918 320.607 5.44918 323.217 3.41918C325.007 2.02918 325.377 3.67918 325.067 4.41918C324.757 5.15918 322.797 6.34918 321.517 7.34918C320.667 8.01918 319.777 8.69918 319.247 9.10918L319.407 9.79917C323.817 8.79917 324.497 7.17918 325.407 8.09918C326.317 9.01918 323.577 10.8792 322.177 11.1992C321.261 11.5201 320.385 11.9463 319.567 12.4692C323.077 12.3892 323.927 11.2692 324.517 12.1592C325.107 13.0492 322.537 14.0992 321.327 14.1192Z" fill="#FF8B66"/>
<path d="M310.127 10.8693C311.197 8.86932 310.057 6.13933 309.907 5.80933C310.03 6.01019 310.197 6.18148 310.394 6.31108C310.591 6.44068 310.814 6.52542 311.047 6.55933C311.345 7.28695 311.416 8.08743 311.252 8.85629C311.088 9.62515 310.696 10.3267 310.127 10.8693Z" fill="#EF6E4B"/>
<path d="M262.227 217.959L249.307 137.959L223.437 140.849L197.567 137.959L184.657 217.959L178.447 295.539C178.447 295.539 180.447 301.969 193.327 297.539C193.327 297.539 202.897 225.539 204.327 223.999C205.757 222.459 221.017 175.409 221.017 175.409H225.767C225.767 175.409 240.967 222.409 242.447 223.999C243.927 225.589 253.507 297.539 253.507 297.539C266.407 301.979 268.387 295.539 268.387 295.539L262.227 217.959Z" fill="#0E3944"/>
<path d="M215.287 60.5093C216.927 62.0993 224.967 64.9693 229.207 60.5093L232.087 63.3393C232.087 63.3393 228.807 71.0493 223.087 71.3393C217.367 71.6293 213.167 64.4793 213.167 64.4793L215.287 60.5093Z" fill="#0C476B"/>
<path d="M238.057 59.6392C247.677 55.4992 278.767 44.4792 278.767 44.4792C278.767 44.4792 299.667 18.2992 303.927 14.4192C303.927 14.4192 308.557 15.2492 309.927 21.0092C309.927 21.0092 296.467 49.8192 289.157 58.0692C281.847 66.3192 244.797 84.1592 244.797 84.1592L238.057 59.6392Z" fill="#0C476B"/>
<path d="M204.377 59.0392C207.247 57.2292 221.617 66.8492 221.617 66.8492C221.617 66.8492 240.297 56.9292 244.687 58.8492C244.687 58.8492 248.637 64.1392 250.227 77.7292C251.817 91.3192 251.917 147.269 251.917 147.269C242.35 150.258 232.38 151.755 222.357 151.709C202.997 151.709 192.567 146.159 192.567 146.159C192.567 146.159 189.117 68.6992 204.377 59.0392Z" fill="#FFB878"/>
<path d="M216.047 57.5894C216.047 57.5894 218.117 64.0994 216.047 66.5894C216.047 66.5894 218.197 71.0993 222.047 71.2993C226.517 71.5293 228.047 66.5894 228.047 66.5894C228.047 66.5894 225.687 60.2994 228.047 58.0894L216.047 57.5894Z" fill="#EF6E4B"/>
<path d="M210.887 51.1793C210.887 51.1793 206.537 42.7993 207.397 33.8393C208.257 24.8793 221.757 22.8393 230.857 27.2293C230.857 27.2293 228.157 24.5893 229.207 23.8593C230.257 23.1293 232.087 27.8593 232.087 27.8593C232.087 27.8593 234.957 26.9793 235.397 27.8593C235.837 28.7393 232.457 29.2193 232.457 29.2193C232.457 29.2193 238.327 32.4793 232.847 49.7993L210.887 51.1793Z" fill="#8B383E"/>
<path d="M210.237 45.8793C210.237 45.8793 206.987 42.6393 206.587 46.4193C206.127 50.8093 210.117 52.5793 210.887 51.1793C211.657 49.7793 210.237 45.8793 210.237 45.8793Z" fill="#FF8B66"/>
<path d="M232.997 46.0992C232.997 46.0992 236.237 42.8592 236.637 46.6492C237.107 51.0392 233.117 52.8092 232.337 51.4092C231.557 50.0092 232.997 46.0992 232.997 46.0992Z" fill="#FF8B66"/>
<path d="M221.267 61.7692C214.057 61.7692 209.987 57.0692 209.987 42.9492C209.987 35.6692 213.697 31.1992 221.767 31.1992C229.837 31.1992 233.237 35.6692 233.237 42.9492C233.237 58.1192 228.707 61.7692 221.267 61.7692Z" fill="#FF8B66"/>
<path d="M230.847 47.9893C230.824 48.374 230.672 48.7399 230.415 49.0274C230.159 49.3149 229.812 49.5073 229.433 49.5733C229.053 49.6393 228.662 49.575 228.323 49.391C227.985 49.2069 227.718 48.9138 227.567 48.5593C227.548 48.1615 227.684 47.7719 227.947 47.4731C228.211 47.1744 228.58 46.99 228.977 46.9593C229.361 46.8507 229.773 46.8979 230.123 47.0907C230.473 47.2835 230.733 47.6063 230.847 47.9893Z" fill="#DB614D"/>
<path d="M215.997 48.3494C216.05 48.6973 215.994 49.053 215.836 49.3676C215.678 49.6822 215.427 49.9401 215.116 50.1057C214.806 50.2714 214.452 50.3365 214.103 50.2923C213.753 50.248 213.427 50.0965 213.167 49.8586C212.908 49.6207 212.729 49.3082 212.655 48.9642C212.58 48.6202 212.615 48.2617 212.753 47.938C212.891 47.6144 213.127 47.3416 213.426 47.1574C213.726 46.9731 214.076 46.8865 214.427 46.9094C214.825 46.8957 215.213 47.039 215.506 47.3083C215.8 47.5776 215.976 47.9515 215.997 48.3494Z" fill="#DB614D"/>
<path d="M227.557 40.6593C227.508 40.6594 227.46 40.6498 227.416 40.6309C227.371 40.612 227.331 40.5842 227.297 40.5493C226.527 39.8821 225.536 39.5256 224.517 39.5493C224.422 39.5494 224.331 39.5132 224.262 39.4481C224.193 39.383 224.152 39.2939 224.147 39.1993C224.146 39.152 224.154 39.105 224.17 39.0608C224.187 39.0166 224.213 38.9761 224.245 38.9418C224.278 38.9074 224.317 38.8798 224.36 38.8605C224.403 38.8412 224.45 38.8306 224.497 38.8293C225.718 38.7996 226.905 39.2357 227.817 40.0493C227.882 40.1181 227.919 40.2094 227.919 40.3043C227.919 40.3992 227.882 40.4905 227.817 40.5593C227.783 40.5929 227.742 40.6191 227.697 40.6363C227.653 40.6535 227.605 40.6613 227.557 40.6593Z" fill="#8B383E"/>
<path d="M213.997 40.6593C213.951 40.66 213.905 40.6515 213.862 40.6343C213.819 40.6172 213.78 40.5917 213.747 40.5593C213.713 40.5259 213.687 40.4861 213.669 40.4424C213.65 40.3986 213.641 40.3517 213.641 40.3043C213.641 40.2569 213.65 40.21 213.669 40.1663C213.687 40.1225 213.713 40.0828 213.747 40.0493C214.658 39.2357 215.845 38.7996 217.067 38.8293C217.114 38.8306 217.16 38.8412 217.203 38.8607C217.245 38.8801 217.284 38.9079 217.315 38.9424C217.347 38.9769 217.371 39.0174 217.387 39.0615C217.403 39.1057 217.41 39.1525 217.407 39.1993C217.402 39.2939 217.361 39.383 217.292 39.4481C217.223 39.5132 217.132 39.5494 217.037 39.5493C216.022 39.5281 215.035 39.8844 214.267 40.5493C214.232 40.5855 214.19 40.6139 214.144 40.6329C214.097 40.6518 214.047 40.6608 213.997 40.6593Z" fill="#8B383E"/>
<path d="M226.927 44.4794C226.927 45.3794 226.527 46.0994 226.027 46.0994C225.527 46.0994 225.127 45.3794 225.127 44.4794C225.127 43.5794 225.537 42.8594 226.027 42.8594C226.517 42.8594 226.927 43.5894 226.927 44.4794Z" fill="#1A4850"/>
<path d="M217.307 44.4794C217.307 45.3794 216.907 46.0994 216.407 46.0994C215.907 46.0994 215.507 45.3794 215.507 44.4794C215.507 43.5794 215.917 42.8594 216.407 42.8594C216.897 42.8594 217.307 43.5894 217.307 44.4794Z" fill="#1A4850"/>
<path d="M217.307 54.0593C217.307 54.0593 223.667 54.8793 226.927 53.3093C226.927 53.3093 225.087 57.6293 221.617 57.2393C220.669 57.1798 219.758 56.8482 218.994 56.2841C218.229 55.7201 217.644 54.9477 217.307 54.0593Z" fill="#1A4850"/>
<path d="M232.487 47.6993C232.487 47.6993 232.257 39.8693 229.207 33.8393C229.207 33.8393 223.827 36.3293 222.647 35.7393C221.467 35.1493 223.777 33.8393 223.777 33.8393C223.777 33.8393 214.897 36.7693 214.367 36.1793C213.837 35.5893 217.307 33.8393 217.307 33.8393L211.777 35.7393C211.777 35.7393 210.077 42.7893 210.777 47.7393C210.777 47.7393 208.397 43.6393 208.107 40.8093C207.817 37.9793 209.057 29.9093 217.377 29.3293C225.697 28.7493 230.377 30.6293 232.447 34.4493C234.517 38.2693 234.267 42.9393 232.487 47.6993Z" fill="#8B383E"/>
<path d="M222.517 51.7894C221.969 51.7778 221.425 51.6971 220.897 51.5493L221.097 50.8194C221.857 51.0194 223.037 51.1494 223.297 50.8194C223.387 50.7194 223.297 50.4694 223.197 50.1494C222.197 47.9294 221.937 42.3294 221.927 42.0894H222.697C222.697 42.1494 222.917 47.7794 223.887 49.8493C224.039 50.0698 224.121 50.3314 224.121 50.5993C224.121 50.8673 224.039 51.1289 223.887 51.3493C223.703 51.5162 223.486 51.6417 223.25 51.7176C223.013 51.7935 222.763 51.818 222.517 51.7894Z" fill="#DB614D"/>
<path d="M230.487 62.5692C230.487 62.5692 243.487 103.049 244.777 135.989C244.777 135.989 249.477 137.279 254.777 130.069C260.077 122.859 256.927 65.6892 246.777 56.1692C246.777 56.1692 242.167 55.1192 230.487 62.5692Z" fill="#105E99"/>
<path d="M232.617 69.6493C232.617 69.6493 234.947 64.2293 233.917 60.5093C232.887 56.7893 229.207 60.5093 229.207 60.5093C229.207 60.5093 230.687 66.5993 232.617 69.6493Z" fill="#0C476B"/>
<path d="M206.447 59.6392C196.817 55.4992 165.737 44.4792 165.737 44.4792C165.737 44.4792 144.737 17.5392 140.517 13.6492C138.931 14.633 137.596 15.9732 136.619 17.5633C135.641 19.1535 135.048 20.9497 134.887 22.8092C134.887 22.8092 148.047 49.8092 155.367 58.0692C162.687 66.3292 199.727 84.1592 199.727 84.1592L206.447 59.6392Z" fill="#0C476B"/>
<path d="M213.997 62.5692C213.997 62.5692 200.997 103.049 199.717 135.989C199.717 135.989 195.007 137.279 189.717 130.069C184.427 122.859 187.577 65.6892 197.717 56.1692C197.727 56.1692 202.337 55.1192 213.997 62.5692Z" fill="#105E99"/>
<path d="M211.887 69.6493C211.887 69.6493 209.547 64.2293 210.587 60.5093C211.627 56.7893 215.287 60.5093 215.287 60.5093C215.287 60.5093 213.807 66.5993 211.887 69.6493Z" fill="#0C476B"/>
<path d="M279.937 316.409H254.047C252.237 306.109 255.117 295.809 255.117 295.809L266.957 293.809C268.037 300.309 269.337 302.879 271.127 304.199C272.437 305.199 273.997 305.469 275.947 306.139C276.853 306.413 277.685 306.891 278.378 307.536C279.071 308.181 279.608 308.975 279.947 309.859C280.609 311.993 280.605 314.278 279.937 316.409Z" fill="#662C33"/>
<path d="M279.997 309.829C273.617 310.629 259.597 311.999 260.447 308.299C261.157 305.209 267.077 304.379 271.157 304.169C272.467 305.169 274.027 305.439 275.977 306.109C276.887 306.381 277.722 306.857 278.419 307.502C279.116 308.147 279.656 308.943 279.997 309.829Z" fill="#8B383E"/>
<path d="M193.227 316.409H167.337C166.834 314.793 166.68 313.089 166.887 311.409C167.023 310.19 167.513 309.038 168.297 308.094C169.081 307.15 170.124 306.457 171.297 306.099C173.537 305.329 175.297 305.039 176.667 303.719C178.037 302.399 179.347 299.609 180.317 293.769L192.147 295.769C192.147 295.769 194.997 306.109 193.227 316.409Z" fill="#662C33"/>
<path d="M166.887 311.419C167.023 310.2 167.513 309.048 168.297 308.104C169.081 307.16 170.124 306.467 171.297 306.109C173.537 305.339 175.297 305.049 176.667 303.729C179.947 304.729 184.527 306.589 185.957 309.399C187.927 313.249 172.797 312.639 166.887 311.419Z" fill="#8B383E"/>
<path d="M379.107 314.549C379.11 315.171 379.073 315.792 378.997 316.409H347.537C347.537 315.779 347.537 315.159 347.537 314.549C347.832 309.317 348.841 304.149 350.537 299.189L358.397 295.809C358.785 299.082 360.44 302.072 363.007 304.139C363.569 304.579 364.172 304.964 364.807 305.289C365.097 305.449 365.377 305.589 365.677 305.719C366.326 306.014 366.994 306.265 367.677 306.469C370.156 307.103 372.68 307.544 375.227 307.789C378.597 308.349 379.107 312.189 379.107 314.549Z" fill="#164353"/>
<path d="M379.107 314.549C379.11 315.171 379.073 315.792 378.997 316.409H347.537C347.537 315.779 347.537 315.159 347.537 314.549H379.107Z" fill="#225866"/>
<path d="M364.807 305.289L360.437 306.689L359.517 305.089L363.007 304.139C363.569 304.579 364.172 304.964 364.807 305.289Z" fill="#225866"/>
<path d="M367.687 306.469L364.747 308.419L362.937 307.709L365.677 305.709C366.329 306.008 367 306.262 367.687 306.469Z" fill="#225866"/>
<path d="M258.927 314.549C258.882 315.181 258.764 315.805 258.577 316.409H237.627C237.364 315.812 237.167 315.189 237.037 314.549C234.967 304.549 248.897 292.259 248.897 292.259L253.307 298.149C253.307 298.149 252.797 307.589 256.547 309.559C257.414 310.04 258.109 310.779 258.536 311.673C258.962 312.568 259.099 313.573 258.927 314.549Z" fill="#164353"/>
<path d="M236.997 314.549H258.887C258.842 315.181 258.725 315.805 258.537 316.409H237.627C237.351 315.814 237.139 315.19 236.997 314.549Z" fill="#225866"/>
<path d="M255.587 308.799C255.587 308.799 246.757 306.799 242.737 309.399V307.939C242.737 307.939 250.157 304.349 255.587 308.799Z" fill="#225866"/>
<path d="M253.837 306.559C253.837 306.559 248.197 303.989 242.737 306.559L243.357 305.089C243.357 305.089 249.887 302.629 253.837 306.559Z" fill="#225866"/>
<path d="M369.607 225.419C369.607 233.849 362.137 302.549 362.137 302.549C357.631 302.995 353.084 302.738 348.657 301.789C346.607 266.979 346.407 237.029 346.407 237.029L310.547 210.149L310.457 210.089C310.457 210.089 310.327 210.699 310.077 211.789C308.307 219.669 300.787 252.689 297.657 260.249C294.087 268.859 255.127 305.089 255.127 305.089C247.887 304.089 241.747 298.849 241.747 298.849C255.747 275.649 274.807 252.379 274.807 252.379C276.297 244.019 277.357 225.379 277.997 211.519V210.879C278.417 201.459 278.627 194.359 278.627 194.359L272.057 180.879L313.817 165.529L323.177 177.529C323.177 177.529 325.317 179.529 328.687 182.699L329.157 183.129C341.717 194.929 369.607 221.649 369.607 225.419Z" fill="#8BBDDB"/>
<path d="M277.997 211.519V210.879C286.787 206.099 285.317 198.489 285.287 198.409L285.837 198.299C285.887 198.349 287.467 206.559 277.997 211.519Z" fill="#6097B2"/>
<path d="M309.897 204.769C310.218 206.549 310.435 208.345 310.547 210.149L310.457 210.089C310.457 210.089 310.327 210.699 310.077 211.789C309.687 198.729 304.307 191.009 304.237 190.919L304.697 190.599C307.247 194.744 308.976 199.341 309.787 204.139C316.137 198.499 309.927 186.939 309.857 186.829L310.347 186.559C310.417 186.679 316.997 198.919 309.897 204.769Z" fill="#6097B2"/>
<path d="M329.187 183.109C328.908 183.208 328.613 183.256 328.317 183.249C325.237 183.249 320.077 178.949 319.837 178.739L320.197 178.309C321.877 179.739 326.547 183.139 328.757 182.659L329.187 183.109Z" fill="#6097B2"/>
<path d="M274.997 109.009C274.997 109.009 287.697 107.009 294.067 111.009C300.437 115.009 308.787 125.659 308.787 125.659C308.787 125.659 298.867 126.969 297.787 133.709C297.757 133.719 290.547 116.549 274.997 109.009Z" fill="#ADBEC4"/>
<path d="M255.897 115.629C250.527 118.539 241.547 129.439 241.137 136.149C240.747 142.689 245.587 148.709 248.857 153.819C259.047 169.819 269.787 183.879 274.347 202.599C274.347 202.719 297.657 211.959 324.987 179.109C324.987 179.109 309.547 158.329 304.207 140.639C302.037 133.439 299.827 125.789 295.657 119.449C293.468 116.014 290.394 113.232 286.759 111.395C283.124 109.558 279.061 108.734 274.997 109.009C268.087 109.569 261.197 112.769 255.897 115.629Z" fill="#CFD8DC"/>
<path d="M253.647 108.939C253.647 108.939 257.087 114.809 255.497 118.039C255.497 118.039 267.287 122.109 267.287 115.509C267.287 115.509 265.067 110.569 265.907 107.369L253.647 108.939Z" fill="#EF6E4B"/>
<path d="M279.847 149.149C279.847 149.149 273.287 151.009 271.637 153.329C269.987 155.649 268.507 160.859 268.507 160.859H279.847L281.987 156.939L284.477 151.709L279.847 149.149Z" fill="#EF6E4B"/>
<path d="M268.997 102.349C268.997 102.349 273.607 100.419 270.627 86.5694C268.627 77.3894 265.807 76.0193 263.967 75.9393C263.967 75.9393 261.717 72.5494 253.967 74.1794C251.271 74.644 248.762 75.8627 246.73 77.6944C244.699 79.5262 243.227 81.8959 242.487 84.5293C240.487 90.7893 244.487 104.219 249.597 105.529L268.997 102.349Z" fill="#164353"/>
<path d="M270.097 93.0293C270.097 93.0293 272.997 89.0293 274.097 92.9693C275.367 97.5893 271.417 100.179 270.337 98.8193C269.257 97.4593 270.097 93.0293 270.097 93.0293Z" fill="#FF8B66"/>
<path d="M245.817 97.2892C245.817 97.2892 241.817 94.3892 242.007 98.5192C242.287 103.289 246.867 104.519 247.447 102.849C248.027 101.179 245.817 97.2892 245.817 97.2892Z" fill="#FF8B66"/>
<path d="M261.107 111.979C268.817 110.709 272.337 104.979 269.837 89.8593C268.557 82.0693 263.837 77.9493 255.177 79.3693C246.517 80.7893 243.687 86.1693 244.977 93.9593C247.657 110.189 253.147 113.349 261.107 111.979Z" fill="#FF8B66"/>
<path d="M248.417 98.9292C248.33 99.3024 248.361 99.6934 248.506 100.048C248.651 100.403 248.902 100.704 249.225 100.91C249.548 101.116 249.928 101.216 250.31 101.197C250.693 101.178 251.06 101.041 251.362 100.804C251.663 100.567 251.883 100.243 251.992 99.8753C252.101 99.508 252.093 99.1158 251.97 98.7531C251.847 98.3903 251.613 98.0749 251.303 97.8503C250.993 97.6257 250.62 97.503 250.237 97.4992C249.807 97.4537 249.376 97.5777 249.037 97.8447C248.697 98.1118 248.474 98.5008 248.417 98.9292Z" fill="#DB614D"/>
<path d="M264.337 96.7294C264.339 97.113 264.46 97.4866 264.683 97.7984C264.906 98.1103 265.221 98.345 265.584 98.47C265.946 98.5951 266.339 98.6043 266.707 98.4964C267.075 98.3886 267.401 98.1689 267.639 97.8679C267.876 97.5669 268.015 97.1995 268.034 96.8164C268.054 96.4333 267.954 96.0535 267.749 95.7297C267.543 95.4058 267.242 95.1538 266.887 95.0087C266.532 94.8635 266.14 94.8323 265.767 94.9194C265.34 94.9769 264.953 95.1978 264.686 95.5354C264.419 95.8731 264.294 96.3012 264.337 96.7294Z" fill="#DB614D"/>
<path d="M250.587 90.5094C250.51 90.5095 250.433 90.4888 250.367 90.4494C250.282 90.3889 250.224 90.2975 250.205 90.1947C250.186 90.0919 250.208 89.9859 250.267 89.8994C251.095 88.8672 252.286 88.1909 253.597 88.0094C253.648 88.0009 253.7 88.0028 253.749 88.0149C253.799 88.0271 253.846 88.0493 253.888 88.0802C253.929 88.111 253.963 88.1499 253.989 88.1944C254.014 88.239 254.031 88.2883 254.037 88.3394C254.044 88.3906 254.041 88.4428 254.027 88.4928C254.014 88.5428 253.991 88.5896 253.959 88.6306C253.927 88.6715 253.888 88.7058 253.843 88.7313C253.798 88.7569 253.748 88.7732 253.697 88.7793C252.607 88.9386 251.613 89.494 250.907 90.3394C250.871 90.3915 250.824 90.4342 250.768 90.4638C250.712 90.4934 250.65 90.509 250.587 90.5094Z" fill="#1A4850"/>
<path d="M265.097 88.1192C265.014 88.1171 264.933 88.0891 264.867 88.0392C263.928 87.4641 262.809 87.2574 261.727 87.4592C261.676 87.4693 261.624 87.4694 261.574 87.4593C261.523 87.4491 261.475 87.4291 261.432 87.4002C261.389 87.3714 261.353 87.3344 261.324 87.2913C261.296 87.2482 261.276 87.1999 261.267 87.1492C261.255 87.0992 261.254 87.0474 261.263 86.9969C261.272 86.9463 261.291 86.8981 261.319 86.8551C261.347 86.8121 261.383 86.7753 261.426 86.7467C261.468 86.7182 261.516 86.6986 261.567 86.6892C262.871 86.4467 264.218 86.7076 265.337 87.4192C265.378 87.4496 265.412 87.4879 265.437 87.5317C265.463 87.5756 265.479 87.6241 265.486 87.6744C265.492 87.7248 265.489 87.7759 265.475 87.8248C265.462 87.8737 265.438 87.9194 265.407 87.9592C265.373 88.0099 265.327 88.0513 265.273 88.0792C265.218 88.1072 265.158 88.121 265.097 88.1192Z" fill="#1A4850"/>
<path d="M251.997 94.4893C252.157 95.4893 252.717 96.1493 253.247 96.0594C253.777 95.9694 254.087 95.1294 253.927 94.1694C253.767 93.2094 253.207 92.5093 252.677 92.5993C252.147 92.6893 251.837 93.5293 251.997 94.4893Z" fill="#1A4850"/>
<path d="M262.287 92.7894C262.437 93.7894 262.997 94.4494 263.537 94.3594C264.077 94.2694 264.367 93.4294 264.207 92.4694C264.047 91.5094 263.497 90.8094 262.957 90.8994C262.417 90.9894 262.127 91.8294 262.287 92.7894Z" fill="#1A4850"/>
<path d="M265.177 101.479C265.177 101.479 258.487 103.269 254.777 102.559C254.777 102.559 257.337 105.789 260.997 104.859C264.657 103.929 265.177 101.479 265.177 101.479Z" fill="#1A4850"/>
<path d="M265.487 82.8492C265.487 82.8492 256.787 89.1492 245.867 89.6292L246.177 99.3492C246.177 99.3492 235.997 80.5992 256.127 77.2792C276.257 73.9592 270.397 94.8992 270.397 94.8992C270.397 94.8992 269.777 85.8692 265.487 82.8492Z" fill="#0E3944"/>
<path d="M258.377 98.8693L258.317 98.0293C258.317 98.0293 259.487 97.9393 259.797 97.2193C259.917 96.9193 259.427 95.9793 258.987 95.1493C258.228 93.8371 257.663 92.4226 257.307 90.9493L258.127 90.7893C258.469 92.193 259.011 93.5402 259.737 94.7893C260.377 96.0193 260.847 96.9093 260.567 97.5793C260.339 97.9606 260.019 98.2786 259.637 98.504C259.254 98.7294 258.821 98.855 258.377 98.8693Z" fill="#DB614D"/>
<path d="M270.207 82.8692C255.577 76.5192 241.767 89.6892 241.767 89.6892C241.767 89.6892 240.157 79.0192 242.977 76.5192C243.706 75.8736 244.489 75.2915 245.317 74.7792C251.777 70.7092 260.377 70.7792 264.317 72.1792C264.975 72.3816 265.582 72.7226 266.097 73.1792C268.437 75.5992 270.207 82.8692 270.207 82.8692Z" fill="#CE364C"/>
<path d="M268.437 80.4992C260.158 79.2905 251.722 81.1199 244.687 85.6492C244.687 85.6492 243.957 78.7692 245.317 74.7792C251.777 70.7092 260.377 70.7792 264.317 72.1792C266.617 74.7992 268.437 80.4992 268.437 80.4992Z" fill="#CFD8DC"/>
<path d="M242.997 88.4392C242.997 88.4392 244.947 80.1592 247.567 77.8292C251.937 73.9492 264.207 72.6193 270.657 74.9493C277.107 77.2793 270.657 84.3292 270.657 84.3292C270.657 84.3292 260.357 76.9692 242.997 88.4392Z" fill="#A02E44"/>
<path d="M261.997 143.419C265.528 148.512 270.168 152.738 275.567 155.779C275.567 155.779 286.267 146.489 300.147 147.329C300.147 147.329 288.647 168.079 278.767 170.329C273.587 171.539 254.767 159.119 254.767 159.119C254.767 159.119 258.527 145.949 261.997 143.419Z" fill="#FF8B66"/>
<path d="M243.457 129.349C248.057 121.869 258.657 132.929 262.267 140.829C265.877 148.729 268.507 150.399 268.507 150.399C268.507 150.399 257.917 154.829 257.987 162.769C257.997 162.739 233.427 145.649 243.457 129.349Z" fill="#ADBEC4"/>
<path d="M275.527 152.349C275.527 152.349 281.987 146.019 303.207 137.759L300.467 129.139C302.897 125.929 307.377 125.929 307.377 125.929C307.377 125.929 318.247 141.289 316.377 145.869C315.207 148.749 292.527 151.749 275.527 152.349Z" fill="#EF6E4B"/>
<path d="M298.767 139.839C298.964 139.113 299.304 138.433 299.767 137.839C300.547 136.729 300.337 134.719 300.617 134.089C300.897 133.459 302.567 130.919 303.677 130.419C304.787 129.919 306.237 129.109 306.547 130.519C306.857 131.929 304.547 131.519 303.547 133.519C304.856 133.109 306.241 133.003 307.597 133.209C309.377 133.639 309.887 135.269 307.677 135.209C306.272 135.321 304.908 135.734 303.677 136.419C303.677 136.419 305.977 136.759 305.607 137.819C304.997 139.349 302.197 138.409 298.767 139.839Z" fill="#FF8B66"/>
<path d="M141.817 168.739C143.717 173.599 151.487 181.929 151.487 181.929C151.487 181.929 170.487 170.549 179.227 175.329C187.967 180.109 194.947 183.039 200.627 180.959C206.307 178.879 181.997 134.579 181.997 134.579L150.417 122.579C150.417 122.579 149.727 130.579 146.117 131.979C142.507 133.379 138.667 146.589 138.927 149.079C139.187 151.569 141.817 168.739 141.817 168.739Z" fill="#3E6575"/>
<path d="M177.347 182.219C177.347 182.219 169.207 198.219 152.347 218.619C152.347 218.619 150.627 242.929 106.177 281.179L101.517 277.509C101.517 277.509 127.997 236.039 133.327 223.349C138.657 210.659 130.407 198.979 154.767 166.819L177.347 182.219Z" fill="#EF6E4B"/>
<path d="M151.427 153.969C144.427 167.399 142.067 184.559 142.067 184.559L138.877 192.619C146.565 196.55 154.779 199.352 163.267 200.939L168.517 187.059L151.427 153.969Z" fill="#662C33"/>
<path d="M187.997 180.959C187.997 180.959 191.467 198.539 190.897 224.959C190.897 224.959 204.577 245.129 193.287 302.679H187.367C187.367 302.679 182.527 253.679 178.827 240.449C175.127 227.219 161.457 223.109 160.717 182.769L187.997 180.959Z" fill="#FF8B66"/>
<path d="M191.457 199.829C191.457 199.829 180.327 201.829 160.707 200.909L160.397 198.699L160.317 198.129L158.317 183.829C156.849 181.912 155.567 179.859 154.487 177.699C154.247 177.259 154.027 176.799 153.807 176.319C151.167 170.699 148.807 162.509 151.457 153.979L155.597 154.159H156.167L170.027 154.789H170.617L175.167 154.999H175.877L178.877 155.129C178.877 155.129 193.877 168.639 191.207 193.619L191.397 197.099V197.659L191.457 199.829Z" fill="#8B383E"/>
<path d="M156.137 154.199C155.757 155.339 153.137 163.819 154.457 177.699C154.217 177.259 153.997 176.799 153.777 176.319C152.777 163.629 155.067 155.719 155.567 154.159C155.627 153.979 155.667 153.889 155.667 153.879L156.187 154.059C156.175 154.108 156.158 154.154 156.137 154.199Z" fill="#662C33"/>
<path d="M191.347 197.769C187.407 198.769 180.727 199.059 174.347 199.059C168.647 199.059 163.237 198.829 160.347 198.699L160.267 198.129C165.267 198.369 178.377 198.889 186.837 197.959L186.287 189.029C186.301 180.177 184.224 171.447 180.227 163.549C172.527 162.149 170.407 156.439 169.947 154.829C169.877 154.569 169.847 154.419 169.847 154.409L170.397 154.319C170.434 154.502 170.48 154.682 170.537 154.859C171.205 156.934 172.434 158.784 174.088 160.204C175.741 161.625 177.755 162.561 179.907 162.909C178.522 160.166 176.91 157.543 175.087 155.069C174.847 154.739 174.687 154.549 174.677 154.539L175.097 154.189C175.097 154.189 175.377 154.519 175.797 155.109C178.377 158.609 187.067 171.759 186.847 188.999L187.387 197.899C188.698 197.757 189.997 197.526 191.277 197.209L191.347 197.769Z" fill="#662C33"/>
<path d="M162.997 93.7394C158.587 91.2994 126.737 103.789 126.737 103.789C126.737 103.789 122.027 112.189 124.967 115.489C127.907 118.789 138.317 117.329 141.517 115.489C144.717 113.649 153.157 112.249 153.157 112.249L162.997 93.7394Z" fill="#8BBDDB"/>
<path d="M191.137 67.2293C193.262 68.1893 195.162 69.5855 196.712 71.3272C198.263 73.0689 199.429 75.1173 200.137 77.3393C202.537 84.9193 195.347 104.109 197.837 112.929C200.327 121.749 199.937 138.399 192.167 141.929C184.397 145.459 168.487 139.159 165.067 129.539C161.647 119.919 163.117 83.4593 169.697 71.0593C176.277 58.6593 189.557 64.8893 191.137 67.2293Z" fill="#F24052"/>
<path d="M183.577 99.9192C185.317 101.789 189.777 98.4592 189.777 98.4592C189.777 98.4592 189.687 114.999 184.877 116.259C180.067 117.519 167.877 103.259 168.327 99.3492C168.777 95.4392 179.737 95.7692 183.577 99.9192Z" fill="#8BBDDB"/>
<path d="M165.057 95.7893C169.005 98.7642 173.554 100.842 178.387 101.879C186.857 103.879 191.447 99.8793 195.777 105.319C202.277 113.519 191.697 128.629 186.137 136.459C184.057 139.379 179.687 147.459 178.797 155.239C178.797 155.239 164.107 159.509 151.427 153.969L150.487 135.969C150.487 135.969 142.497 111.639 165.057 95.7893Z" fill="#0E3944"/>
<path d="M180.247 113.349C180.247 113.349 186.967 97.3493 188.907 96.3493C190.847 95.3493 195.787 97.7793 196.777 99.9693C197.767 102.159 196.777 106.969 196.777 106.969C196.777 106.969 191.477 100.839 180.247 113.349Z" fill="#8BBDDB"/>
<path d="M212.407 180.949C209.407 187.209 201.867 188.949 201.867 188.949C201.867 188.949 201.297 188.089 200.337 186.529C200.237 186.379 200.127 186.199 200.027 186.019C194.137 176.459 176.117 145.879 176.467 129.969C176.541 124.455 177.713 119.011 179.914 113.954C182.115 108.898 185.301 104.331 189.287 100.519C195.577 102.019 197.567 103.739 197.567 103.739C198.849 111.626 198.91 119.664 197.747 127.569C195.797 140.569 192.267 144.009 194.047 144.989C195.827 145.969 194.047 147.899 194.047 147.899C194.047 147.899 204.497 162.449 206.447 166.979L211.207 178.079C211.297 178.309 211.387 178.529 211.477 178.729C212.047 180.099 212.407 180.949 212.407 180.949Z" fill="#6097B2"/>
<path d="M194.267 103.789C194.267 103.789 186.787 109.329 191.137 117.789L211.877 139.249C200.497 151.379 199.367 156.359 191.137 161.949L194.267 166.779C194.267 166.779 223.077 144.639 223.117 139.249C223.137 136.959 205.517 109.059 194.267 103.789Z" fill="#FF8B66"/>
<path d="M190.687 161.969C188.523 162.21 186.374 162.564 184.247 163.029C181.757 163.649 178.437 164.269 178.337 164.789C178.237 165.309 183.827 164.789 183.827 164.789C183.827 164.789 179.267 166.669 179.167 167.389C179.067 168.109 184.967 166.869 184.967 166.869C184.967 166.869 181.237 169.149 181.447 169.769C181.657 170.389 186.247 168.839 186.247 168.839C185.806 169.979 185.221 171.058 184.507 172.049C184.507 172.049 185.397 172.539 187.207 170.529C189.017 168.519 191.897 169.169 194.207 167.389C196.517 165.609 192.767 161.699 190.687 161.969Z" fill="#FF8B66"/>
<path d="M169.497 98.4492C169.497 98.4492 163.807 102.129 160.217 111.009C156.627 119.889 145.277 136.599 142.627 140.919C139.977 145.239 141.817 168.739 141.817 168.739C141.817 168.739 138.487 154.489 137.007 148.939C135.527 143.389 141.787 129.669 142.727 128.939C143.667 128.209 148.477 129.539 147.557 123.939C146.637 118.339 159.557 94.3692 162.977 93.6992C162.997 93.7392 168.497 94.7692 169.497 98.4492Z" fill="#6097B2"/>
<path d="M151.897 99.6493C151.797 99.8437 151.683 100.031 151.557 100.209C150.528 101.523 149.279 102.65 147.867 103.539C147.867 103.539 143.527 109.619 143.487 110.319C143.447 111.019 135.947 116.319 132.617 116.249C132.215 116.266 131.822 116.13 131.517 115.869C129.517 114.009 138.247 98.3493 140.167 94.9793C140.287 94.7493 140.387 94.5893 140.457 94.4793L140.527 94.3293C140.527 94.3293 138.997 88.6293 145.397 89.6893C150.707 90.5693 151.767 94.7993 152.317 97.6293C152.42 98.3311 152.271 99.0468 151.897 99.6493Z" fill="#6097B2"/>
<path d="M129.567 105.569C133.967 99.7893 149.427 88.5693 157.567 85.2793L159.567 89.0593C159.567 89.0593 143.837 102.889 140.137 108.809C136.437 114.729 131.867 117.169 127.487 115.199C123.107 113.229 128.647 106.779 129.567 105.569Z" fill="#FF8B66"/>
<path d="M150.367 98.4592L149.537 99.4592L149.117 99.9492L147.737 101.519C147.737 101.519 144.277 105.719 144.407 107.409C144.507 108.619 137.837 114.029 132.617 116.289C130.497 117.209 128.617 117.609 127.507 116.979C123.737 114.799 124.577 108.259 126.717 103.829C128.587 99.9692 136.837 94.9792 138.957 93.7592L139.447 93.4692L140.237 90.4092C140.237 90.4092 143.107 88.6792 145.377 89.7392C145.377 89.7392 140.377 89.9492 141.197 91.8992C142.017 93.8492 148.997 98.3992 150.367 98.4592Z" fill="#8BBDDB"/>
<path d="M168.507 82.4393C163.507 84.5093 164.207 89.0593 159.597 89.0593C156.737 89.0593 156.367 85.7893 156.367 85.7893C157.595 82.6495 158.363 79.3487 158.647 75.9893C158.837 73.7293 159.597 74.5993 159.597 74.5993C159.597 74.3893 159.597 74.1893 159.597 73.9893C159.527 72.4693 159.247 71.3593 160.247 71.9893C161.247 72.6193 161.767 76.9893 161.767 76.9893C162.697 70.6993 161.317 69.7693 162.397 70.3293C163.887 71.0793 163.897 76.6293 163.897 76.7993C165.097 73.1493 164.777 71.0593 165.607 71.8893C166.437 72.7193 165.187 79.4393 164.687 81.8893C164.577 82.4393 164.497 82.7793 164.497 82.7793C168.467 80.9193 168.507 82.4393 168.507 82.4393Z" fill="#FF8B66"/>
<path d="M164.667 81.9792C164.557 82.5292 164.477 82.8692 164.477 82.8692C163.835 82.8684 163.204 83.0349 162.647 83.3523C162.089 83.6697 161.624 84.1271 161.297 84.6792C161.435 83.8965 161.853 83.1908 162.473 82.6939C163.093 82.197 163.873 81.9429 164.667 81.9792Z" fill="#EF6E4B"/>
<path d="M159.877 79.1093C159.877 78.5793 160.127 75.5193 159.597 74.5993C159.597 74.3893 159.597 74.1893 159.597 73.9893C160.727 74.2393 159.997 78.4693 159.877 79.1093Z" fill="#EF6E4B"/>
<path d="M162.997 105.599C162.997 105.599 166.387 96.3893 167.477 94.3293C168.567 92.2693 174.187 92.6294 178.477 93.4194C182.767 94.2094 183.607 99.9194 183.607 99.9194C183.607 99.9194 170.617 93.7993 162.997 105.599Z" fill="#8BBDDB"/>
<path d="M184.877 87.4692C182.382 92.3896 181.016 97.8043 180.877 103.319C180.877 103.319 174.267 107.819 171.877 102.189C173.496 96.5631 173.938 90.6638 173.177 84.8592C172.377 78.1892 184.877 87.4692 184.877 87.4692Z" fill="#EF6E4B"/>
<path d="M171.887 77.0392C171.887 77.0392 170.677 72.7292 168.527 75.7492C166.037 79.2592 168.577 82.6792 169.907 81.8592C171.237 81.0392 171.887 77.0392 171.887 77.0392Z" fill="#FF8B66"/>
<path d="M191.117 88.1193C191.117 88.1193 195.427 86.9193 193.957 90.3293C192.247 94.3293 187.957 93.8793 188.017 92.3293C188.077 90.7793 191.117 88.1193 191.117 88.1193Z" fill="#FF8B66"/>
<path d="M173.657 95.8292C167.527 92.3792 166.327 86.4293 173.087 74.4293C176.567 68.2393 181.857 66.2192 188.717 70.0792C195.577 73.9392 196.337 79.3693 192.847 85.5593C185.587 98.4593 179.997 99.3992 173.657 95.8292Z" fill="#FF8B66"/>
<path d="M188.407 88.6993C188.365 89.0402 188.218 89.3596 187.987 89.6136C187.756 89.8677 187.452 90.0437 187.116 90.1176C186.781 90.1914 186.431 90.1595 186.114 90.026C185.798 89.8926 185.531 89.6643 185.349 89.3726C185.168 89.081 185.082 88.7402 185.102 88.3974C185.123 88.0546 185.249 87.7265 185.464 87.4585C185.679 87.1905 185.971 86.9957 186.301 86.9009C186.631 86.8061 186.983 86.8161 187.307 86.9293C187.687 87.0197 188.015 87.2564 188.221 87.5879C188.427 87.9194 188.494 88.3189 188.407 88.6993Z" fill="#DB614D"/>
<path d="M175.617 81.9394C175.493 82.2616 175.273 82.5375 174.986 82.7292C174.699 82.9209 174.359 83.0189 174.014 83.0098C173.669 83.0007 173.335 82.885 173.059 82.6785C172.782 82.472 172.577 82.1848 172.47 81.8566C172.363 81.5283 172.361 81.1751 172.463 80.8455C172.565 80.5158 172.767 80.226 173.041 80.0158C173.315 79.8056 173.647 79.6854 173.992 79.6717C174.337 79.658 174.677 79.7515 174.967 79.9394C175.318 80.119 175.583 80.4303 175.705 80.8052C175.827 81.18 175.795 81.5878 175.617 81.9394Z" fill="#DB614D"/>
<path d="M189.287 80.9392C189.208 80.939 189.132 80.9122 189.07 80.8633C189.008 80.8143 188.965 80.7459 188.947 80.6692C188.608 79.7373 187.939 78.9618 187.067 78.4892C186.985 78.4465 186.923 78.3731 186.895 78.2851C186.867 78.197 186.875 78.1014 186.917 78.0192C186.962 77.9365 187.037 77.8745 187.126 77.8465C187.216 77.8184 187.313 77.8266 187.397 77.8692C188.447 78.4317 189.244 79.3716 189.627 80.4992C189.648 80.5906 189.633 80.6867 189.584 80.767C189.536 80.8474 189.458 80.9055 189.367 80.9292L189.287 80.9392Z" fill="#1A4850"/>
<path d="M180.867 74.9492C180.808 74.967 180.746 74.967 180.687 74.9492C179.834 74.448 178.826 74.2806 177.857 74.4792C177.812 74.493 177.765 74.4976 177.719 74.493C177.672 74.4883 177.627 74.4743 177.586 74.452C177.545 74.4296 177.509 74.3993 177.48 74.3627C177.451 74.3262 177.43 74.2842 177.417 74.2392C177.402 74.196 177.395 74.15 177.399 74.1042C177.402 74.0585 177.415 74.0139 177.437 73.9734C177.459 73.933 177.489 73.8975 177.525 73.8692C177.561 73.8409 177.602 73.8205 177.647 73.8092C178.811 73.5491 180.03 73.7422 181.057 74.3492C181.134 74.3987 181.19 74.4761 181.212 74.5653C181.235 74.6546 181.222 74.749 181.177 74.8292C181.138 74.872 181.09 74.9051 181.036 74.926C180.982 74.9468 180.924 74.9548 180.867 74.9492Z" fill="#1A4850"/>
<path d="M186.757 83.8492C186.327 84.6092 185.637 85.0292 185.217 84.7892C184.797 84.5492 184.797 83.7892 185.217 82.9792C185.637 82.1692 186.327 81.7992 186.757 82.0392C187.187 82.2792 187.187 83.0892 186.757 83.8492Z" fill="#1A4850"/>
<path d="M178.167 79.2392C177.737 79.9992 177.047 80.4192 176.627 80.2392C176.207 80.0592 176.207 79.1892 176.627 78.4292C177.047 77.6692 177.737 77.2392 178.167 77.4792C178.597 77.7192 178.597 78.4792 178.167 79.2392Z" fill="#1A4850"/>
<path d="M175.187 87.0493C175.187 87.0493 178.707 89.7293 181.247 89.8093C181.247 89.8093 178.537 92.0093 176.597 90.5893C176.046 90.1977 175.62 89.6553 175.37 89.0273C175.12 88.3993 175.056 87.7125 175.187 87.0493Z" fill="#1A4850"/>
<path d="M184.907 82.3492C184.907 82.3492 186.517 80.7892 187.177 81.3492C187.837 81.9092 187.497 83.8192 187.497 83.8192H188.907L187.737 83.3492C187.737 83.3492 188.117 81.3492 187.387 80.9492C186.357 80.3492 184.907 82.3492 184.907 82.3492Z" fill="#1A4850"/>
<path d="M178.827 79.1892C178.827 79.1892 179.327 76.9992 178.517 76.7192C177.707 76.4392 176.237 77.7192 176.237 77.7192L175.477 76.5292L176.477 77.2892C176.477 77.2892 177.987 75.9292 178.717 76.3392C179.767 76.9292 178.827 79.1892 178.827 79.1892Z" fill="#1A4850"/>
<path d="M190.347 72.6492C190.066 72.2388 189.7 71.8931 189.275 71.6352C188.849 71.3773 188.373 71.213 187.879 71.1534C187.385 71.0938 186.884 71.1402 186.41 71.2895C185.935 71.4388 185.498 71.6876 185.127 72.0192C182.127 74.4392 175.257 78.3192 171.887 77.0192C168.517 75.7192 179.247 61.3992 188.557 65.5992C197.867 69.7992 197.027 83.4592 193.157 87.7992C189.287 92.1392 191.157 88.0992 191.157 88.0992C191.31 84.6374 191.829 81.2015 192.707 77.8492C192.918 77.3553 193.024 76.8228 193.018 76.2857C193.012 75.7486 192.894 75.2186 192.672 74.7295C192.45 74.2404 192.129 73.8028 191.728 73.4447C191.328 73.0865 190.858 72.8156 190.347 72.6492Z" fill="#F24052"/>
<path d="M179.997 85.6493C179.818 85.6498 179.64 85.6263 179.467 85.5793L179.657 84.8493C179.85 84.927 180.065 84.9334 180.263 84.8675C180.461 84.8016 180.629 84.6675 180.737 84.4893C180.831 84.3395 180.881 84.1662 180.881 83.9893C180.881 83.8124 180.831 83.6391 180.737 83.4893C180.647 83.3893 180.477 83.3993 180.247 83.4893L179.897 82.8093C180.106 82.6637 180.36 82.5959 180.614 82.6178C180.868 82.6397 181.106 82.75 181.287 82.9293C181.495 83.1986 181.615 83.5253 181.631 83.8652C181.647 84.205 181.558 84.5416 181.377 84.8293C181.245 85.0804 181.047 85.2901 180.803 85.4348C180.559 85.5796 180.28 85.6539 179.997 85.6493Z" fill="#DB614D"/>
<path d="M224.897 138.419C224.537 143.809 211.207 161.339 208.987 161.959C208.372 162.15 207.792 162.437 207.267 162.809L206.577 163.329C205.774 163.996 205.031 164.732 204.357 165.529C200.477 165.279 189.557 160.229 193.067 159.119C193.317 159.032 193.553 158.907 193.767 158.749C193.93 158.643 194.084 158.522 194.227 158.389C198.357 154.929 206.397 140.869 206.447 139.809C206.497 138.749 207.877 138.419 207.877 138.419C207.877 138.419 200.297 127.279 195.877 125.939C191.457 124.599 189.267 119.279 189.267 119.279C184.917 100.909 197.547 103.789 197.547 103.789C206.867 109.349 225.267 133.019 224.897 138.419Z" fill="#8BBDDB"/>
<path d="M207.267 162.809L206.577 163.329C201.994 162.884 197.593 161.311 193.767 158.749C193.93 158.642 194.084 158.522 194.227 158.389C198.117 160.968 202.611 162.491 207.267 162.809Z" fill="#3E6575"/>
<path d="M151.897 99.6492C151.797 99.8436 151.683 100.031 151.557 100.209C150.737 100.174 149.921 100.074 149.117 99.9092C145.709 99.1563 142.586 97.4459 140.117 94.9792C139.657 94.5325 139.257 94.1125 138.917 93.7192L139.407 93.4292C139.697 93.7492 140.027 94.1092 140.407 94.4292C142.878 96.9439 146.043 98.664 149.497 99.3692C150.287 99.5326 151.09 99.6263 151.897 99.6492Z" fill="#3E6575"/>
<path d="M211.477 178.779C210.328 180.835 208.729 182.605 206.8 183.955C204.871 185.306 202.662 186.203 200.337 186.579C200.237 186.429 200.127 186.249 200.027 186.069C202.382 185.714 204.621 184.81 206.562 183.431C208.504 182.052 210.095 180.236 211.207 178.129C211.297 178.349 211.387 178.579 211.477 178.779Z" fill="#3E6575"/>
<path d="M110.437 279.799C109.336 280.972 108.382 282.275 107.597 283.679C106.157 286.179 107.747 288.489 100.767 294.309C100.767 294.309 86.6769 286.059 80.3069 275.459C80.3662 274.576 80.7085 273.735 81.2831 273.061C81.8576 272.388 82.6339 271.917 83.4969 271.719C85.1569 271.339 89.707 273.469 94.077 274.289C94.6969 274.399 95.327 274.499 95.937 274.549C96.6815 274.629 97.4324 274.629 98.1769 274.549C98.8262 274.49 99.463 274.335 100.067 274.089C100.885 273.738 101.608 273.198 102.177 272.513C102.745 271.828 103.143 271.018 103.337 270.149C103.337 270.149 107.077 272.279 104.587 275.889C104.597 275.879 108.997 273.939 110.437 279.799Z" fill="#CFD8DC"/>
<path d="M100.767 294.349C100.767 294.349 86.6769 286.099 80.3069 275.499C80.3069 275.499 82.6769 274.999 84.6269 278.499C86.5769 281.999 101.907 289.969 100.767 294.349Z" fill="#ADBEC4"/>
<path d="M100.817 277.639C99.6769 279.449 99.6969 276.099 98.1769 274.539C98.8262 274.48 99.463 274.325 100.067 274.079C100.747 274.819 101.717 276.229 100.817 277.639Z" fill="#ADBEC4"/>
<path d="M96.3869 277.739C95.1769 278.879 94.7869 275.889 94.0769 274.289C94.6969 274.399 95.3269 274.499 95.9369 274.549C96.6469 275.509 97.3069 276.859 96.3869 277.739Z" fill="#ADBEC4"/>
<path d="M197.107 316.409H177.177C176.688 314.497 176.688 312.492 177.177 310.579C177.537 309.259 179.597 308.019 181.527 306.299C182.068 305.821 182.576 305.307 183.047 304.759C183.425 304.305 183.76 303.816 184.047 303.299C184.421 302.654 184.698 301.956 184.867 301.229C185.203 299.397 184.969 297.505 184.197 295.809C184.197 295.809 190.987 294.389 193.407 298.089C193.407 298.089 193.637 296.379 195.787 297.519C195.614 299.621 195.651 301.735 195.897 303.829C196.337 306.689 198.997 307.519 197.107 316.409Z" fill="#CFD8DC"/>
<path d="M191.927 304.399C191.843 304.494 191.74 304.57 191.624 304.622C191.509 304.673 191.384 304.7 191.257 304.699C191.043 304.702 190.835 304.631 190.667 304.499C189.742 303.784 188.659 303.301 187.508 303.093C186.358 302.884 185.174 302.955 184.057 303.299C184.431 302.654 184.708 301.956 184.877 301.229C186.207 300.739 188.717 300.449 191.817 303.089C191.911 303.167 191.989 303.264 192.046 303.372C192.103 303.481 192.137 303.599 192.147 303.721C192.158 303.843 192.143 303.966 192.105 304.083C192.068 304.199 192.007 304.307 191.927 304.399Z" fill="#ADBEC4"/>
<path d="M190.247 307.709L190.137 307.879C190.011 308.076 189.814 308.218 189.587 308.274C189.36 308.329 189.12 308.296 188.917 308.179C187.567 307.379 184.517 305.869 181.527 306.299C182.068 305.821 182.576 305.307 183.047 304.759C184.268 304.474 185.54 304.482 186.757 304.785C187.974 305.087 189.102 305.675 190.047 306.499C190.223 306.641 190.341 306.843 190.378 307.066C190.415 307.289 190.368 307.518 190.247 307.709Z" fill="#ADBEC4"/>
</svg>
