<svg width="608" height="520" viewBox="0 0 608 520" fill="none" xmlns="http://www.w3.org/2000/svg">
<circle cx="301" cy="260" r="257.5" stroke="#AE2CFF" stroke-width="5" stroke-dasharray="10 10"/>
<circle cx="301" cy="260" r="207.5" stroke="#509DFE" stroke-width="5"/>
<g clip-path="url(#clip0)">
<path d="M311.893 404.037C311.893 405.774 281.943 407.18 244.992 407.18C208.041 407.18 178.078 405.774 178.078 404.037C178.078 402.301 208.041 400.894 244.992 400.894C281.943 400.894 311.893 402.301 311.893 404.037Z" fill="#D7E5FC"/>
<path d="M223.678 371.118L225.397 397.495H239.301C239.301 397.495 240.372 386.367 241.442 371.497C235.497 371.435 229.623 371.313 223.678 371.118Z" fill="#E28758"/>
<path d="M244.048 401.616C244.076 401.86 244.076 402.106 244.048 402.35C243.851 403.573 205.604 405.957 198.152 401.958C198.115 401.575 198.182 401.19 198.349 400.833C198.58 400.395 198.917 400.005 199.338 399.69C199.758 399.376 200.253 399.144 200.786 399.011C201.64 398.751 202.532 398.599 203.435 398.559C209.225 398.204 220.945 393.802 220.945 393.802C220.945 393.802 220.213 387.113 221.974 386.465C223.734 385.816 230.003 386.073 230.271 389.595C230.539 393.117 241.16 390.06 241.921 391.931C242.731 394.419 243.343 396.952 243.753 399.513C243.91 400.207 244.009 400.91 244.048 401.616Z" fill="#6376BF"/>
<g style="mix-blend-mode:screen" opacity="0.5">
<g style="mix-blend-mode:screen" opacity="0.5">
<path d="M244.048 401.616C241.949 401.86 239.822 402.032 237.667 402.154C224.547 402.805 211.386 402.362 198.363 400.833C198.594 400.395 198.931 400.005 199.352 399.69C199.773 399.376 200.267 399.144 200.8 399.011C207.548 399.72 226.158 401.371 243.767 399.537C243.918 400.223 244.012 400.918 244.048 401.616Z" fill="#6376BF"/>
</g>
</g>
<path d="M251.458 237.079L247.331 299.971L241.893 382.82H222.354C222.354 382.82 216.156 275.208 215.451 265.29C215.336 261.394 215.671 257.498 216.451 253.661L216.663 252.56C218.184 244.587 220.565 237.128 220.565 237.128H251.458V237.079Z" fill="#E7EFFC"/>
<g style="mix-blend-mode:multiply">
<path d="M221.171 251.765L227.89 382.82H226.665L220.001 252.56C219.743 252.701 219.475 252.828 219.198 252.939L225.045 382.82H223.833L218.001 253.343C217.494 253.48 216.976 253.587 216.451 253.661L216.663 252.56C218.168 252.296 219.567 251.693 220.72 250.811C223.537 248.647 225.228 244.966 226.143 241.689C226.572 240.187 226.896 238.663 227.116 237.128H228.355C228.104 238.955 227.708 240.765 227.172 242.545C226.172 245.822 224.453 249.393 221.537 251.606L221.171 251.765Z" fill="#E7EFFC"/>
</g>
<path d="M250.923 371.643C252.163 386.489 253.431 397.495 253.431 397.495H270.138L270.688 371.925C264.095 371.815 257.516 371.717 250.923 371.643Z" fill="#E28758"/>
<path d="M250.754 401.616C250.725 401.86 250.725 402.106 250.754 402.35C250.937 403.573 289.184 405.957 296.651 401.958C296.688 401.575 296.62 401.19 296.453 400.833C296.222 400.393 295.883 400.002 295.459 399.687C295.036 399.373 294.539 399.142 294.002 399.011C293.154 398.751 292.266 398.599 291.368 398.559C285.578 398.204 273.843 393.802 273.843 393.802C273.843 393.802 274.59 387.113 272.829 386.465C271.068 385.816 264.799 386.073 264.517 389.595C264.236 393.117 253.642 390.06 252.867 391.931C252.063 394.419 251.456 396.952 251.05 399.513C250.901 400.208 250.802 400.91 250.754 401.616Z" fill="#6376BF"/>
<g style="mix-blend-mode:screen" opacity="0.5">
<g style="mix-blend-mode:screen" opacity="0.5">
<path d="M250.754 401.616C252.867 401.86 254.98 402.032 257.135 402.154C270.26 402.804 283.426 402.362 296.453 400.833C296.222 400.393 295.883 400.002 295.459 399.687C295.036 399.373 294.539 399.142 294.002 399.011C287.268 399.72 268.645 401.371 251.05 399.537C250.902 400.224 250.803 400.918 250.754 401.616Z" fill="#6376BF"/>
</g>
</g>
<path d="M272.124 382.82H249.261L247.331 300.032L246.359 258.247L227.172 242.545L226.143 241.689L220.509 237.128H268.842C271.485 242.765 273.298 248.669 274.238 254.7C274.238 255.055 274.322 255.434 274.35 255.789C274.435 256.669 274.505 257.55 274.505 258.418C274.702 268.458 272.124 382.82 272.124 382.82Z" fill="#E7EFFC"/>
<g style="mix-blend-mode:multiply">
<g style="mix-blend-mode:multiply">
<path d="M246.993 272.236L239.822 254.712V237.066H241.048V254.627L245.781 266.11V237.066H246.993V272.236Z" fill="#E7EFFC"/>
</g>
</g>
<g style="mix-blend-mode:multiply">
<path d="M274.406 255.727C272.901 255.637 271.447 255.216 270.18 254.505L269.856 254.309V382.82H268.645V253.404C268.144 253.024 267.674 252.615 267.236 252.181V382.82H266.01V250.75C262.686 246.226 261.333 239.94 260.854 237.164H262.108C262.756 240.833 264.926 250.383 270.814 253.661C271.836 254.249 273.005 254.617 274.223 254.737C274.336 254.994 274.378 255.373 274.406 255.727Z" fill="#E7EFFC"/>
</g>
<path d="M253.163 176.657L244.048 178.466L235.906 176.657L236.751 157.898H251.881L253.163 176.657Z" fill="#E28758"/>
<path d="M236.315 167.742C236.315 167.742 244.767 167.656 248.092 164.501C248.092 164.501 243.246 172.328 236.117 171.973L236.315 167.742Z" fill="#C26144"/>
<path d="M201.11 248.048L209.901 257.476L218.536 252.756L208.999 240.124C206.351 242.63 203.914 245.553 201.11 248.048Z" fill="#E28758"/>
<path d="M224.411 255.642C224.633 255.891 224.779 256.186 224.833 256.498C224.859 256.654 224.827 256.813 224.741 256.952C224.654 257.091 224.519 257.202 224.354 257.268C224.033 257.324 223.699 257.281 223.41 257.146C222.309 256.803 221.143 256.645 219.973 256.681C220.565 258.98 222.72 260.656 224.537 262.392C225.002 262.845 225.453 263.554 224.96 263.982C224.467 264.41 223.819 264.116 223.312 263.835C222.065 263.148 220.957 262.289 220.029 261.291L223.185 264.96C223.495 265.339 223.819 265.902 223.439 266.183C223.258 266.285 223.048 266.339 222.833 266.339C222.618 266.339 222.407 266.285 222.227 266.183C220.103 265.434 218.308 264.12 217.099 262.429L219.917 266.635C220.062 266.795 220.132 266.996 220.114 267.198C220.072 267.328 219.978 267.441 219.849 267.517C219.72 267.593 219.565 267.627 219.41 267.614C219.096 267.582 218.799 267.476 218.55 267.308C216.765 266.308 215.172 265.07 213.831 263.639L214.719 265.743C214.888 266.158 215 266.733 214.564 266.966C214.127 267.198 213.648 266.868 213.324 266.562C211.722 264.966 210.625 263.036 210.14 260.961C209.673 258.893 209.409 256.795 209.351 254.688C209.301 254.348 209.33 254.003 209.436 253.673C209.598 253.301 209.882 252.978 210.253 252.744C211.463 251.912 212.939 251.425 214.479 251.35C216.426 251.225 218.375 251.558 220.123 252.314C221.87 253.069 223.351 254.218 224.411 255.642Z" fill="#E28758"/>
<path d="M298.411 195.721L300.863 182.49L291.002 180.044L287.564 191.197C291.199 192.701 294.777 194.266 298.411 195.721Z" fill="#E28758"/>
<path d="M289.649 174.321C289.722 174.011 289.882 173.721 290.114 173.477C290.228 173.356 290.384 173.269 290.56 173.232C290.735 173.194 290.92 173.208 291.086 173.269C291.353 173.44 291.543 173.686 291.621 173.966C292.058 174.907 292.698 175.767 293.509 176.498C295.087 174.59 295.087 172.071 295.382 169.735C295.382 169.136 295.763 168.378 296.453 168.402C297.143 168.427 297.341 169.063 297.439 169.625C297.686 170.888 297.686 172.178 297.439 173.44C297.805 171.936 298.186 170.432 298.552 168.928C298.665 168.463 298.932 167.889 299.468 167.913C300.003 167.938 300.158 168.329 300.299 168.683C301.063 170.559 301.127 172.596 300.482 174.504L302.173 169.833C302.217 169.631 302.342 169.45 302.525 169.319C302.668 169.263 302.829 169.252 302.981 169.288C303.132 169.323 303.265 169.404 303.356 169.515C303.531 169.741 303.638 170.002 303.666 170.273C304.004 172.096 304.004 173.954 303.666 175.776L304.849 173.709C305.089 173.33 305.511 172.866 305.99 173C306.469 173.135 306.526 173.661 306.483 174.076C306.168 176.174 305.237 178.166 303.778 179.861C302.317 181.544 300.691 183.116 298.918 184.556C298.655 184.812 298.34 185.023 297.989 185.18C297.559 185.312 297.097 185.342 296.65 185.266C295.114 185.056 293.691 184.436 292.579 183.492C291.199 182.326 290.2 180.862 289.685 179.251C289.17 177.639 289.158 175.938 289.649 174.321Z" fill="#E28758"/>
<path d="M300.863 188.824L300.595 190.414C300.595 190.72 300.482 191.074 300.412 191.478C300.229 192.591 299.961 194.021 299.651 195.697C299.186 198.142 298.595 201.151 297.876 204.379C297.341 206.898 296.721 209.552 296.045 212.218C295.298 215.153 294.481 218.112 293.594 220.912C292.706 223.713 291.734 226.415 290.776 228.739C288.564 233.814 286.071 237.225 283.422 237.066C280.422 236.895 276.661 233.532 272.815 228.739C272.209 227.98 271.589 227.173 270.969 226.293C270.828 227.124 270.688 227.932 270.547 228.739C270.18 230.72 269.871 232.407 269.603 233.777C269.532 234.156 269.462 234.523 269.406 234.841C269.138 236.247 268.969 237.066 268.969 237.066H220.565C220.565 237.066 220.368 236.247 220.072 234.841L219.832 233.777C219.537 232.432 219.156 230.72 218.734 228.739C218.241 226.427 217.691 223.749 217.114 220.912C216.536 218.075 215.987 215.189 215.451 212.218C215.24 211.08 215.043 209.943 214.86 208.83C212.268 209.98 209.422 211.142 206.675 212.218C199.772 214.908 193.475 217.024 193.475 217.024L196.293 220.912L201.927 228.739L208.182 237.421L211.845 242.508L212.493 243.413L213.817 245.272L213.972 245.48L203.886 252.157C203.886 252.157 203.209 251.557 202.068 250.494L201.237 249.711C199.983 248.488 198.42 247.021 196.588 245.272C194.208 242.936 191.503 240.209 188.883 237.421C186.262 234.633 183.642 231.686 181.599 229.044C181.529 228.947 181.445 228.837 181.388 228.739C179.571 226.325 178.184 223.686 177.275 220.912C176.333 218.09 175.938 215.152 176.105 212.218C176.373 208.708 177.514 205.859 179.374 204.379C179.426 204.323 179.483 204.27 179.543 204.22C180.543 203.474 187.122 199.83 194.757 195.66C199.575 193.031 204.815 190.218 209.309 187.821C211.366 186.733 213.24 185.706 214.944 184.85C216.715 183.706 218.601 182.703 220.579 181.854C222.692 180.9 224.988 179.958 227.144 179.127C229.299 178.295 231.37 177.574 232.863 177.023L234.159 176.559L236.019 175.935C236.019 175.935 241.231 179.127 253.614 175.935L255.417 176.473C255.811 176.571 256.262 176.718 256.826 176.877C258.629 177.427 261.052 178.21 263.531 179.127L264.686 179.543C264.686 179.543 274.209 182.184 276.463 186.88C276.618 187.173 276.759 187.503 276.914 187.87C277.703 189.815 278.605 192.762 279.45 195.709C280.366 198.986 281.211 202.312 281.718 204.391C282.056 205.712 282.239 206.531 282.239 206.531L282.789 204.391L285.057 195.709L287.085 187.87V187.748L287.353 186.709L287.705 185.363L297.327 187.809L300.863 188.824Z" fill="#6376BF"/>
<g style="mix-blend-mode:screen" opacity="0.5">
<g style="mix-blend-mode:screen" opacity="0.5">
<path d="M276.759 187.858H209.295C211.352 186.77 213.226 185.743 214.846 184.887C216.624 183.753 218.509 182.751 220.48 181.891C222.579 180.937 224.876 179.995 227.031 179.163H263.433L264.574 179.579C264.574 179.579 274.097 182.221 276.351 186.917C276.463 187.161 276.604 187.491 276.759 187.858Z" fill="#6376BF"/>
</g>
<g style="mix-blend-mode:screen" opacity="0.5">
<path d="M297.2 187.858H286.93L287.578 185.351L297.2 187.858Z" fill="#6376BF"/>
</g>
<g style="mix-blend-mode:screen" opacity="0.5">
<path d="M281.563 204.379H179.345C179.403 204.323 179.464 204.27 179.529 204.22C180.529 203.474 187.122 199.83 194.743 195.66H279.267C280.211 198.974 281.056 202.3 281.563 204.379Z" fill="#6376BF"/>
</g>
<g style="mix-blend-mode:screen" opacity="0.5">
<path d="M299.651 195.721C299.186 198.167 298.594 201.175 297.876 204.404H282.634L284.902 195.721H299.651Z" fill="#6376BF"/>
</g>
<g style="mix-blend-mode:screen" opacity="0.5">
<path d="M193.475 217.024L196.292 220.9H177.261C176.312 218.084 175.916 215.148 176.091 212.218H206.675C199.772 214.908 193.475 217.024 193.475 217.024Z" fill="#6376BF"/>
</g>
<g style="mix-blend-mode:screen" opacity="0.5">
<path d="M296.045 212.218C295.298 215.153 294.481 218.112 293.594 220.9H217.114C216.564 218.124 215.987 215.177 215.465 212.218H296.045Z" fill="#6376BF"/>
</g>
<g style="mix-blend-mode:screen" opacity="0.5">
<path d="M208.168 237.433H188.868C186.192 234.596 183.628 231.686 181.599 229.044C181.514 228.948 181.439 228.846 181.374 228.739H201.913L208.168 237.433Z" fill="#6376BF"/>
</g>
<g style="mix-blend-mode:screen" opacity="0.5">
<path d="M270.476 228.739C269.561 233.728 268.899 237.066 268.899 237.066H220.579C220.579 237.066 219.804 233.716 218.734 228.739H270.476Z" fill="#6376BF"/>
</g>
<g style="mix-blend-mode:screen" opacity="0.5">
<path d="M290.72 228.739C288.494 233.814 285.986 237.225 283.338 237.066C280.351 236.895 276.59 233.532 272.758 228.739H290.72Z" fill="#6376BF"/>
</g>
<g style="mix-blend-mode:screen" opacity="0.5">
<path d="M213.958 245.48L203.857 252.157C203.857 252.157 200.702 249.295 196.574 245.26H213.803L213.958 245.48Z" fill="#6376BF"/>
</g>
</g>
<g style="mix-blend-mode:multiply" opacity="0.5">
<path d="M214.845 208.83L223.946 204.379L217.297 221.768L214.845 208.83Z" fill="#6376BF"/>
</g>
<g style="mix-blend-mode:multiply" opacity="0.5">
<path d="M270.899 226.342L269.279 204.379L269.617 233.324L270.899 226.342Z" fill="#6376BF"/>
</g>
<g style="mix-blend-mode:multiply" opacity="0.5">
<path d="M193.475 217.024C193.475 217.024 190.136 215.422 189.446 216.155C188.756 216.889 193.475 217.024 193.475 217.024Z" fill="#6376BF"/>
</g>
<g style="mix-blend-mode:multiply" opacity="0.5">
<path d="M193.475 217.024C193.475 217.024 191.052 214.578 191.742 214.064C192.433 213.551 193.982 215.703 193.475 217.024Z" fill="#6376BF"/>
</g>
<g style="mix-blend-mode:multiply" opacity="0.5">
<path d="M282.084 206.519C282.084 206.519 278.14 208.622 278.337 209.271C278.534 209.919 282.084 206.519 282.084 206.519Z" fill="#6376BF"/>
</g>
<g style="mix-blend-mode:multiply" opacity="0.5">
<path d="M282.084 206.519C282.084 206.519 281.042 210.286 282.084 210.726C283.127 211.166 282.084 206.519 282.084 206.519Z" fill="#6376BF"/>
</g>
<g style="mix-blend-mode:screen">
<g style="mix-blend-mode:screen">
<path d="M256.671 176.913C253.383 179.397 249.195 180.799 244.837 180.876C240.44 180.766 236.202 179.428 232.75 177.06L234.047 176.595C237.315 178.699 245.781 182.795 255.304 176.51C255.699 176.608 256.149 176.754 256.671 176.913Z" fill="#6376BF"/>
</g>
</g>
<g style="mix-blend-mode:screen">
<g style="mix-blend-mode:screen">
<path d="M269.532 233.777C269.462 234.156 269.391 234.523 269.335 234.841H220.03L219.79 233.777H269.532Z" fill="#6376BF"/>
</g>
</g>
<g style="mix-blend-mode:screen">
<g style="mix-blend-mode:screen">
<path d="M212.479 243.413L202.054 250.494L201.223 249.711L211.831 242.508L212.479 243.413Z" fill="#6376BF"/>
</g>
</g>
<g style="mix-blend-mode:screen">
<g style="mix-blend-mode:screen">
<path d="M300.595 190.414C300.595 190.72 300.482 191.074 300.412 191.478L286.958 187.736L287.226 186.696L300.595 190.414Z" fill="#6376BF"/>
</g>
</g>
<path d="M258.558 149.448C258.057 149.107 257.434 148.929 256.797 148.946C256.536 147.297 256.155 145.663 255.656 144.055C255.4 143.145 254.875 142.308 254.134 141.626C253.394 140.945 252.462 140.442 251.43 140.166C246.401 138.943 236.991 136.351 230.398 140.582C229.665 141.073 229.062 141.696 228.629 142.406C228.197 143.117 227.945 143.9 227.89 144.703C227.487 148.12 227.303 151.553 227.341 154.987C227.341 156.834 227.468 158.656 227.637 160.221C227.947 162.887 228.51 165.015 229.454 165.969C233.215 169.735 247.669 167.962 253.867 160.674C254.741 159.65 255.439 158.521 255.938 157.323C259.418 155.77 260.615 150.83 258.558 149.448Z" fill="#E28758"/>
<path d="M238.076 150.475C238.507 151.161 238.661 151.954 238.512 152.725C238.383 153.491 238.102 154.232 237.681 154.914C237.48 155.214 237.301 155.524 237.146 155.843C237.08 155.972 237.046 156.112 237.046 156.253C237.046 156.394 237.08 156.534 237.146 156.663C237.346 156.952 237.626 157.195 237.96 157.367C238.294 157.54 238.673 157.639 239.062 157.653C238.614 157.787 238.129 157.793 237.678 157.669C237.227 157.546 236.833 157.3 236.554 156.968C236.398 156.78 236.292 156.564 236.243 156.335C236.195 156.107 236.205 155.872 236.272 155.648C236.417 155.275 236.601 154.915 236.822 154.572C237.203 153.941 237.519 153.282 237.766 152.603C238.034 151.919 238.139 151.195 238.076 150.475Z" fill="#C26144"/>
<path d="M241.175 149.13C241.492 148.873 241.898 148.714 242.33 148.677C242.76 148.643 243.195 148.676 243.612 148.775C244.033 148.87 244.421 149.055 244.739 149.313C245.049 149.553 245.294 149.85 245.457 150.181C245.482 150.232 245.485 150.289 245.464 150.341C245.443 150.393 245.4 150.437 245.344 150.463C245.305 150.486 245.258 150.498 245.211 150.498C245.163 150.498 245.116 150.486 245.077 150.463C244.836 150.262 244.566 150.089 244.274 149.949C244.005 149.826 243.715 149.743 243.414 149.705C242.809 149.619 242.217 149.827 241.541 149.778H241.456C241.403 149.775 241.35 149.763 241.302 149.742C241.254 149.721 241.211 149.692 241.175 149.657C241.14 149.622 241.113 149.581 241.096 149.537C241.079 149.492 241.072 149.445 241.076 149.399C241.069 149.35 241.075 149.301 241.092 149.255C241.109 149.209 241.137 149.166 241.175 149.13Z" fill="#523329"/>
<path d="M236.188 149.729C235.512 149.729 234.92 149.57 234.314 149.656C234.014 149.694 233.723 149.777 233.455 149.9C233.162 150.04 232.892 150.213 232.652 150.414C232.629 150.435 232.602 150.452 232.572 150.463C232.542 150.475 232.509 150.481 232.476 150.481C232.443 150.481 232.41 150.475 232.38 150.463C232.349 150.452 232.322 150.435 232.3 150.414C232.273 150.379 232.259 150.339 232.259 150.298C232.259 150.256 232.273 150.216 232.3 150.181C232.458 149.851 232.699 149.554 233.004 149.313C233.322 149.055 233.709 148.87 234.131 148.775C234.548 148.676 234.982 148.643 235.413 148.677C235.845 148.714 236.251 148.873 236.568 149.13C236.606 149.162 236.635 149.2 236.656 149.242C236.676 149.284 236.687 149.329 236.687 149.374C236.687 149.42 236.676 149.465 236.656 149.507C236.635 149.549 236.606 149.587 236.568 149.619C236.493 149.677 236.4 149.716 236.3 149.729H236.188Z" fill="#523329"/>
<path d="M238.23 159.977C239.192 160.011 240.15 159.873 241.048 159.573C241.46 159.414 241.823 159.17 242.104 158.864C242.426 158.516 242.718 158.148 242.978 157.763C243.041 158.255 242.938 158.752 242.682 159.194C242.42 159.668 241.977 160.048 241.428 160.27C240.89 160.48 240.295 160.557 239.71 160.49C239.175 160.43 238.666 160.253 238.23 159.977Z" fill="#C26144"/>
<path d="M241.978 154.902C242.569 154.902 243.048 154.206 243.048 153.349C243.048 152.491 242.569 151.796 241.978 151.796C241.386 151.796 240.907 152.491 240.907 153.349C240.907 154.206 241.386 154.902 241.978 154.902Z" fill="#523329"/>
<path d="M234.413 154.902C235.004 154.902 235.483 154.206 235.483 153.349C235.483 152.491 235.004 151.796 234.413 151.796C233.821 151.796 233.342 152.491 233.342 153.349C233.342 154.206 233.821 154.902 234.413 154.902Z" fill="#523329"/>
<path d="M258.037 152.26C257.932 152.104 257.785 151.972 257.609 151.876C257.432 151.78 257.231 151.723 257.023 151.71C256.635 151.692 256.25 151.782 255.924 151.967C255.238 152.367 254.641 152.873 254.163 153.459C254.136 153.494 254.102 153.523 254.061 153.546C254.021 153.569 253.975 153.584 253.928 153.591C253.88 153.598 253.832 153.596 253.785 153.586C253.738 153.576 253.694 153.558 253.656 153.532C253.584 153.486 253.532 153.418 253.512 153.342C253.491 153.266 253.502 153.186 253.543 153.116C253.811 152.795 254.178 152.546 254.602 152.399C255.026 152.252 255.489 152.212 255.938 152.285C256.106 152.308 256.268 152.36 256.413 152.438C256.558 152.516 256.684 152.617 256.783 152.737C256.954 152.968 257.029 153.242 256.999 153.515C256.968 153.787 256.833 154.043 256.614 154.241C256.237 154.567 255.736 154.762 255.206 154.792C255.666 154.645 256.063 154.381 256.347 154.033C256.462 153.89 256.524 153.719 256.524 153.544C256.524 153.369 256.462 153.199 256.347 153.055C256.197 152.946 256.015 152.874 255.822 152.846C255.629 152.818 255.431 152.835 255.248 152.896C255.046 152.918 254.853 152.977 254.68 153.07C254.507 153.163 254.36 153.287 254.248 153.434L253.628 153.092C254.172 152.431 254.892 151.893 255.727 151.527C256.168 151.35 256.666 151.311 257.136 151.417C257.358 151.476 257.559 151.585 257.717 151.733C257.875 151.882 257.986 152.063 258.037 152.26Z" fill="#C26144"/>
<path d="M258.953 154.303C258.953 154.303 260.742 148.897 257.009 148.946C253.276 148.995 252.501 156.54 251.374 155.99C250.247 155.44 250.035 144.312 250.035 144.312C250.035 144.312 238.554 146.513 230.031 144.312L227.341 154.523C227.341 154.523 226.862 149.215 226.017 145.29C225.678 143.88 225.163 142.506 224.481 141.193C224.114 140.278 223.938 139.313 223.96 138.344C223.982 137.873 224.12 137.412 224.363 136.99C224.605 136.569 224.948 136.197 225.369 135.898C226.946 134.944 229.144 135.556 230.736 136.498C230.973 135.689 231.42 134.938 232.043 134.302C232.665 133.667 233.447 133.163 234.328 132.829C236.107 132.174 238.032 131.869 239.963 131.936C241.752 131.846 243.536 132.171 245.133 132.878C246.894 133.783 248.021 135.409 249.782 136.302C251.332 136.881 252.922 137.375 254.543 137.782C256.194 138.477 257.617 139.523 258.678 140.823C259.739 142.123 260.406 143.634 260.615 145.217C260.929 148.318 260.358 151.438 258.953 154.303Z" fill="#523329"/>
<path d="M206.872 404.037C206.872 405.774 169.428 407.18 123.222 407.18C77.0152 407.18 39.5852 405.774 39.5852 404.037C39.5852 402.301 77.0293 400.894 123.222 400.894C169.414 400.894 206.872 402.301 206.872 404.037Z" fill="#D7E5FC"/>
<path d="M52.278 232.053C52.5232 230.347 52.8902 228.656 53.3768 226.99C53.5882 226.134 53.8276 225.302 54.0671 224.459L38.8951 225.07L39.2614 230.182L28.3155 229.962V223.444C24.5683 224.422 25.4981 229.692 28.3155 232.371C31.4007 235.379 44.3891 234.413 46.3755 234.254L51.8554 234.535C51.9775 233.703 52.1184 232.876 52.278 232.053Z" fill="#FFB894"/>
<path d="M121.799 192.468C121.404 204.428 112.529 236.883 108.007 237.947C104.401 238.791 68.4219 237.115 54.0106 236.406H52.785L48.0798 236.162L49.4181 224.605L54.1796 224.397H55.4052L92.5675 222.624C92.5675 222.624 97.3995 186.696 102.908 182.111C108.416 177.525 122.193 180.509 121.799 192.468Z" fill="#F05956"/>
<g style="mix-blend-mode:screen" opacity="0.5">
<g style="mix-blend-mode:screen" opacity="0.5">
<path d="M55.4053 224.287L53.9966 236.406H52.771L54.1797 224.397L55.4053 224.287Z" fill="#F05956"/>
</g>
</g>
<path d="M117.094 264.557H88.75C88.75 264.557 89.0036 254.945 89.4262 242.704C89.8629 230.732 90.4264 216.253 91.0744 205.749C91.5252 198.668 91.9901 193.398 92.4831 191.93C94.3849 186.048 110.36 176.657 110.36 176.657L117.094 264.557Z" fill="#F05956"/>
<g style="mix-blend-mode:multiply" opacity="0.5">
<path d="M117.094 264.557H88.75C88.75 264.557 89.0036 254.945 89.4262 242.704C91.7224 237.372 93.8214 232.652 94.5821 230.341C95.7796 226.758 93.4692 215.471 91.0744 205.749C91.5252 198.668 91.9901 193.398 92.4831 191.93C94.3849 186.048 110.36 176.657 110.36 176.657L117.094 264.557Z" fill="#F05956"/>
</g>
<path d="M112.698 399.231C113.008 396.345 113.755 389.289 114.586 380.142C108.706 379.729 102.856 379.039 97.0614 378.076L98.0053 396.553C91.37 397.628 84.8092 399.025 78.3535 400.735C77.1843 401.041 76.7335 402.374 78.3535 402.533C89.3557 403.548 101.443 403.059 112.501 402.961C113.529 402.961 113.91 402.655 113.558 401.738C113.205 400.821 113.093 400.026 112.698 399.231Z" fill="#F2A288"/>
<path d="M82.1995 397.752C82.6028 397.644 83.0327 397.636 83.4408 397.729C83.8489 397.822 84.2191 398.012 84.5098 398.277C85.4445 399.126 86.2066 400.106 86.7637 401.176C87.6231 403.096 113.628 400.528 113.628 400.528C114.286 401.478 114.731 402.528 114.938 403.621C114.938 404.661 80.6076 403.805 74.536 403.621C74.4171 403.62 74.3004 403.594 74.1956 403.545C74.0908 403.496 74.0009 403.426 73.9334 403.342C73.8659 403.257 73.8227 403.159 73.8074 403.057C73.7922 402.954 73.8053 402.85 73.8457 402.753C74.381 401.567 76.1701 399.317 82.1995 397.752Z" fill="#F05956"/>
<path d="M127.603 235.636C127.603 235.636 126.56 245.235 125.236 258.075C124.405 265.938 123.461 275.012 122.602 283.841C120.841 301.683 119.305 318.497 119.432 322.105C119.432 323.095 119.432 324.783 119.319 326.996C118.502 343.517 114.333 388.935 114.333 388.935H96.8925C96.8925 388.935 91.1448 284.991 90.2433 262.979C90.2433 261.976 90.2433 261.145 90.1447 260.533C90.046 259.922 90.1447 259.543 90.1447 259.31C90.1447 251.973 98.1181 235.807 98.1181 235.807L127.603 235.636Z" fill="#6376BF"/>
<g style="mix-blend-mode:screen" opacity="0.5">
<g style="mix-blend-mode:screen" opacity="0.5">
<path d="M119.305 248.83L118.432 262.967L110.571 388.874H109.346L117.488 258.308V258.283L118.094 248.781L119.305 248.83Z" fill="#6376BF"/>
</g>
</g>
<g style="mix-blend-mode:screen" opacity="0.5">
<g style="mix-blend-mode:screen" opacity="0.5">
<path d="M103.753 235.636L102.626 237.922L90.2431 262.869C90.2431 261.866 90.2431 261.035 90.1445 260.423L101.569 237.433L102.443 235.672L103.753 235.636Z" fill="#6376BF"/>
</g>
</g>
<g style="mix-blend-mode:multiply" opacity="0.5">
<path d="M122.56 283.841C120.799 301.683 119.263 318.497 119.39 322.105C119.39 323.095 119.39 324.783 119.277 326.996L110.938 316.541L116.065 251.411L125.236 258.088C124.405 265.938 123.461 275.012 122.56 283.841Z" fill="#6376BF"/>
</g>
<path d="M190.925 383.958C189.418 381.365 185.713 375.043 180.825 366.923C175.591 369.294 170.211 371.412 164.709 373.27L176.838 388.482C171.88 392.458 167.178 396.667 162.751 401.09C161.948 401.897 162.37 403.23 163.878 402.594C173.739 398.375 183.741 392.395 193.053 387.198C193.912 386.709 194.081 386.269 193.222 385.694C192.362 385.119 191.7 384.471 190.925 383.958Z" fill="#F2A288"/>
<path d="M164.145 396.81C164.422 396.534 164.783 396.33 165.186 396.222C165.589 396.114 166.019 396.106 166.427 396.199C167.743 396.476 168.992 396.952 170.118 397.605C172.02 398.828 192.461 384.642 192.461 384.642C193.603 385.144 194.626 385.829 195.475 386.66C196.109 387.541 166.526 402.668 161.271 405.346C161.169 405.398 161.053 405.429 160.934 405.435C160.815 405.442 160.697 405.423 160.588 405.381C160.479 405.339 160.383 405.275 160.308 405.195C160.234 405.114 160.182 405.019 160.158 404.918C159.863 403.609 160.003 400.919 164.145 396.81Z" fill="#F05956"/>
<path d="M188.08 375.911L184.487 378.357L183.501 378.993L172.471 386.33C172.471 386.33 136.337 344.19 133.759 336.192C132.35 332.01 127.208 306.843 122.602 283.915C121.151 276.431 119.742 269.167 118.432 262.979C118.108 261.353 117.784 259.8 117.488 258.332C115.798 249.772 114.671 244.086 114.671 244.086L102.612 237.971L101.555 237.446L98.0898 235.685H133.829C133.829 235.685 134.027 235.795 134.379 236.027C134.731 236.259 135.351 236.687 136.069 237.25C140.436 240.405 149.959 248.158 153.397 257.953C157.905 270.842 157.721 327.742 157.721 327.742L188.08 375.911Z" fill="#6376BF"/>
<g style="mix-blend-mode:screen" opacity="0.5">
<g style="mix-blend-mode:screen" opacity="0.5">
<path d="M184.544 378.296L183.557 378.932L151.283 330.677V330.555C151.283 330.212 147.311 295.41 147.057 282.41C146.804 271.686 137.576 244.868 134.379 235.941C134.773 236.21 135.351 236.602 136.069 237.164C139.647 247.302 147.987 271.943 148.241 282.41C148.522 294.982 152.241 328.134 152.467 330.347L184.544 378.296Z" fill="#6376BF"/>
</g>
</g>
<path d="M133.745 235.636C133.745 235.636 133.998 225.853 134.745 214.847C135.576 202.251 136.816 188.042 134.858 185.339C132.248 182.04 129.092 179.093 125.49 176.595H110.36C110.36 176.595 92.6663 188.311 92.9762 198.167C93.1452 202.85 97.5968 211.618 98.9774 219.653C99.8894 225.148 99.8894 230.728 98.9774 236.223L133.745 235.636Z" fill="#FFB894"/>
<path d="M133.829 235.636H98.104C98.104 235.636 98.4985 216.62 95.202 209.197C91.9056 201.774 92.0183 195.342 94.7371 190.695C96.6671 187.406 103.316 181.732 107.007 178.699C108.021 177.899 109.148 177.212 110.36 176.657C110.36 176.657 105.401 188.274 109.501 188.457C112.868 188.592 124.419 177.451 126.095 176.657C126.095 176.657 134.956 183.517 136.365 185.791C137.774 188.066 133.829 235.636 133.829 235.636Z" fill="white"/>
<path d="M125.49 176.657L117.08 177.928L110.36 176.657V157.898H125.49V176.657Z" fill="#FFB894"/>
<path d="M110.36 167.742C110.36 167.742 118.39 167.656 121.63 164.501C121.63 164.501 117.404 172.315 110.36 171.961V167.742Z" fill="#F29272"/>
<path d="M107.063 217.268H106.937C102.612 217.024 97.6954 211.239 96.4698 198.925C95.3428 187.491 109.867 175.691 110.473 175.201V176.424C110.332 176.547 96.5402 187.895 97.6249 198.852C98.7238 210.041 103.26 216.119 107.049 216.339C107.122 216.347 107.195 216.34 107.263 216.318C107.332 216.297 107.394 216.262 107.444 216.216C108.345 215.507 108.416 212.377 108.514 208.757C108.669 202.386 108.881 193.642 113.389 187.21C119.474 178.491 125.349 175.128 125.588 174.981V176.106C125.588 176.106 120.305 179.176 114.318 187.699C109.98 193.911 109.768 202.496 109.613 208.769C109.501 213.086 109.43 215.935 108.205 216.926C108.05 217.046 107.869 217.138 107.674 217.196C107.478 217.255 107.27 217.28 107.063 217.268Z" fill="#6376BF"/>
<path d="M116.502 227.014H61.5615V230.194H116.502V227.014Z" fill="#B4CBDD"/>
<path d="M83.2559 196.198V227.014H28.3154V196.198C28.3154 195.874 28.4638 195.563 28.728 195.333C28.9922 195.104 29.3505 194.975 29.7242 194.975H81.8472C82.2208 194.975 82.5791 195.104 82.8433 195.333C83.1075 195.563 83.2559 195.874 83.2559 196.198Z" fill="#B4CBDD"/>
<path d="M83.2559 227.014H28.3154V230.194H83.2559V227.014Z" fill="#91B3CC"/>
<path d="M60.6458 211.374C60.6458 212.208 60.3607 213.024 59.8267 213.718C59.2927 214.412 58.5336 214.952 57.6455 215.272C56.7575 215.591 55.7803 215.675 54.8375 215.512C53.8947 215.349 53.0287 214.947 52.349 214.357C51.6693 213.767 51.2065 213.015 51.0189 212.197C50.8314 211.379 50.9276 210.53 51.2955 209.759C51.6633 208.988 52.2863 208.33 53.0855 207.866C53.8848 207.402 54.8244 207.155 55.7857 207.155C57.0746 207.155 58.3108 207.599 59.2223 208.391C60.1337 209.182 60.6458 210.255 60.6458 211.374Z" fill="#D5EFF2"/>
<path d="M86.8483 228.519C86.8483 228.765 86.7355 229.001 86.5347 229.176C86.3339 229.35 86.0616 229.448 85.7777 229.448C85.4937 229.448 85.2214 229.35 85.0206 229.176C84.8198 229.001 84.707 228.765 84.707 228.519C84.707 228.272 84.8198 228.036 85.0206 227.861C85.2214 227.687 85.4937 227.589 85.7777 227.589C86.0616 227.589 86.3339 227.687 86.5347 227.861C86.7355 228.036 86.8483 228.272 86.8483 228.519Z" fill="#547891"/>
<path d="M106.81 228.519C106.81 228.658 106.746 228.792 106.632 228.89C106.519 228.989 106.365 229.044 106.204 229.044C106.043 229.044 105.889 228.989 105.776 228.89C105.662 228.792 105.598 228.658 105.598 228.519C105.598 228.379 105.662 228.245 105.776 228.147C105.889 228.048 106.043 227.993 106.204 227.993C106.365 227.993 106.519 228.048 106.632 228.147C106.746 228.245 106.81 228.379 106.81 228.519Z" fill="#547891"/>
<path d="M114.403 227.993H107.542V229.057H114.403V227.993Z" fill="#547891"/>
<path d="M30.7104 227.993H30.1328V229.057H30.7104V227.993Z" fill="#547891"/>
<path d="M31.7106 227.993H31.1331V229.057H31.7106V227.993Z" fill="#547891"/>
<path d="M32.6967 227.993H32.1191V229.057H32.6967V227.993Z" fill="#547891"/>
<path d="M33.697 227.993H33.1194V229.057H33.697V227.993Z" fill="#547891"/>
<g style="mix-blend-mode:screen" opacity="0.5">
<path d="M83.2559 223.419V227.014H28.3154V199.598L33.8095 212.841C35.0776 215.942 37.4226 218.624 40.5211 220.519C43.6195 222.413 47.3187 223.427 51.1087 223.419H83.2559Z" fill="#B4CBDD"/>
</g>
<path d="M153.284 265.241H127.406C126.369 265.248 125.366 264.924 124.587 264.331C123.808 263.739 123.307 262.918 123.179 262.025L122.898 260.13L122.743 259.066L113.135 194.902C112.95 193.607 113.326 192.3 114.192 191.233L126.095 176.73L128.913 177.659C131.042 178.359 132.938 179.508 134.428 181.003C135.918 182.497 136.957 184.29 137.45 186.219L155.622 259.066L155.876 260.13L156.327 261.927C156.427 262.324 156.425 262.735 156.319 263.131C156.213 263.526 156.007 263.897 155.716 264.214C155.424 264.532 155.054 264.789 154.634 264.966C154.213 265.144 153.752 265.238 153.284 265.241Z" fill="#F05956"/>
<g style="mix-blend-mode:screen" opacity="0.5">
<g style="mix-blend-mode:screen" opacity="0.5">
<path d="M155.904 260.13H122.898L122.743 259.066H155.651L155.904 260.13Z" fill="#F05956"/>
</g>
</g>
<path d="M150.072 241.897L149.523 241.408C146.92 239.381 144.586 237.109 142.563 234.633L136.055 240.332C133.279 240.388 130.633 241.363 128.659 243.059C128.385 243.266 128.176 243.531 128.054 243.829C127.992 243.977 127.985 244.139 128.036 244.291C128.087 244.442 128.191 244.576 128.335 244.673C128.645 244.77 128.984 244.77 129.293 244.673C130.452 244.515 131.635 244.561 132.773 244.807C131.66 246.947 129.166 248.219 126.983 249.613C126.433 249.968 125.828 250.591 126.208 251.093C126.588 251.594 127.293 251.423 127.856 251.24C129.238 250.782 130.523 250.129 131.66 249.307L127.715 252.413C127.321 252.731 126.884 253.221 127.18 253.636C127.476 254.052 127.941 253.942 128.363 253.869C130.616 253.503 132.674 252.522 134.238 251.068L130.448 254.737C130.272 254.868 130.157 255.051 130.124 255.251C130.134 255.388 130.2 255.519 130.312 255.618C130.423 255.716 130.571 255.777 130.73 255.789C131.046 255.802 131.361 255.748 131.646 255.63C133.625 254.957 135.466 254.012 137.098 252.829L135.759 254.749C135.492 255.128 135.238 255.666 135.618 255.972C135.999 256.278 136.548 256.033 136.929 255.789C138.859 254.518 140.374 252.832 141.324 250.897C141.948 249.666 142.462 248.394 142.859 247.094L150.072 241.897Z" fill="#FFB894"/>
<path d="M152.749 242.447L151.664 242.985C149.678 243.927 148.452 244.453 148.452 244.453L147.649 243.621L140.718 236.284L140.141 235.672L142.282 233.63L143.141 232.848L160.046 217.268L121.7 198.167C121.7 198.167 116.065 183.492 129.857 178.002C129.857 178.002 177.19 202.08 181.416 215.287C184.741 225.62 162.413 237.763 152.749 242.447Z" fill="#F05956"/>
<g style="mix-blend-mode:screen" opacity="0.5">
<g style="mix-blend-mode:screen" opacity="0.5">
<path d="M152.749 242.447L151.664 242.985L142.282 233.63L143.141 232.848L152.749 242.447Z" fill="#F05956"/>
</g>
</g>
<g style="mix-blend-mode:multiply" opacity="0.5">
<path d="M160.004 217.305C160.004 217.305 160.469 210.787 161.891 211.19C163.314 211.594 160.004 217.305 160.004 217.305Z" fill="#F05956"/>
</g>
<g style="mix-blend-mode:multiply" opacity="0.5">
<path d="M160.004 217.305C160.004 217.305 163.934 214.859 164.948 215.226C165.963 215.593 162.892 217.525 160.004 217.305Z" fill="#F05956"/>
</g>
<g style="mix-blend-mode:multiply" opacity="0.5">
<path d="M143.197 209.136L121.7 198.106L145.733 219.323L143.197 209.136Z" fill="#F05956"/>
</g>
<path d="M131.702 149.387C131.488 149.253 131.256 149.143 131.012 149.056C130.66 147.357 130.139 145.694 129.603 144.165C129.351 143.254 128.828 142.417 128.086 141.737C127.345 141.057 126.411 140.557 125.377 140.288C120.348 139.066 110.543 137.39 103.95 141.621C103.216 142.112 102.612 142.734 102.179 143.445C101.747 144.156 101.495 144.94 101.443 145.742C101.032 148.815 100.848 151.907 100.893 155C100.893 156.846 101.02 158.668 101.189 160.233C101.499 162.899 102.063 165.027 103.007 165.981C106.768 169.747 122.419 167.485 128.617 160.197C129.749 158.907 130.564 157.429 131.012 155.856C132.942 153.752 133.365 150.475 131.702 149.387Z" fill="#FFB894"/>
<path d="M120.39 157.604C120.393 158.139 120.213 158.663 119.872 159.109C119.532 159.555 119.047 159.903 118.478 160.11C117.909 160.316 117.283 160.371 116.678 160.269C116.073 160.166 115.517 159.909 115.08 159.532C114.644 159.154 114.346 158.673 114.224 158.148C114.103 157.624 114.164 157.08 114.399 156.585C114.634 156.091 115.033 155.668 115.546 155.37C116.058 155.073 116.66 154.914 117.277 154.914C118.1 154.914 118.89 155.197 119.473 155.701C120.057 156.205 120.386 156.89 120.39 157.604Z" fill="#F29272"/>
<path d="M103.485 157.604C103.503 158.199 103.292 158.783 102.887 159.263C102.482 159.743 101.904 160.093 101.245 160.258C101.062 158.656 100.964 156.871 100.936 155.024C101.639 155.131 102.278 155.447 102.743 155.918C103.208 156.388 103.47 156.984 103.485 157.604Z" fill="#F29272"/>
<path d="M107.867 150.475C108.294 151.163 108.443 151.955 108.289 152.725C108.158 153.489 107.882 154.229 107.472 154.914C107.266 155.211 107.087 155.522 106.937 155.843C106.867 156.097 106.913 156.364 107.064 156.589C107.269 156.878 107.552 157.119 107.888 157.291C108.224 157.464 108.603 157.563 108.994 157.58C108.544 157.712 108.057 157.718 107.604 157.595C107.151 157.471 106.754 157.226 106.472 156.895C106.321 156.704 106.219 156.488 106.173 156.26C106.126 156.032 106.137 155.798 106.204 155.574C106.349 155.202 106.533 154.841 106.754 154.498C107.135 153.868 107.451 153.209 107.698 152.529C107.907 151.861 107.965 151.163 107.867 150.475Z" fill="#F29272"/>
<path d="M110.938 149.13C111.255 148.873 111.661 148.714 112.093 148.677C112.523 148.643 112.958 148.676 113.375 148.775C113.796 148.87 114.184 149.055 114.502 149.313C114.807 149.554 115.047 149.851 115.206 150.181C115.223 150.206 115.233 150.233 115.236 150.261C115.239 150.289 115.235 150.318 115.224 150.345C115.214 150.371 115.196 150.396 115.174 150.416C115.151 150.437 115.124 150.452 115.093 150.463C115.054 150.486 115.007 150.498 114.96 150.498C114.912 150.498 114.865 150.486 114.826 150.463C114.585 150.262 114.315 150.089 114.023 149.949C113.754 149.826 113.464 149.743 113.163 149.705C112.558 149.619 111.966 149.827 111.29 149.778H111.191C111.138 149.775 111.086 149.763 111.039 149.742C110.991 149.721 110.949 149.692 110.915 149.656C110.881 149.621 110.855 149.58 110.839 149.536C110.824 149.491 110.819 149.445 110.825 149.399C110.816 149.349 110.821 149.299 110.841 149.252C110.861 149.204 110.894 149.163 110.938 149.13Z" fill="#523329"/>
<path d="M105.951 149.729C105.274 149.729 104.683 149.57 104.077 149.656C103.777 149.694 103.486 149.777 103.218 149.9C102.925 150.04 102.655 150.213 102.415 150.414C102.393 150.435 102.367 150.451 102.338 150.463C102.309 150.474 102.278 150.48 102.246 150.48C102.214 150.48 102.182 150.474 102.153 150.463C102.124 150.451 102.098 150.435 102.077 150.414C102.05 150.379 102.036 150.339 102.036 150.298C102.036 150.256 102.05 150.216 102.077 150.181C102.239 149.85 102.485 149.553 102.795 149.313C103.113 149.055 103.5 148.87 103.922 148.775C104.339 148.676 104.773 148.643 105.204 148.677C105.636 148.714 106.042 148.873 106.359 149.13C106.397 149.162 106.426 149.2 106.447 149.242C106.467 149.284 106.477 149.329 106.477 149.374C106.477 149.42 106.467 149.465 106.447 149.507C106.426 149.549 106.397 149.587 106.359 149.619C106.285 149.679 106.192 149.718 106.091 149.729H105.951Z" fill="#523329"/>
<path d="M107.993 159.977C108.954 160.01 109.913 159.873 110.811 159.573C111.221 159.41 111.583 159.168 111.867 158.864C112.189 158.516 112.481 158.148 112.741 157.763C112.804 158.255 112.701 158.752 112.445 159.194C112.202 159.647 111.796 160.02 111.29 160.258C110.751 160.468 110.156 160.544 109.571 160.478C109.002 160.438 108.457 160.264 107.993 159.977Z" fill="#F29272"/>
<path d="M112.811 153.349C112.811 154.205 112.332 154.902 111.741 154.902C111.149 154.902 110.67 154.205 110.67 153.349C110.67 152.493 111.149 151.796 111.741 151.796C112.332 151.796 112.811 152.493 112.811 153.349Z" fill="#523329"/>
<path d="M104.161 154.902C104.753 154.902 105.232 154.206 105.232 153.349C105.232 152.491 104.753 151.796 104.161 151.796C103.57 151.796 103.091 152.491 103.091 153.349C103.091 154.206 103.57 154.902 104.161 154.902Z" fill="#523329"/>
<path d="M130.618 152.921C130.52 152.761 130.377 152.625 130.201 152.527C130.026 152.428 129.825 152.37 129.617 152.358C129.224 152.339 128.834 152.428 128.504 152.615C127.829 153.03 127.247 153.548 126.786 154.144C126.715 154.201 126.622 154.233 126.525 154.233C126.428 154.233 126.335 154.201 126.265 154.144C126.189 154.099 126.137 154.03 126.119 153.953C126.1 153.875 126.117 153.795 126.166 153.728C126.331 153.508 126.548 153.323 126.803 153.183C127.059 153.044 127.346 152.954 127.645 152.921C127.938 152.872 128.239 152.872 128.533 152.921C128.699 152.943 128.859 152.995 129.002 153.072C129.145 153.15 129.268 153.253 129.364 153.373C129.534 153.604 129.61 153.878 129.579 154.151C129.548 154.423 129.413 154.679 129.195 154.877C128.823 155.209 128.319 155.406 127.786 155.428C128.253 155.286 128.657 155.021 128.941 154.669C129.053 154.525 129.112 154.354 129.112 154.18C129.112 154.006 129.053 153.836 128.941 153.691C128.744 153.471 128.293 153.459 127.856 153.532C127.638 153.561 127.429 153.631 127.244 153.736C127.059 153.842 126.903 153.981 126.786 154.144L126.166 153.801C126.68 153.13 127.377 152.58 128.195 152.199C128.634 152.017 129.134 151.978 129.603 152.089C129.848 152.125 130.075 152.223 130.256 152.371C130.437 152.519 130.562 152.71 130.618 152.921Z" fill="#F29272"/>
<path d="M139.901 142.355C139.253 139.335 134.365 136.314 131.449 135.752C129.871 135.434 129.096 137.549 128.716 139.542C122.165 135.654 107.585 135.959 104.204 138.858C102.68 140.041 101.696 141.659 101.429 143.419C98.631 149.863 97.721 156.809 98.7801 163.633C99.2732 166.751 96.8783 169.026 96.9065 171.41C96.9258 172.184 97.2429 172.929 97.8072 173.527C98.3715 174.126 99.1505 174.543 100.02 174.712C102.992 175.348 107.613 176.094 110.43 175.336V167.742C110.43 167.742 103.105 167.742 102.288 164.501C101.583 161.75 101.626 151.05 101.753 145.339C105.669 149.081 111.177 146.195 113.022 145.045C113.434 144.789 113.924 144.644 114.431 144.63C115.087 144.64 115.716 144.854 116.205 145.233C116.694 145.613 117.009 146.132 117.094 146.696C117.778 149.349 119.369 151.762 121.658 153.618C121.888 153.958 122.157 154.278 122.461 154.572C122.652 154.755 122.796 154.972 122.883 155.207C123.075 155.742 123.04 156.319 122.785 156.834C122.494 157.416 122.038 157.925 121.461 158.314C121.358 158.392 121.291 158.5 121.273 158.617C121.255 158.735 121.287 158.854 121.363 158.953C121.438 159.052 121.553 159.123 121.685 159.154C121.817 159.185 121.958 159.173 122.08 159.121C122.934 158.738 123.657 158.169 124.18 157.47C124.757 156.7 125.001 155.777 124.87 154.865C124.802 154.383 124.625 153.918 124.349 153.495C124.25 153.361 124.179 153.239 124.095 153.129C125.405 151.343 127.067 149.46 129.829 150.438C133.646 151.82 130.364 156.088 129.265 157.017C127.476 158.509 124.292 158.46 123.87 160.502C123.447 162.545 122.08 172.242 123.067 174.627C123.067 174.627 139.267 177.072 138.915 172.792C138.52 167.901 134.21 163.388 135.266 158.717C136.816 151.869 135.717 147.589 133.857 144.593C137.407 145.18 140.352 144.361 139.901 142.355Z" fill="#523329"/>
<path d="M426.169 404.037C426.169 405.774 396.219 407.18 359.269 407.18C322.318 407.18 292.368 405.774 292.368 404.037C292.368 402.301 322.318 400.894 359.269 400.894C396.219 400.894 426.169 402.301 426.169 404.037Z" fill="#D7E5FC"/>
<path d="M435.565 136.143C435.555 133.478 434.819 130.853 433.417 128.483C432.016 126.112 429.988 124.063 427.5 122.502C425.012 120.941 422.135 119.913 419.102 119.502C416.069 119.09 412.967 119.307 410.049 120.135C407.131 120.963 404.48 122.378 402.312 124.265C400.145 126.151 398.521 128.456 397.575 130.991C396.629 133.526 396.387 136.219 396.869 138.851C397.351 141.483 398.542 143.978 400.347 146.134C402.954 149.201 404.361 152.912 404.362 156.724V161.261H427.761V156.724C427.8 152.866 429.24 149.118 431.874 146.011C434.274 143.143 435.566 139.688 435.565 136.143Z" fill="#FCC574"/>
<path d="M414.927 162.068C414.787 159.402 414.617 156.748 414.392 154.082C414.167 151.417 413.955 148.775 413.603 146.121C413.438 144.805 413.179 143.498 412.828 142.208C412.753 141.9 412.625 141.603 412.448 141.328C412.335 141.047 411.983 140.814 411.772 140.839C411.561 140.863 411.377 141.181 411.293 141.462C411.053 142.401 411.198 143.382 411.701 144.238C411.869 144.489 412.134 144.679 412.448 144.776C412.799 144.845 413.16 144.869 413.519 144.85C415.028 144.754 416.509 144.44 417.9 143.92C419.313 143.503 420.536 142.706 421.394 141.646C421.581 141.379 421.706 141.083 421.762 140.775C421.818 140.467 421.802 140.152 421.717 139.848C421.619 139.225 421.084 138.625 420.478 139.078C419.917 139.479 419.497 140.008 419.266 140.606C418.995 141.217 418.806 141.853 418.703 142.502C418.496 143.815 418.458 145.144 418.59 146.464C418.919 151.787 419.196 157.111 419.421 162.435C418.999 157.111 418.618 151.792 418.28 146.476C418.128 145.137 418.151 143.787 418.351 142.453C418.455 141.781 418.644 141.12 418.914 140.484C419.183 139.811 419.673 139.22 420.323 138.784C420.509 138.666 420.728 138.594 420.957 138.576H421.309C421.417 138.626 421.521 138.683 421.619 138.748C421.921 139.014 422.118 139.356 422.182 139.726C422.377 140.423 422.256 141.158 421.844 141.78C421.431 142.379 420.868 142.889 420.196 143.272C419.558 143.669 418.868 143.997 418.139 144.251C416.697 144.777 415.164 145.091 413.603 145.18C413.196 145.202 412.787 145.169 412.392 145.082C411.974 144.964 411.623 144.716 411.406 144.385C411.013 143.768 410.819 143.072 410.842 142.367C410.829 142.017 410.872 141.668 410.969 141.328C411.096 141.022 411.208 140.57 411.772 140.46C411.895 140.421 412.029 140.421 412.152 140.46C412.255 140.5 412.35 140.553 412.434 140.619C412.603 140.733 412.735 140.885 412.814 141.059C413.006 141.367 413.148 141.696 413.237 142.037C413.579 143.343 413.824 144.666 413.969 145.999C414.575 151.404 414.801 156.736 414.927 162.068Z" fill="#143C4A"/>
<g style="mix-blend-mode:screen" opacity="0.4">
<path d="M415.28 125.492C415.072 125.099 414.964 124.671 414.965 124.239C414.965 123.806 415.073 123.379 415.282 122.986C415.491 122.593 415.795 122.244 416.174 121.963C416.553 121.682 416.998 121.476 417.477 121.358C419.972 120.831 422.605 121.169 424.817 122.3C430.733 125.003 434.072 133.868 433.269 137.488C432.593 140.447 418.266 131.264 415.28 125.492Z" fill="#FCC574"/>
</g>
<path d="M428.367 160.906H403.812V163.242H428.367V160.906Z" fill="#B4CBDD"/>
<path d="M428.367 164.391H403.812V166.727H428.367V164.391Z" fill="#B4CBDD"/>
<path d="M404.855 162.435H427.395V167.51C427.395 168.713 426.844 169.867 425.864 170.718C424.884 171.568 423.554 172.046 422.168 172.046H410.081C408.695 172.046 407.366 171.568 406.386 170.718C405.406 169.867 404.855 168.713 404.855 167.51V162.435Z" fill="#B4CBDD"/>
<g style="mix-blend-mode:multiply">
<path d="M427.338 163.229H404.855V164.342H427.338V163.229Z" fill="#B4CBDD"/>
</g>
<g style="mix-blend-mode:multiply">
<path d="M427.338 166.69H404.855V167.803H427.338V166.69Z" fill="#B4CBDD"/>
</g>
<path d="M323.247 370.274C315.415 380.35 310.005 387.553 310.005 387.553L320.979 394.89L338.645 377.244C333.343 375.213 328.2 372.885 323.247 370.274Z" fill="#FFC68A"/>
<path d="M308.216 387.198C308.805 384.751 310.287 382.534 312.442 380.876C312.559 380.786 312.696 380.718 312.844 380.674C312.992 380.63 313.148 380.613 313.304 380.622C313.46 380.631 313.612 380.667 313.752 380.727C313.892 380.788 314.016 380.871 314.119 380.974C316.898 383.867 320.318 386.245 324.177 387.969C324.557 386.599 325.276 384.948 327.093 385.046C327.662 385.098 328.201 385.293 328.642 385.609C331.657 387.724 333.207 390.94 335.686 393.447C338.799 396.565 343.237 398.436 347.731 399.843C347.973 399.915 348.173 400.067 348.289 400.266C348.405 400.464 348.427 400.694 348.351 400.907C348.153 401.537 347.859 402.141 347.477 402.704C346.805 403.312 346.031 403.827 345.181 404.233C344.903 404.395 344.584 404.499 344.252 404.535C343.919 404.571 343.581 404.539 343.265 404.441C331.304 400.721 319.897 395.774 309.287 389.705C308.847 389.423 308.512 389.035 308.322 388.59C308.132 388.145 308.095 387.661 308.216 387.198Z" fill="#B4CBDD"/>
<path d="M387.866 260.228C387.725 265.987 385.133 306.562 383.893 325.651C383.488 332.064 380.581 338.166 375.652 342.955L331.333 386.22L320.444 377.501L319.542 376.767L316.95 374.688L357.55 325.345L351.633 285.358L350.957 280.747L344.28 235.599H383.245C383.245 235.599 388.077 252.646 387.866 260.228Z" fill="#143C4A"/>
<g style="mix-blend-mode:multiply" opacity="0.5">
<path d="M354.591 329.149L353.958 364.135L364.579 353.777L354.591 329.149Z" fill="#143C4A"/>
</g>
<g style="mix-blend-mode:multiply" opacity="0.5">
<path d="M332.686 384.899L331.122 357.446L325.924 364.135L331.333 386.22L332.686 384.899Z" fill="#143C4A"/>
</g>
<g style="mix-blend-mode:screen" opacity="0.5">
<g style="mix-blend-mode:screen" opacity="0.5">
<path d="M364.974 326.397L320.444 377.501L319.542 376.767L363.819 325.957L351.633 285.296L350.45 281.347C350.41 281.212 350.432 281.07 350.511 280.949C350.59 280.828 350.719 280.738 350.872 280.698H350.957C351.103 280.683 351.251 280.713 351.373 280.786C351.495 280.858 351.582 280.966 351.619 281.09L365.086 325.945C365.104 326.023 365.103 326.103 365.084 326.181C365.064 326.259 365.027 326.332 364.974 326.397Z" fill="#143C4A"/>
</g>
</g>
<path d="M332.559 374.786C333.728 387.981 334.799 397.519 334.799 397.519H351.507L351.831 382.099C345.308 379.886 338.814 377.525 332.559 374.786Z" fill="#FFC68A"/>
<path d="M333.066 401.824C332.372 399.379 332.61 396.805 333.742 394.487C333.866 394.234 334.101 394.035 334.393 393.932C334.686 393.829 335.014 393.83 335.306 393.936C339.262 395.478 343.536 396.31 347.872 396.382C347.534 395 347.351 393.251 349.041 392.713C349.591 392.519 350.197 392.481 350.774 392.603C354.549 393.374 357.564 395.685 361.086 396.993C365.467 398.62 370.383 398.632 375.173 398.216C375.428 398.192 375.684 398.255 375.887 398.392C376.09 398.529 376.223 398.729 376.258 398.95C376.4 399.59 376.438 400.245 376.37 400.894C376.074 401.698 375.637 402.457 375.074 403.144C374.903 403.393 374.667 403.605 374.386 403.762C374.105 403.919 373.786 404.017 373.454 404.049C360.801 405.222 348.031 405.074 335.419 403.609C334.867 403.546 334.35 403.343 333.931 403.026C333.512 402.708 333.211 402.29 333.066 401.824Z" fill="#B4CBDD"/>
<path d="M383.245 235.538L355.733 264.202L353.493 390.561H332.672C332.672 390.561 327.22 271.857 326.178 263.554C325.135 255.251 327.121 238.289 335.151 235.513L383.245 235.538Z" fill="#143C4A"/>
<g style="mix-blend-mode:screen" opacity="0.5">
<path d="M337.884 377.012L338.18 390.586H336.94L336.658 376.51L334.151 260.007V259.567C334.136 259.499 334.136 259.428 334.151 259.359L335.813 235.538H337.053L335.447 258.222L354.31 235.538H355.817L335.334 260.179L337.884 377.012Z" fill="#143C4A"/>
</g>
<path d="M349.111 176.657H366.382L365.523 157.898H350.407L349.111 176.657Z" fill="#FFC68A"/>
<path d="M365.974 167.742C365.974 167.742 357.522 167.656 354.197 164.501C354.197 164.501 359.043 172.328 366.171 171.973L365.974 167.742Z" fill="#EDA14E"/>
<path d="M410.124 201.921C410.943 201.97 411.745 202.148 412.49 202.447C414.857 203.364 417.167 204.367 419.449 205.418L420.492 191.074L410.462 189.46L408.236 200.955C408.87 201.273 409.504 201.591 410.124 201.921Z" fill="#FFC68A"/>
<path d="M408.447 183.896C408.47 183.584 408.592 183.283 408.799 183.028C408.901 182.895 409.049 182.795 409.222 182.742C409.395 182.689 409.583 182.686 409.757 182.734C410.041 182.882 410.255 183.111 410.363 183.382C410.894 184.285 411.627 185.087 412.518 185.743C413.927 183.713 413.603 181.206 413.631 178.858C413.631 178.259 413.871 177.476 414.561 177.451C415.251 177.427 415.505 178.014 415.66 178.528C416.042 179.766 416.18 181.052 416.068 182.331C416.28 180.802 416.477 179.274 416.674 177.745C416.674 177.268 416.942 176.681 417.477 176.657C418.013 176.632 418.21 177.011 418.393 177.354C419.363 179.154 419.649 181.175 419.21 183.126C419.604 181.536 419.999 179.934 420.379 178.332C420.407 178.133 420.511 177.948 420.675 177.806C420.807 177.732 420.966 177.703 421.122 177.723C421.277 177.743 421.419 177.812 421.52 177.916C421.727 178.125 421.863 178.379 421.915 178.65C422.451 180.436 422.646 182.287 422.492 184.128L423.507 182.062C423.704 181.658 424.056 181.169 424.563 181.255C425.07 181.34 425.169 181.866 425.169 182.282C425.098 184.401 424.388 186.467 423.112 188.274C421.845 190.069 420.402 191.767 418.801 193.349C418.569 193.627 418.277 193.863 417.942 194.046C417.53 194.218 417.073 194.29 416.618 194.254C415.063 194.139 413.586 193.609 412.392 192.737C410.891 191.699 409.735 190.333 409.042 188.78C408.349 187.226 408.144 185.541 408.447 183.896Z" fill="#FFC68A"/>
<path d="M422.013 195.538C422.013 195.538 419.788 238.632 413.786 240.429C407.785 242.227 381.005 224.936 374.948 214.981C368.89 205.027 348.788 184.789 369.735 178.038C369.735 178.038 395.346 196.565 404.855 213.037L409.701 193.385L417.9 194.816L419.083 195.024L422.013 195.538Z" fill="#F05956"/>
<g style="mix-blend-mode:multiply" opacity="0.5">
<path d="M385.02 225.315V199.989L390.655 229.582L385.02 225.315Z" fill="#F05956"/>
</g>
<g style="mix-blend-mode:screen" opacity="0.7">
<g style="mix-blend-mode:screen" opacity="0.7">
<path d="M419.083 195.024L411.786 231.539C411.719 231.905 411.543 232.25 411.276 232.539C411.01 232.828 410.661 233.053 410.265 233.19C409.956 233.3 409.626 233.359 409.292 233.361C408.785 233.349 408.294 233.204 407.884 232.945L379.639 215.214L380.357 214.358L408.532 232.077C408.709 232.194 408.918 232.269 409.139 232.294C409.359 232.319 409.584 232.294 409.79 232.221C409.996 232.149 410.177 232.03 410.314 231.879C410.452 231.727 410.541 231.547 410.574 231.356L417.886 194.816L419.083 195.024Z" fill="#F05956"/>
</g>
</g>
<path d="M384.006 239.316C383.33 241.102 365.382 242.533 349.774 242.056C338.377 241.713 328.22 240.356 326.952 237.36C326.662 236.566 326.478 235.745 326.403 234.914C326.403 234.547 326.318 234.168 326.29 233.765C325.811 227.785 326.811 216.644 329.727 205.798C330.249 203.804 330.854 201.823 331.502 199.891C334.038 192.407 337.532 185.461 342.166 180.851C343.158 179.842 344.262 178.92 345.463 178.1C345.886 177.818 346.308 177.549 346.745 177.305C347.236 177.02 347.786 176.82 348.365 176.718C348.649 176.647 348.943 176.606 349.238 176.595C353.211 176.436 365.664 176.045 367.988 176.975C368.668 177.296 369.302 177.686 369.876 178.136C370.2 178.356 370.524 178.613 370.862 178.882C375.241 182.456 379.309 186.307 383.034 190.402C386.612 194.621 385.203 236.21 384.006 239.316Z" fill="#F05956"/>
<path d="M357.817 237.592L372.454 235.257L371.905 226.415L356.578 227.455C356.747 230.879 357.817 234.156 357.817 237.592Z" fill="#FFC68A"/>
<path d="M377.54 223.37C377.9 223.323 378.269 223.356 378.61 223.468C378.78 223.523 378.926 223.624 379.025 223.756C379.124 223.888 379.171 224.044 379.16 224.202C379.068 224.477 378.863 224.712 378.582 224.862C377.699 225.551 376.976 226.382 376.455 227.308C379.061 227.956 381.794 227.124 384.428 226.574C385.104 226.44 386.034 226.44 386.231 227.014C386.429 227.589 385.823 227.956 385.288 228.237C383.993 228.839 382.594 229.252 381.146 229.46L386.415 228.861C386.95 228.861 387.668 228.861 387.823 229.277C387.978 229.692 387.598 229.974 387.26 230.218C385.481 231.469 383.291 232.197 381.005 232.297L386.64 232.126C386.875 232.102 387.112 232.145 387.316 232.248C387.426 232.346 387.493 232.474 387.506 232.61C387.519 232.746 387.477 232.882 387.387 232.994C387.199 233.216 386.946 233.389 386.654 233.496C384.785 234.378 382.763 234.989 380.667 235.305L383.231 235.66C383.738 235.721 384.372 235.905 384.386 236.357C384.4 236.81 383.851 237.005 383.386 237.103C380.999 237.553 378.518 237.456 376.187 236.822C373.875 236.176 371.631 235.358 369.482 234.376C369.116 234.249 368.781 234.062 368.496 233.826C368.204 233.521 368.014 233.153 367.946 232.762C367.681 231.416 367.918 230.033 368.622 228.812C369.424 227.303 370.672 226.005 372.238 225.05C373.804 224.094 375.633 223.515 377.54 223.37Z" fill="#FFC68A"/>
<path d="M369.735 238.045C363.22 239.825 356.555 241.166 349.802 242.056C330.685 244.575 315.429 242.679 313.414 238.045C310.738 231.93 322.346 195.171 327.417 186.611C330.333 181.719 336.856 179.139 341.843 177.879C342.491 177.708 343.11 177.574 343.688 177.464C345.235 177.124 346.807 176.875 348.393 176.718C348.464 176.84 348.985 177.843 349.703 179.298C349.872 179.677 350.069 180.081 350.267 180.521C351.985 184.189 354.225 189.472 354.197 192.309C354.197 196.883 336.644 227.687 336.644 227.687L367.862 226.403L368.862 232.603L369.045 233.655L369.735 238.045Z" fill="#F05956"/>
<g style="mix-blend-mode:multiply" opacity="0.5">
<path d="M336.63 227.699L346.674 209.271L343.096 224.764L353.169 227.014L336.63 227.699Z" fill="#F05956"/>
</g>
<g style="mix-blend-mode:screen" opacity="0.7">
<path d="M368.848 232.615L369.031 233.667C360.404 235.696 351.513 236.752 342.575 236.81C337.103 236.93 331.644 236.295 326.403 234.926C324.566 234.425 322.851 233.633 321.346 232.591C320.474 232.022 319.788 231.267 319.356 230.398C318.924 229.53 318.76 228.578 318.88 227.638C319.5 223.04 325.529 210.97 331.559 199.903C335.785 192.04 340.011 184.666 342.223 180.863L343.632 178.552C343.026 178.32 342.448 178.1 341.941 177.879C342.589 177.708 343.209 177.574 343.787 177.464L345.59 178.112C346.97 178.589 348.382 178.997 349.816 179.335C356.49 181.09 363.675 180.655 370.003 178.112C370.327 178.332 370.651 178.589 370.989 178.858C367.172 180.57 362.931 181.447 358.635 181.414C355.85 181.397 353.079 181.089 350.379 180.496C348.461 180.091 346.578 179.568 344.745 178.931C343.632 180.814 336.208 193.606 329.826 205.834C324.966 215.104 320.697 224.08 320.19 227.846C320.102 228.611 320.243 229.383 320.601 230.086C320.959 230.789 321.522 231.399 322.233 231.857C323.494 232.734 324.925 233.409 326.459 233.85C335.376 236.773 352.718 236.418 368.848 232.615Z" fill="#F05956"/>
</g>
<path d="M374.398 144.679C374.345 143.877 374.095 143.095 373.664 142.384C373.234 141.673 372.635 141.051 371.905 140.557C365.312 136.326 355.916 138.882 350.887 140.142C349.854 140.416 348.922 140.919 348.181 141.601C347.44 142.282 346.916 143.12 346.66 144.03C346.16 145.637 345.784 147.272 345.533 148.922C344.897 148.903 344.273 149.08 343.773 149.423C341.645 150.805 342.913 155.746 346.379 157.274C346.884 158.47 347.581 159.598 348.45 160.625C354.648 167.962 369.101 169.686 372.877 165.92C373.821 164.966 374.37 162.838 374.68 160.172C374.863 158.57 374.962 156.785 374.976 154.938C374.994 151.512 374.802 148.087 374.398 144.679Z" fill="#FFC68A"/>
<path d="M366.27 150.475C365.832 151.16 365.678 151.954 365.833 152.725C365.962 153.491 366.243 154.232 366.664 154.914C366.865 155.214 367.044 155.524 367.2 155.843C367.251 155.977 367.271 156.118 367.259 156.259C367.247 156.4 367.203 156.537 367.129 156.663C366.926 156.953 366.644 157.195 366.307 157.367C365.97 157.54 365.59 157.638 365.199 157.653C365.649 157.788 366.136 157.794 366.59 157.671C367.044 157.547 367.44 157.301 367.721 156.968C367.877 156.78 367.983 156.564 368.032 156.335C368.08 156.107 368.071 155.872 368.003 155.648C367.854 155.275 367.665 154.914 367.439 154.572C367.056 153.943 366.745 153.284 366.509 152.603C366.265 151.915 366.183 151.191 366.27 150.475Z" fill="#EDA14E"/>
<path d="M363.171 149.13C362.852 148.875 362.447 148.716 362.015 148.677C361.585 148.643 361.151 148.676 360.734 148.775C360.312 148.87 359.925 149.055 359.607 149.313C359.296 149.553 359.051 149.85 358.888 150.181C358.874 150.206 358.865 150.233 358.863 150.261C358.861 150.289 358.866 150.317 358.876 150.343C358.887 150.369 358.903 150.393 358.924 150.414C358.946 150.434 358.972 150.451 359.001 150.463C359.04 150.486 359.087 150.498 359.135 150.498C359.182 150.498 359.229 150.486 359.268 150.463C359.506 150.259 359.777 150.086 360.071 149.949C360.34 149.826 360.63 149.743 360.931 149.705C361.536 149.619 362.128 149.827 362.804 149.778H362.889C362.943 149.775 362.995 149.763 363.043 149.742C363.091 149.721 363.134 149.692 363.17 149.657C363.205 149.622 363.232 149.581 363.249 149.537C363.266 149.492 363.273 149.445 363.269 149.399C363.276 149.35 363.27 149.301 363.253 149.255C363.236 149.209 363.208 149.166 363.171 149.13Z" fill="#523329"/>
<path d="M368.143 149.729C368.82 149.729 369.425 149.57 370.031 149.656C370.331 149.696 370.621 149.779 370.89 149.9C371.183 150.04 371.453 150.213 371.693 150.414C371.741 150.453 371.804 150.476 371.869 150.476C371.935 150.476 371.998 150.453 372.046 150.414C372.069 150.378 372.081 150.338 372.081 150.298C372.081 150.257 372.069 150.217 372.046 150.181C371.887 149.851 371.646 149.554 371.341 149.313C371.023 149.055 370.636 148.87 370.214 148.775C369.797 148.676 369.363 148.643 368.932 148.677C368.5 148.714 368.094 148.873 367.777 149.13C367.74 149.162 367.71 149.2 367.689 149.242C367.669 149.284 367.659 149.329 367.659 149.374C367.659 149.42 367.669 149.465 367.689 149.507C367.71 149.549 367.74 149.587 367.777 149.619C367.851 149.679 367.944 149.718 368.045 149.729H368.143Z" fill="#523329"/>
<path d="M362.368 154.902C362.959 154.902 363.438 154.206 363.438 153.349C363.438 152.491 362.959 151.796 362.368 151.796C361.776 151.796 361.297 152.491 361.297 153.349C361.297 154.206 361.776 154.902 362.368 154.902Z" fill="#523329"/>
<path d="M369.932 154.902C370.524 154.902 371.003 154.206 371.003 153.349C371.003 152.491 370.524 151.796 369.932 151.796C369.341 151.796 368.862 152.491 368.862 153.349C368.862 154.206 369.341 154.902 369.932 154.902Z" fill="#523329"/>
<path d="M344.251 152.26C344.352 152.103 344.496 151.971 344.671 151.875C344.846 151.779 345.045 151.722 345.252 151.71C345.645 151.692 346.034 151.782 346.365 151.967C347.047 152.367 347.639 152.873 348.111 153.459C348.139 153.494 348.175 153.524 348.217 153.547C348.259 153.57 348.305 153.585 348.354 153.592C348.403 153.599 348.452 153.597 348.5 153.587C348.548 153.576 348.593 153.558 348.633 153.532C348.703 153.484 348.751 153.416 348.769 153.34C348.787 153.264 348.774 153.185 348.731 153.116C348.464 152.795 348.097 152.546 347.673 152.399C347.249 152.252 346.785 152.212 346.336 152.285C346.17 152.307 346.01 152.359 345.867 152.437C345.724 152.514 345.601 152.617 345.505 152.737C345.333 152.967 345.255 153.24 345.283 153.513C345.311 153.785 345.444 154.042 345.66 154.241C346.039 154.565 346.539 154.76 347.069 154.792C346.605 154.646 346.202 154.381 345.914 154.034C345.799 153.89 345.737 153.719 345.737 153.544C345.737 153.369 345.799 153.199 345.914 153.055C346.111 152.823 346.562 152.811 346.999 152.896C347.2 152.923 347.394 152.984 347.568 153.077C347.742 153.169 347.893 153.291 348.013 153.434L348.619 153.092C348.088 152.43 347.376 151.892 346.548 151.527C346.108 151.347 345.609 151.308 345.139 151.417C344.918 151.476 344.719 151.585 344.563 151.733C344.407 151.882 344.299 152.064 344.251 152.26Z" fill="#EDA14E"/>
<path d="M367.538 159.145L360.635 157.458C360.635 157.458 361.776 163.645 367.509 159.145" fill="white"/>
<path d="M375.215 138.246C373.553 134.125 362.396 128.757 353.239 133.453C353.239 133.453 349.013 134.675 348.492 137.855C346.862 138.285 345.449 139.182 344.482 140.399C343.515 141.616 343.052 143.081 343.167 144.556C343.167 144.764 343.167 144.948 343.167 145.131C341.941 147.112 339.856 150.475 342.645 156.565C343.216 158.04 344.214 159.363 345.544 160.406C346.874 161.449 348.49 162.177 350.239 162.52L346.294 157.323C346.294 157.323 342.42 155.171 342.73 151.893C342.764 151.511 342.902 151.14 343.132 150.812C343.362 150.484 343.678 150.208 344.054 150.006C344.429 149.803 344.855 149.68 345.295 149.647C345.736 149.614 346.18 149.671 346.59 149.815C347.636 150.143 348.527 150.762 349.126 151.576L349.238 151.759C349.312 151.873 349.378 151.992 349.436 152.114C349.996 153.298 350.227 154.579 350.112 155.856L350.478 155.317C350.932 154.634 351.304 153.913 351.591 153.165C352.366 151.172 353.704 147.173 353.31 144.471C353.31 144.471 365.115 147.528 373.356 145.131C373.356 145.131 373.046 150.976 374.905 153.373C374.948 153.349 376.864 142.343 375.215 138.246Z" fill="#523329"/>
<path d="M375.891 145.155C375.736 143.903 375.145 142.722 374.196 141.769C373.247 140.816 371.986 140.138 370.581 139.824C365.608 138.686 355.549 140.068 353.112 142.759C350.675 145.449 353.324 148.604 349.309 151.759C349.309 151.759 346.379 149.57 344.618 149.766C342.857 149.961 341.096 152.701 342.674 156.504C341.243 153.784 340.033 150.981 339.053 148.115C337.785 144.348 336.954 140.142 338.236 137.549V137.464C338.391 137.158 338.546 136.864 338.715 136.571C341.955 130.933 346.435 130.261 358.818 131.019C362.335 131.163 365.803 131.799 369.087 132.902C375.356 135.201 377.976 139.383 375.891 145.155Z" fill="#B4CBDD"/>
<g style="mix-blend-mode:multiply">
<g style="mix-blend-mode:multiply">
<path d="M347.858 144.361L346.745 144.776L346.548 144.361C344.688 141.169 340.56 138.711 338.278 137.561V137.476C338.433 137.17 338.588 136.877 338.757 136.583C342.14 138.196 345.036 140.479 347.21 143.248C347.454 143.606 347.67 143.977 347.858 144.361Z" fill="#B4CBDD"/>
</g>
</g>
<path d="M375.892 145.155C375.745 144.107 375.31 143.105 374.624 142.233C374.292 141.808 373.894 141.425 373.44 141.096C372.615 140.515 371.653 140.097 370.623 139.873C369.474 139.629 368.298 139.498 367.115 139.481H365.875C363.562 139.531 361.262 139.798 359.015 140.276C358.621 140.362 358.212 140.46 357.832 140.57C356.064 140.931 354.445 141.71 353.155 142.82C352.618 143.425 352.26 144.134 352.112 144.886C352.003 145.416 351.937 145.951 351.915 146.488C351.951 147.474 351.743 148.456 351.303 149.365C350.863 150.275 350.202 151.091 349.365 151.759C349.365 151.759 346.435 149.57 344.674 149.766H344.463C344.058 149.858 343.695 150.054 343.42 150.328C342.237 151.343 341.547 153.618 342.73 156.443C341.3 153.723 340.09 150.92 339.11 148.054C339.883 147.655 340.688 147.303 341.519 147.002C341.899 146.843 342.279 146.708 342.646 146.574C343.744 146.17 344.73 145.828 345.336 145.547C346.449 145.021 346.562 143.896 348.309 141.744C348.534 141.462 348.773 141.169 349.069 140.851C350.881 138.907 352.926 137.136 355.169 135.568C355.479 135.348 355.789 135.14 356.085 134.957C358.632 133.381 361.677 132.527 364.805 132.511C365.218 132.493 365.632 132.493 366.045 132.511C367.061 132.555 368.073 132.657 369.073 132.817C370.705 133.401 372.207 134.229 373.511 135.262C373.962 135.629 374.364 136.04 374.708 136.485C376.694 138.748 377.159 141.658 375.892 145.155Z" fill="#BCD1E1"/>
<g style="mix-blend-mode:screen" opacity="0.4">
<g style="mix-blend-mode:screen" opacity="0.4">
<path d="M344.406 149.802C344.002 149.895 343.639 150.091 343.364 150.365L341.462 147.063C341.843 146.904 342.223 146.77 342.589 146.635L344.406 149.802Z" fill="#BCD1E1"/>
</g>
</g>
<g style="mix-blend-mode:screen" opacity="0.4">
<g style="mix-blend-mode:screen" opacity="0.4">
<path d="M352.07 144.825C351.961 145.355 351.895 145.89 351.872 146.427L348.252 141.805C348.477 141.523 348.717 141.23 349.013 140.912L352.07 144.825Z" fill="#BCD1E1"/>
</g>
</g>
<g style="mix-blend-mode:screen" opacity="0.4">
<g style="mix-blend-mode:screen" opacity="0.4">
<path d="M358.973 140.215C358.578 140.301 358.17 140.398 357.789 140.509L355.113 135.617C355.423 135.397 355.733 135.189 356.028 135.006L358.973 140.215Z" fill="#BCD1E1"/>
</g>
</g>
<g style="mix-blend-mode:screen" opacity="0.4">
<g style="mix-blend-mode:screen" opacity="0.4">
<path d="M367.073 139.469H365.833L364.861 132.584C365.274 132.566 365.688 132.566 366.101 132.584L367.073 139.469Z" fill="#BCD1E1"/>
</g>
</g>
<g style="mix-blend-mode:screen" opacity="0.4">
<g style="mix-blend-mode:screen" opacity="0.4">
<path d="M374.722 136.485L374.624 142.233C374.292 141.808 373.894 141.425 373.44 141.095L373.525 135.324C373.972 135.671 374.373 136.061 374.722 136.485Z" fill="#BCD1E1"/>
</g>
</g>
<path d="M556.787 404.037C556.787 405.774 526.837 407.18 489.886 407.18C452.935 407.18 422.985 405.774 422.985 404.037C422.985 402.301 452.935 400.894 489.886 400.894C526.837 400.894 556.787 402.301 556.787 404.037Z" fill="#D7E5FC"/>
<path d="M560.013 269.362C560.168 269.286 560.292 269.17 560.368 269.03C560.444 268.889 560.467 268.732 560.435 268.58C560.359 268.275 560.194 267.993 559.956 267.76C558.473 266.034 556.339 264.814 553.927 264.312L526.147 230.341C526.147 230.341 514.046 196.577 511.186 190.903C510.004 188.414 507.775 186.41 504.951 185.297C502.128 184.184 498.922 184.046 495.986 184.911C494.647 185.32 493.457 186.029 492.534 186.965C491.143 188.382 490.251 190.118 489.966 191.963C489.681 193.809 490.015 195.687 490.928 197.372L509.96 233.838C510.811 235.479 511.946 236.997 513.327 238.338L545.432 269.411C545.607 270.878 545.918 272.329 546.362 273.752C546.966 275.771 548.159 277.62 549.827 279.121C550.166 279.414 550.687 279.683 551.081 279.463C551.476 279.243 551.349 278.656 551.081 278.24L550.095 276.21C551.493 277.559 553.129 278.707 554.941 279.61C555.202 279.762 555.502 279.854 555.815 279.879C555.969 279.888 556.123 279.849 556.247 279.768C556.371 279.687 556.457 279.57 556.491 279.439C556.491 279.238 556.411 279.044 556.265 278.889C555.223 277.556 554.195 276.223 553.166 274.878C554.45 276.492 556.297 277.705 558.435 278.338C558.829 278.461 559.336 278.534 559.618 278.265C559.9 277.996 559.618 277.384 559.294 277.042L555.97 273.52C556.942 274.461 558.083 275.258 559.351 275.88C559.872 276.125 560.59 276.321 560.985 275.88C561.379 275.44 560.985 274.755 560.477 274.339C558.576 272.713 556.35 271.16 555.632 268.934C556.779 268.836 557.938 268.935 559.041 269.228C559.335 269.373 559.681 269.42 560.013 269.362Z" fill="#FFB894"/>
<path d="M496.958 211.374L517.694 204.868C517.694 204.868 514.877 188.482 503.212 183.908C491.548 179.335 488.069 191.404 489.689 195.905C491.309 200.405 496.958 211.374 496.958 211.374Z" fill="#E7EFFC"/>
<path d="M481.758 176.657L490.365 180.374L496.873 176.657V157.898H481.758V176.657Z" fill="#FFB894"/>
<path d="M496.873 167.742C496.873 167.742 488.843 167.656 485.603 164.501C485.603 164.501 489.829 172.315 496.873 171.961V167.742Z" fill="#F29272"/>
<path d="M473.488 235.636C473.488 235.636 467.107 188.702 471.727 184.141C474.742 181.323 478.117 178.812 481.786 176.657H496.901C496.901 176.657 514.567 188.311 514.186 198.167C514.017 202.851 509.58 211.618 508.185 219.653C507.283 225.148 507.283 230.727 508.185 236.223L473.488 235.636Z" fill="#FFB894"/>
<path d="M481.786 176.657L495 186.782L496.901 176.657C496.901 176.657 512.679 186.048 514.257 195.428C515.835 204.807 509.735 212.78 509.27 217.439C508.805 222.099 509.369 236.235 509.369 236.235H472.178C472.178 236.235 467.318 189.118 470.079 185.474C472.84 181.829 481.786 176.657 481.786 176.657Z" fill="#E7EFFC"/>
<path d="M471.262 189.68C470.966 191.233 471.065 192.824 471.552 194.341C472.038 195.858 472.901 197.264 474.08 198.46C482.081 206.91 506.565 232.114 512.693 230.549C520.033 228.665 527.668 222.282 526.964 181.145L516.764 182.367L510.622 209.882L492.45 186.831C490.998 185.179 489.036 183.917 486.792 183.192C484.549 182.467 482.114 182.308 479.771 182.734C475.954 183.419 472.206 185.266 471.262 189.68Z" fill="#FFB894"/>
<path d="M516.511 183.236C516.511 183.236 515.172 175.226 516.877 171.435C518.582 167.644 525.625 164.293 526.499 164.758C527.372 165.223 522.427 171.435 522.427 171.435C524.584 172.519 526.642 173.746 528.584 175.104C529.57 176.094 526.724 181.389 526.499 182.184C526.273 182.979 516.511 183.236 516.511 183.236Z" fill="#FFB894"/>
<path d="M486.561 213.025C486.561 213.025 468.248 196.308 470.192 190.218C472.136 184.128 477.405 180.802 483.293 181.475C489.182 182.147 495 186.696 504.973 201.041L486.561 213.025Z" fill="#E7EFFC"/>
<path opacity="0.5" d="M532.908 172.621C538.145 172.621 542.389 168.936 542.389 164.391C542.389 159.846 538.145 156.161 532.908 156.161C527.672 156.161 523.428 159.846 523.428 164.391C523.428 168.936 527.672 172.621 532.908 172.621Z" fill="#B4CBDD"/>
<g style="mix-blend-mode:multiply">
<path d="M474.643 200.27L486.561 213.025L487.674 212.291L501.437 224.618L481.419 214.345L474.643 200.27Z" fill="#E7EFFC"/>
</g>
<path d="M490.562 239.316C490.562 239.316 480.433 250.506 484.476 273.642C485.688 280.552 489.52 298.308 489.196 317.433C488.689 347.149 494.338 397.519 494.338 397.519H507.312L516.201 259.041L490.562 239.316Z" fill="#FFB894"/>
<path d="M522.78 402.888H499.226C498.912 402.883 498.607 402.793 498.354 402.631C498.102 402.469 497.914 402.242 497.817 401.983L497.31 400.613L496.746 402.888H493.168C491.478 399.39 493.675 394.083 493.675 394.083H507.594L513.581 400.687H522.808C523.143 400.69 523.463 400.807 523.7 401.012C523.937 401.218 524.072 401.496 524.076 401.787C524.076 401.934 524.042 402.079 523.977 402.214C523.911 402.349 523.815 402.472 523.695 402.574C523.574 402.677 523.431 402.757 523.274 402.811C523.116 402.865 522.949 402.891 522.78 402.888Z" fill="#E7EFFC"/>
<path d="M491.872 239.316H470.037C470.037 239.316 455.273 247.877 459.331 271.05C460.246 276.369 464.289 289.625 465.98 304.178C465.304 307.112 464.571 310.06 463.585 312.933C454.245 341.536 446.962 391.319 446.962 391.319L459.246 393.826L469.107 369.993L490.393 305.657L490.478 305.4C490.478 305.4 490.478 305.4 490.407 305.4L491.872 239.316Z" fill="#FFB894"/>
<path d="M471.629 402.827L449.455 395.954C449.153 395.86 448.893 395.685 448.713 395.454C448.533 395.223 448.443 394.949 448.455 394.67V393.239L447.046 395.22L443.68 394.181C443.454 390.39 447.568 386.024 447.568 386.024L460.669 390.084L463.754 398.057L472.446 400.76C472.603 400.808 472.748 400.882 472.871 400.979C472.995 401.076 473.095 401.193 473.166 401.324C473.237 401.455 473.277 401.597 473.284 401.742C473.291 401.886 473.265 402.031 473.207 402.166C473.095 402.433 472.867 402.652 472.572 402.775C472.278 402.899 471.939 402.917 471.629 402.827Z" fill="#E7EFFC"/>
<path d="M532.275 332.891C532.275 333.245 532.275 333.612 532.275 333.954C532.19 337.941 531.584 340.534 530.288 341.182C521.554 345.584 444.637 344.606 444.637 341.182C444.637 340.57 445.004 337.941 445.609 333.954C445.609 333.612 445.722 333.245 445.793 332.891C448.765 313.533 456.626 266.856 457.33 257.549C458.175 246.042 472.164 236.223 472.164 236.223H509.34C515.595 242.667 532.246 309.069 532.275 332.891Z" fill="#F05956"/>
<g style="mix-blend-mode:screen">
<path d="M532.275 332.891C532.275 333.245 532.275 333.612 532.275 333.954H445.595C445.595 333.612 445.708 333.245 445.779 332.891H468.6C468.854 291.851 477.433 242.936 478.658 236.284H479.884C478.799 242.288 470.023 291.619 469.812 332.891H532.275Z" fill="#F05956"/>
</g>
<path d="M505.734 145.706C505.681 144.903 505.43 144.119 504.997 143.408C504.565 142.697 503.961 142.075 503.226 141.585C496.634 137.353 486.829 138.98 481.8 140.252C480.766 140.521 479.832 141.02 479.091 141.7C478.349 142.381 477.826 143.218 477.573 144.128C477.109 145.669 476.587 147.308 476.235 149.02C475.814 149.096 475.419 149.255 475.08 149.484C473.235 150.707 473.953 154.572 476.489 156.577C476.944 157.894 477.654 159.135 478.588 160.246C484.786 167.583 500.437 169.796 504.213 166.03C505.156 165.076 505.706 162.948 506.016 160.282C506.185 158.68 506.283 156.895 506.312 155.048C506.352 151.927 506.159 148.806 505.734 145.706Z" fill="#FFB894"/>
<path d="M510.467 150.597C508.213 160.038 507.875 185.204 507.875 185.204L496.873 176.644V167.742C502.254 167.607 504.184 165.944 505.424 163.376C506.023 161.244 506.288 159.052 506.213 156.858C506.213 156.687 506.213 156.504 506.213 156.332C506.213 154.877 506.213 153.422 506.213 152.26V151.771C506.213 151.404 506.213 151.062 506.213 150.781C506.213 150.499 506.213 150.426 506.213 150.279C506.213 149.839 506.213 149.57 506.213 149.57C497.944 149.57 489.393 146.097 489.393 146.097C489.393 146.097 488.491 149.974 485.73 151.771C485.437 151.957 485.126 152.121 484.8 152.26C484.121 152.518 483.387 152.651 482.645 152.651C481.903 152.651 481.169 152.518 480.489 152.26L480.039 151.771C479.593 151.314 479.087 150.903 478.531 150.548C478.11 150.294 477.612 150.151 477.099 150.139C476.586 150.126 476.08 150.244 475.643 150.478C475.206 150.712 474.857 151.051 474.64 151.455C474.422 151.858 474.345 152.308 474.418 152.749C474.566 154.084 475.265 155.326 476.387 156.248C477.508 157.169 478.975 157.707 480.518 157.763C480.518 157.763 487.111 168.598 483.673 178.063C483.673 178.063 478.644 178.528 476.362 180.178C474.08 181.829 470.403 185.18 470.403 185.18C468.713 170.237 472.967 150.597 473.939 146.17C474.114 145.409 474.433 144.677 474.883 144.006C476.599 141.558 479.014 139.537 481.894 138.138C484.774 136.739 488.022 136.01 491.323 136.021C504.241 135.641 512.778 141.144 510.467 150.597Z" fill="#523329"/>
<path d="M486.857 157.604C486.857 158.136 487.039 158.656 487.379 159.099C487.72 159.541 488.204 159.886 488.77 160.09C489.337 160.293 489.96 160.347 490.561 160.243C491.162 160.139 491.714 159.883 492.148 159.507C492.581 159.13 492.876 158.651 492.996 158.129C493.116 157.607 493.054 157.066 492.82 156.575C492.585 156.083 492.188 155.663 491.678 155.367C491.168 155.072 490.569 154.914 489.956 154.914C489.134 154.914 488.346 155.197 487.765 155.702C487.184 156.206 486.857 156.891 486.857 157.604Z" fill="#F29272"/>
<path d="M503.748 157.604C503.747 158.191 503.966 158.761 504.373 159.229C504.78 159.697 505.352 160.037 506.002 160.197C506.171 158.595 506.269 156.809 506.298 154.963C505.582 155.072 504.935 155.397 504.468 155.88C504.002 156.363 503.747 156.974 503.748 157.604Z" fill="#F29272"/>
<path d="M499.367 150.475C498.939 151.163 498.79 151.955 498.944 152.725C499.075 153.489 499.351 154.229 499.761 154.914C499.966 155.214 500.15 155.524 500.311 155.843C500.373 155.973 500.405 156.112 500.405 156.253C500.405 156.394 500.373 156.533 500.311 156.663C500.105 156.951 499.823 157.192 499.486 157.365C499.15 157.537 498.771 157.636 498.381 157.653C498.83 157.786 499.317 157.791 499.77 157.668C500.223 157.545 500.62 157.3 500.902 156.968C501.052 156.777 501.155 156.561 501.204 156.334C501.252 156.106 501.245 155.873 501.184 155.648C501.035 155.275 500.846 154.914 500.62 154.572C500.239 153.941 499.923 153.282 499.677 152.603C499.408 151.919 499.303 151.195 499.367 150.475Z" fill="#F29272"/>
<path d="M496.296 149.13C495.98 148.87 495.573 148.711 495.141 148.677C494.715 148.642 494.285 148.675 493.873 148.775C493.447 148.87 493.055 149.055 492.732 149.313C492.426 149.554 492.186 149.851 492.027 150.181C492.013 150.206 492.005 150.233 492.002 150.261C492 150.289 492.005 150.316 492.015 150.343C492.026 150.369 492.042 150.393 492.064 150.414C492.085 150.434 492.111 150.451 492.14 150.463C492.179 150.486 492.226 150.498 492.274 150.498C492.321 150.498 492.368 150.486 492.408 150.463C492.648 150.262 492.918 150.089 493.211 149.949C493.481 149.829 493.771 149.747 494.07 149.705C494.676 149.619 495.281 149.827 495.958 149.778H496.042C496.095 149.775 496.147 149.763 496.195 149.742C496.242 149.721 496.284 149.692 496.319 149.656C496.353 149.621 496.378 149.58 496.394 149.536C496.409 149.491 496.414 149.445 496.408 149.399C496.418 149.349 496.412 149.299 496.392 149.252C496.373 149.204 496.339 149.163 496.296 149.13Z" fill="#523329"/>
<path d="M501.283 149.729C501.959 149.729 502.564 149.57 503.156 149.656C503.461 149.695 503.756 149.778 504.03 149.9C504.318 150.04 504.583 150.213 504.818 150.414C504.84 150.435 504.866 150.451 504.895 150.463C504.924 150.474 504.956 150.48 504.988 150.48C505.019 150.48 505.051 150.474 505.08 150.463C505.109 150.451 505.135 150.435 505.157 150.414C505.183 150.379 505.197 150.339 505.197 150.298C505.197 150.256 505.183 150.216 505.157 150.181C504.994 149.85 504.748 149.553 504.438 149.313C504.12 149.055 503.733 148.87 503.311 148.775C502.894 148.676 502.46 148.643 502.029 148.677C501.598 148.716 501.193 148.875 500.874 149.13C500.836 149.162 500.807 149.2 500.786 149.242C500.766 149.284 500.756 149.329 500.756 149.374C500.756 149.42 500.766 149.465 500.786 149.507C500.807 149.549 500.836 149.587 500.874 149.619C500.948 149.679 501.041 149.718 501.142 149.729H501.283Z" fill="#523329"/>
<path d="M499.24 159.977C498.255 160.019 497.271 159.882 496.352 159.573C495.944 159.407 495.583 159.165 495.295 158.864C494.99 158.531 494.712 158.179 494.464 157.812C494.396 158.303 494.494 158.8 494.746 159.243C495.014 159.717 495.461 160.097 496.014 160.319C496.539 160.518 497.115 160.595 497.685 160.544C498.256 160.492 498.801 160.314 499.268 160.026L499.24 159.977Z" fill="#F29272"/>
<path d="M495.493 154.902C496.084 154.902 496.563 154.206 496.563 153.349C496.563 152.491 496.084 151.796 495.493 151.796C494.901 151.796 494.422 152.491 494.422 153.349C494.422 154.206 494.901 154.902 495.493 154.902Z" fill="#523329"/>
<path d="M503.072 154.902C503.663 154.902 504.142 154.206 504.142 153.349C504.142 152.491 503.663 151.796 503.072 151.796C502.48 151.796 502.001 152.491 502.001 153.349C502.001 154.206 502.48 154.902 503.072 154.902Z" fill="#523329"/>
<path d="M476.616 152.921C476.716 152.762 476.859 152.628 477.034 152.53C477.209 152.431 477.409 152.372 477.616 152.358C478.009 152.339 478.399 152.428 478.729 152.615C479.417 153.024 480.01 153.543 480.476 154.144C480.546 154.201 480.639 154.233 480.736 154.233C480.833 154.233 480.926 154.201 480.997 154.144C481.072 154.099 481.124 154.03 481.143 153.953C481.161 153.875 481.144 153.795 481.096 153.728C480.932 153.5 480.712 153.307 480.451 153.163C480.19 153.019 479.895 152.928 479.588 152.896C479.295 152.847 478.994 152.847 478.701 152.896C478.367 152.948 478.069 153.11 477.87 153.349C477.699 153.58 477.624 153.853 477.654 154.126C477.685 154.399 477.82 154.655 478.039 154.853C478.412 155.183 478.915 155.379 479.447 155.403C478.982 155.264 478.582 154.998 478.306 154.645C478.191 154.501 478.129 154.331 478.129 154.156C478.129 153.981 478.191 153.81 478.306 153.667C478.46 153.563 478.641 153.494 478.832 153.466C479.024 153.438 479.221 153.453 479.405 153.508C479.605 153.535 479.796 153.596 479.968 153.688C480.14 153.781 480.289 153.902 480.405 154.046L481.025 153.703C480.489 153.065 479.784 152.549 478.968 152.199C478.529 152.017 478.029 151.978 477.56 152.089C477.328 152.136 477.116 152.238 476.948 152.386C476.781 152.533 476.666 152.719 476.616 152.921Z" fill="#F29272"/>
<path d="M493.633 157.091C492.362 157.081 491.147 156.639 490.249 155.859C489.35 155.079 488.84 154.024 488.829 152.921C488.829 150.475 491.224 150.267 493.661 150.267C496.098 150.267 498.507 150.463 498.507 152.921C498.496 154.034 497.977 155.099 497.063 155.88C496.149 156.662 494.916 157.097 493.633 157.091ZM493.633 150.732C490.816 150.732 489.407 151.074 489.407 152.896C489.407 153.881 489.857 154.825 490.659 155.521C491.461 156.217 492.548 156.608 493.682 156.608C494.816 156.608 495.904 156.217 496.706 155.521C497.507 154.825 497.958 153.881 497.958 152.896C497.916 151.074 496.408 150.732 493.633 150.732Z" fill="#F05956"/>
<path d="M504.635 157.091C503.357 157.091 502.131 156.653 501.224 155.872C500.316 155.091 499.8 154.03 499.789 152.921C499.789 150.475 502.184 150.267 504.635 150.267C507.087 150.267 509.467 150.463 509.467 152.921C509.456 154.028 508.943 155.087 508.038 155.867C507.134 156.648 505.911 157.087 504.635 157.091ZM504.635 150.732C501.818 150.732 500.409 151.074 500.409 152.896C500.409 153.881 500.86 154.825 501.661 155.521C502.463 156.217 503.551 156.608 504.685 156.608C505.819 156.608 506.906 156.217 507.708 155.521C508.51 154.825 508.96 153.881 508.96 152.896C508.904 151.074 507.396 150.732 504.635 150.732Z" fill="#F05956"/>
<path d="M498.057 152.028L497.859 151.563C498.694 151.287 499.617 151.287 500.451 151.563L500.17 151.979C499.481 151.778 498.732 151.795 498.057 152.028Z" fill="#F05956"/>
<path d="M489.083 151.771V152.26H480.377L479.926 151.771H489.083Z" fill="#F05956"/>
<path d="M509.186 151.771H506.213V152.26H509.186V151.771Z" fill="#F05956"/>
<path d="M48.6716 376.315C54.1516 372.353 52.8978 362.398 49.052 357.152C45.2062 351.906 40.022 346.733 40.4447 340.558C40.6701 337.256 42.5296 334.248 43.7552 331.117C48.1222 319.904 43.7552 307.027 34.9224 298.1C28.0056 291.105 18.6657 286.214 8.62144 283.01C8.03722 282.83 7.40254 282.815 6.80783 282.967C6.21313 283.118 5.68874 283.429 5.30938 283.854C4.93003 284.28 4.71506 284.799 4.6951 285.336C4.67514 285.874 4.85121 286.404 5.19823 286.85C9.21336 291.933 12.2489 297.55 14.1859 303.481C16.7921 311.894 16.5244 321.127 12.1714 329.014C8.76232 335.128 2.95835 340.313 0.901604 346.892C-2.62022 357.825 5.31093 369.393 15.7919 376.241L48.6716 376.315Z" fill="#6376BF"/>
<path d="M50.2493 376.315C53.5458 374.786 54.5882 371.069 54.391 367.828C54.1938 364.587 53.1231 361.347 53.6585 358.131C54.3206 354.266 57.1944 350.989 58.7722 347.333C60.7912 342.178 60.7912 336.59 58.7722 331.435C57.5323 328.154 55.8638 325.007 53.7993 322.056C53.6306 321.875 53.4056 321.739 53.1509 321.665C52.8962 321.591 52.6224 321.581 52.3618 321.638C52.1012 321.695 51.8647 321.815 51.6801 321.984C51.4955 322.153 51.3706 322.365 51.32 322.594C50.9 326.202 49.6954 329.709 47.77 332.927C45.9829 336.189 43.7352 339.245 41.0785 342.025C39.6777 343.566 38.0207 344.918 36.162 346.036C33.8095 347.357 30.992 348.03 28.5408 349.179C25.7684 350.47 23.3975 352.324 21.631 354.584C19.8646 356.843 18.7553 359.441 18.398 362.154C18.106 364.872 18.6513 367.609 19.978 370.084C21.3047 372.56 23.3653 374.684 25.9487 376.241L50.2493 376.315Z" fill="#E7EFFC"/>
<path d="M52.2217 377.403L50.9116 384.019L48.8126 394.646L46.3333 407.18H18.3136L15.8342 394.646L13.7493 384.019L12.4392 377.403H52.2217Z" fill="#B4CBDD"/>
<path d="M53.7009 375.887H10.8755V378.932H53.7009V375.887Z" fill="#B4CBDD"/>
<path d="M50.9116 384.019L48.8126 394.646H15.8342L13.7493 384.019H50.9116Z" fill="#E7EFFC"/>
<path d="M581.806 379.8C579.092 380.235 576.297 380.1 573.655 379.407C571.013 378.713 568.601 377.481 566.619 375.813C561.562 371.46 560.139 364.808 560.506 358.62C560.872 352.432 562.717 346.391 563.112 340.216C563.506 334.04 562.182 327.375 557.195 322.961C555.393 321.422 553.32 320.142 551.053 319.17C550.874 319.085 550.734 318.949 550.656 318.786C550.577 318.623 550.565 318.441 550.62 318.271C550.676 318.101 550.796 317.952 550.962 317.848C551.127 317.745 551.328 317.694 551.532 317.702C557.935 318.015 564.18 319.547 569.824 322.191C575.468 324.835 580.371 328.526 584.186 333.001C588.224 338.066 590.936 343.836 592.133 349.907C593.331 355.978 592.984 362.203 591.117 368.146C589.765 372.414 586.863 378.956 581.806 379.8Z" fill="#6376BF"/>
<path d="M593.244 379.898C588.591 378.994 584.49 376.623 581.735 373.245C580.04 371.184 578.979 368.781 578.654 366.264C578.329 363.748 578.749 361.2 579.875 358.864C581.233 356.669 582.832 354.592 584.651 352.664C590.21 345.922 593.267 337.867 593.413 329.577C593.563 325.634 592.701 321.712 590.892 318.094C590.777 317.882 590.752 317.642 590.82 317.415C590.888 317.189 591.045 316.99 591.264 316.853C591.483 316.717 591.751 316.651 592.02 316.668C592.289 316.684 592.543 316.782 592.737 316.944C599.624 322.937 604.226 330.62 605.923 338.956C608.74 351.503 605.923 364.636 600.485 376.461C599.945 377.687 598.919 378.706 597.593 379.336C596.266 379.965 594.725 380.164 593.244 379.898Z" fill="#E7EFFC"/>
<path d="M564.506 377.403L565.802 384.019L567.901 394.646L570.381 407.18H598.4L600.88 394.646L602.979 384.019L604.275 377.403H564.506Z" fill="#B4CBDD"/>
<path d="M563.013 378.919H605.838V375.875H563.013V378.919Z" fill="#B4CBDD"/>
<path d="M565.802 384.019L567.901 394.646H600.88L602.979 384.019H565.802Z" fill="#E7EFFC"/>
<path d="M44.0651 131.875L34.6407 146.048C34.6166 146.087 34.6043 146.13 34.605 146.174C34.6058 146.218 34.6195 146.261 34.645 146.299C34.6704 146.337 34.7067 146.369 34.7504 146.392C34.794 146.414 34.8436 146.426 34.8943 146.427H53.7431C53.7938 146.426 53.8433 146.414 53.887 146.392C53.9306 146.369 53.9669 146.337 53.9924 146.299C54.0179 146.261 54.0316 146.218 54.0324 146.174C54.0331 146.13 54.0208 146.087 53.9967 146.048L44.5723 131.875C44.546 131.837 44.5088 131.806 44.4644 131.784C44.4199 131.762 44.3697 131.751 44.3187 131.751C44.2676 131.751 44.2175 131.762 44.173 131.784C44.1286 131.806 44.0914 131.837 44.0651 131.875Z" fill="#6376BF"/>
<path d="M51.6018 126.849L42.1774 141.022C42.1537 141.06 42.1413 141.102 42.1414 141.145C42.1414 141.188 42.154 141.231 42.1778 141.269C42.2016 141.306 42.236 141.338 42.2778 141.361C42.3196 141.385 42.3674 141.398 42.4169 141.401H61.2798C61.3293 141.398 61.3771 141.385 61.4189 141.361C61.4607 141.338 61.4951 141.306 61.5189 141.269C61.5428 141.231 61.5553 141.188 61.5554 141.145C61.5554 141.102 61.543 141.06 61.5193 141.022L52.1231 126.849C52.1018 126.804 52.0657 126.766 52.0193 126.739C51.9729 126.712 51.9183 126.697 51.8624 126.697C51.8066 126.697 51.752 126.712 51.7056 126.739C51.6592 126.766 51.6231 126.804 51.6018 126.849Z" fill="#B4CBDD"/>
<path d="M530.528 107.87L518.807 125.492C518.774 125.539 518.756 125.592 518.756 125.647C518.755 125.702 518.771 125.756 518.803 125.804C518.835 125.851 518.881 125.891 518.936 125.918C518.991 125.944 519.054 125.958 519.117 125.956H542.544C542.607 125.958 542.67 125.944 542.725 125.918C542.781 125.891 542.826 125.851 542.858 125.804C542.89 125.756 542.906 125.702 542.906 125.647C542.905 125.592 542.887 125.539 542.854 125.492L531.091 107.87C531.057 107.834 531.014 107.805 530.965 107.785C530.916 107.766 530.863 107.755 530.809 107.755C530.756 107.755 530.703 107.766 530.654 107.785C530.605 107.805 530.562 107.834 530.528 107.87Z" fill="#6376BF"/>
<path d="M542.6 113.434L530.88 131.056C530.847 131.103 530.829 131.156 530.828 131.211C530.828 131.266 530.844 131.32 530.876 131.368C530.907 131.416 530.953 131.455 531.009 131.482C531.064 131.508 531.126 131.522 531.19 131.52H554.617C554.68 131.522 554.743 131.508 554.798 131.482C554.853 131.455 554.899 131.416 554.931 131.368C554.963 131.32 554.979 131.266 554.978 131.211C554.978 131.156 554.96 131.103 554.927 131.056L543.22 113.434C543.19 113.386 543.145 113.345 543.091 113.317C543.036 113.289 542.974 113.274 542.91 113.274C542.847 113.274 542.784 113.289 542.73 113.317C542.675 113.345 542.631 113.386 542.6 113.434Z" fill="#B4CBDD"/>
<path d="M286.198 117.323H283.155V116.345H285.972L285.127 115.012L286.099 114.523L287.085 115.99C287.173 116.125 287.221 116.276 287.226 116.43C287.226 116.667 287.118 116.894 286.925 117.061C286.732 117.229 286.47 117.323 286.198 117.323ZM277.295 117.323H271.378V116.345H277.295V117.323ZM265.461 117.323H259.545V116.345H265.461V117.323ZM256.206 115.721L255.22 115.232L258.178 110.793L259.164 111.282L256.206 115.721ZM282.169 110.56L279.21 106.109L280.182 105.62L283.155 110.12L282.169 110.56ZM262.123 106.892L261.136 106.403L264.095 101.951L265.067 102.441L262.123 106.892ZM276.21 101.731L273.294 97.2189L274.28 96.7298L277.238 101.181L276.21 101.731ZM267.983 98.0627L267.011 97.5735L270.011 93L270.997 93.4769L267.983 98.0627Z" fill="#8D9BD0"/>
<path d="M302.877 125.663H299.919V124.685H302.736L301.835 123.352L302.807 122.862L303.779 124.33C303.872 124.462 303.921 124.615 303.92 124.77C303.921 124.889 303.896 125.007 303.844 125.117C303.792 125.227 303.715 125.326 303.618 125.41C303.52 125.493 303.404 125.558 303.277 125.602C303.15 125.645 303.014 125.666 302.877 125.663ZM293.988 125.663H288.071V124.685H293.988V125.663ZM282.155 125.663H276.238V124.685H282.155V125.663ZM272.885 124.061L271.885 123.572L274.843 119.133L275.815 119.622L272.885 124.061ZM298.862 118.9L295.904 114.449L296.876 113.96L299.834 118.411L298.862 118.9ZM278.802 115.171L277.83 114.681L280.788 110.23L281.76 110.719L278.802 115.171ZM292.889 110.01L289.931 105.559L290.903 105.07L293.861 109.521L292.889 110.01ZM284.662 106.28L283.69 105.791L286.648 101.34L287.606 101.841L284.662 106.28Z" fill="#8D9BD0"/>
<path d="M54.0669 249.393L49.8407 250.726L54.0669 252.047V253.404L48.0798 251.435V250.017L54.0669 248.036V249.393Z" fill="#B4CBDD"/>
<path d="M58.5749 245.357H60.3218L56.0956 255.642H54.4192L58.5749 245.357Z" fill="#B4CBDD"/>
<path d="M66.5344 250.017V251.435L60.5754 253.404V252.047L64.8016 250.75L60.5754 249.417V248.06L66.5344 250.017Z" fill="#B4CBDD"/>
<path d="M565.323 185.694L557.096 188.311L565.323 190.903V193.569L553.631 189.692V186.916L565.38 183.04L565.323 185.694Z" fill="#B4CBDD"/>
<path d="M574.156 177.769H577.579L569.437 197.947H566.014L574.156 177.769Z" fill="#B4CBDD"/>
<path d="M589.779 186.916V189.692L578.03 193.569V190.903L586.243 188.311L578.03 185.694V183.04L589.779 186.916Z" fill="#B4CBDD"/>
</g>
<defs>
<clipPath id="clip0">
<rect width="607.05" height="314.18" fill="white" transform="translate(0 93)"/>
</clipPath>
</defs>
</svg>
